<svg width="278" height="346" viewBox="0 0 278 346" fill="none" xmlns="http://www.w3.org/2000/svg">
<g filter="url(#filter0_ii_1_37)">
<rect width="278" height="346" rx="29" fill="white" style="mix-blend-mode:luminosity"/>
<path d="M138.583 87.3333H148.5V73.3333H163.375V64H148.5V50H138.583V64H123.708V73.3333H138.583M118.75 129.333C113.296 129.333 108.833 133.533 108.833 138.667C108.833 143.8 113.296 148 118.75 148C124.204 148 128.667 143.8 128.667 138.667C128.667 133.533 124.204 129.333 118.75 129.333ZM168.333 129.333C162.879 129.333 158.417 133.533 158.417 138.667C158.417 143.8 162.879 148 168.333 148C173.787 148 178.25 143.8 178.25 138.667C178.25 133.533 173.787 129.333 168.333 129.333ZM119.742 114.4V113.933L124.204 106H160.896C164.367 106 167.837 104.133 169.325 101.333L188.662 68.6667L180.233 64L160.896 96.6667H126.187L105.362 54.6667H89V64H98.9167L116.767 99.4667L109.825 110.667C109.329 112.067 108.833 113.467 108.833 115.333C108.833 120.467 113.296 124.667 118.75 124.667H178.25V115.333H120.733C120.237 115.333 119.742 114.867 119.742 114.4Z" fill="#FA5629"/>
<path d="M77.8965 196.863L75.582 191.355L73.2969 196.863H77.8965ZM69.2637 202V201.639C69.778 201.58 70.1621 201.385 70.416 201.053C70.6764 200.721 71.1191 199.819 71.7441 198.348L75.9141 188.533H76.3047L81.2852 199.871C81.6172 200.626 81.8809 201.095 82.0762 201.277C82.278 201.453 82.6133 201.574 83.082 201.639V202H77.9941V201.639C78.5801 201.587 78.9577 201.525 79.127 201.453C79.2962 201.375 79.3809 201.189 79.3809 200.896C79.3809 200.799 79.3483 200.626 79.2832 200.379C79.2181 200.132 79.127 199.871 79.0098 199.598L78.1797 197.674H72.9453C72.4245 198.982 72.112 199.783 72.0078 200.076C71.9102 200.363 71.8613 200.59 71.8613 200.76C71.8613 201.098 71.998 201.333 72.2715 201.463C72.4408 201.541 72.7598 201.6 73.2285 201.639V202H69.2637ZM88.1602 192.771C88.6354 192.771 89.0716 192.876 89.4688 193.084C89.7292 193.221 89.9798 193.41 90.2207 193.65V190.545C90.2207 190.148 90.1751 189.874 90.084 189.725C89.9993 189.575 89.791 189.5 89.459 189.5C89.3809 189.5 89.3125 189.503 89.2539 189.51C89.1953 189.516 89.0651 189.529 88.8633 189.549V189.227L89.6641 189.021C89.957 188.943 90.25 188.862 90.543 188.777C90.8359 188.693 91.0931 188.611 91.3145 188.533C91.4186 188.501 91.5911 188.439 91.832 188.348L91.8906 188.367L91.8711 189.393C91.8646 189.764 91.8581 190.148 91.8516 190.545C91.8451 190.936 91.8418 191.323 91.8418 191.707L91.8223 199.686C91.8223 200.109 91.8743 200.405 91.9785 200.574C92.0827 200.743 92.3594 200.828 92.8086 200.828C92.8802 200.828 92.9518 200.828 93.0234 200.828C93.0951 200.822 93.1667 200.812 93.2383 200.799V201.121C93.1992 201.134 92.7272 201.297 91.8223 201.609L90.2891 202.186L90.2207 202.098V200.896C89.8561 201.294 89.5404 201.577 89.2734 201.746C88.7982 202.039 88.248 202.186 87.623 202.186C86.5163 202.186 85.6178 201.759 84.9277 200.906C84.2441 200.047 83.9023 199.054 83.9023 197.928C83.9023 196.515 84.3125 195.304 85.1328 194.295C85.9596 193.279 86.9688 192.771 88.1602 192.771ZM88.5215 201.131C89.0293 201.131 89.4395 200.981 89.752 200.682C90.0645 200.382 90.2207 200.099 90.2207 199.832V195.643C90.2207 194.796 89.9928 194.201 89.5371 193.855C89.0879 193.504 88.6484 193.328 88.2188 193.328C87.3984 193.328 86.7604 193.693 86.3047 194.422C85.849 195.145 85.6211 196.036 85.6211 197.098C85.6211 198.146 85.862 199.08 86.3438 199.9C86.832 200.721 87.5579 201.131 88.5215 201.131ZM98.1602 192.771C98.6354 192.771 99.0716 192.876 99.4688 193.084C99.7292 193.221 99.9798 193.41 100.221 193.65V190.545C100.221 190.148 100.175 189.874 100.084 189.725C99.9993 189.575 99.791 189.5 99.459 189.5C99.3809 189.5 99.3125 189.503 99.2539 189.51C99.1953 189.516 99.0651 189.529 98.8633 189.549V189.227L99.6641 189.021C99.957 188.943 100.25 188.862 100.543 188.777C100.836 188.693 101.093 188.611 101.314 188.533C101.419 188.501 101.591 188.439 101.832 188.348L101.891 188.367L101.871 189.393C101.865 189.764 101.858 190.148 101.852 190.545C101.845 190.936 101.842 191.323 101.842 191.707L101.822 199.686C101.822 200.109 101.874 200.405 101.979 200.574C102.083 200.743 102.359 200.828 102.809 200.828C102.88 200.828 102.952 200.828 103.023 200.828C103.095 200.822 103.167 200.812 103.238 200.799V201.121C103.199 201.134 102.727 201.297 101.822 201.609L100.289 202.186L100.221 202.098V200.896C99.8561 201.294 99.5404 201.577 99.2734 201.746C98.7982 202.039 98.248 202.186 97.623 202.186C96.5163 202.186 95.6178 201.759 94.9277 200.906C94.2441 200.047 93.9023 199.054 93.9023 197.928C93.9023 196.515 94.3125 195.304 95.1328 194.295C95.9596 193.279 96.9688 192.771 98.1602 192.771ZM98.5215 201.131C99.0293 201.131 99.4395 200.981 99.752 200.682C100.064 200.382 100.221 200.099 100.221 199.832V195.643C100.221 194.796 99.9928 194.201 99.5371 193.855C99.0879 193.504 98.6484 193.328 98.2188 193.328C97.3984 193.328 96.7604 193.693 96.3047 194.422C95.849 195.145 95.6211 196.036 95.6211 197.098C95.6211 198.146 95.862 199.08 96.3438 199.9C96.832 200.721 97.5579 201.131 98.5215 201.131ZM108.814 201.727C109.505 201.694 109.957 201.567 110.172 201.346C110.393 201.118 110.504 200.643 110.504 199.92V193.65H108.834V192.996H110.504C110.504 191.967 110.644 191.098 110.924 190.389C111.458 189.028 112.438 188.348 113.863 188.348C114.436 188.348 114.947 188.462 115.396 188.689C115.852 188.917 116.08 189.223 116.08 189.607C116.08 189.822 116.002 190.014 115.846 190.184C115.689 190.353 115.501 190.438 115.279 190.438C115.09 190.438 114.928 190.382 114.791 190.271C114.654 190.154 114.492 189.952 114.303 189.666L114.137 189.412C114.046 189.275 113.938 189.161 113.814 189.07C113.691 188.973 113.518 188.924 113.297 188.924C112.802 188.924 112.467 189.168 112.291 189.656C112.193 189.917 112.145 190.258 112.145 190.682V192.996H114.596V193.65H112.164V199.92C112.164 200.656 112.262 201.128 112.457 201.336C112.659 201.538 113.18 201.668 114.02 201.727V202H108.814V201.727ZM115.592 197.469C115.592 196.173 116.002 195.079 116.822 194.188C117.649 193.289 118.71 192.84 120.006 192.84C121.295 192.84 122.363 193.263 123.209 194.109C124.055 194.956 124.479 196.082 124.479 197.488C124.479 198.784 124.068 199.91 123.248 200.867C122.428 201.824 121.367 202.303 120.064 202.303C118.814 202.303 117.757 201.844 116.891 200.926C116.025 200.008 115.592 198.855 115.592 197.469ZM119.732 193.426C119.218 193.426 118.772 193.595 118.395 193.934C117.743 194.526 117.418 195.548 117.418 197C117.418 198.159 117.678 199.24 118.199 200.242C118.727 201.245 119.456 201.746 120.387 201.746C121.116 201.746 121.676 201.411 122.066 200.74C122.464 200.07 122.662 199.191 122.662 198.104C122.662 196.977 122.411 195.916 121.91 194.92C121.409 193.924 120.683 193.426 119.732 193.426ZM125.592 197.469C125.592 196.173 126.002 195.079 126.822 194.188C127.649 193.289 128.71 192.84 130.006 192.84C131.295 192.84 132.363 193.263 133.209 194.109C134.055 194.956 134.479 196.082 134.479 197.488C134.479 198.784 134.068 199.91 133.248 200.867C132.428 201.824 131.367 202.303 130.064 202.303C128.814 202.303 127.757 201.844 126.891 200.926C126.025 200.008 125.592 198.855 125.592 197.469ZM129.732 193.426C129.218 193.426 128.772 193.595 128.395 193.934C127.743 194.526 127.418 195.548 127.418 197C127.418 198.159 127.678 199.24 128.199 200.242C128.727 201.245 129.456 201.746 130.387 201.746C131.116 201.746 131.676 201.411 132.066 200.74C132.464 200.07 132.662 199.191 132.662 198.104C132.662 196.977 132.411 195.916 131.91 194.92C131.409 193.924 130.683 193.426 129.732 193.426ZM139.82 192.771C140.296 192.771 140.732 192.876 141.129 193.084C141.389 193.221 141.64 193.41 141.881 193.65V190.545C141.881 190.148 141.835 189.874 141.744 189.725C141.66 189.575 141.451 189.5 141.119 189.5C141.041 189.5 140.973 189.503 140.914 189.51C140.855 189.516 140.725 189.529 140.523 189.549V189.227L141.324 189.021C141.617 188.943 141.91 188.862 142.203 188.777C142.496 188.693 142.753 188.611 142.975 188.533C143.079 188.501 143.251 188.439 143.492 188.348L143.551 188.367L143.531 189.393C143.525 189.764 143.518 190.148 143.512 190.545C143.505 190.936 143.502 191.323 143.502 191.707L143.482 199.686C143.482 200.109 143.535 200.405 143.639 200.574C143.743 200.743 144.02 200.828 144.469 200.828C144.54 200.828 144.612 200.828 144.684 200.828C144.755 200.822 144.827 200.812 144.898 200.799V201.121C144.859 201.134 144.387 201.297 143.482 201.609L141.949 202.186L141.881 202.098V200.896C141.516 201.294 141.201 201.577 140.934 201.746C140.458 202.039 139.908 202.186 139.283 202.186C138.176 202.186 137.278 201.759 136.588 200.906C135.904 200.047 135.562 199.054 135.562 197.928C135.562 196.515 135.973 195.304 136.793 194.295C137.62 193.279 138.629 192.771 139.82 192.771ZM140.182 201.131C140.689 201.131 141.1 200.981 141.412 200.682C141.725 200.382 141.881 200.099 141.881 199.832V195.643C141.881 194.796 141.653 194.201 141.197 193.855C140.748 193.504 140.309 193.328 139.879 193.328C139.059 193.328 138.421 193.693 137.965 194.422C137.509 195.145 137.281 196.036 137.281 197.098C137.281 198.146 137.522 199.08 138.004 199.9C138.492 200.721 139.218 201.131 140.182 201.131ZM151.725 189.393C151.725 189.113 151.822 188.872 152.018 188.67C152.213 188.468 152.454 188.367 152.74 188.367C153.02 188.367 153.258 188.468 153.453 188.67C153.655 188.865 153.756 189.106 153.756 189.393C153.756 189.673 153.655 189.913 153.453 190.115C153.258 190.311 153.02 190.408 152.74 190.408C152.454 190.408 152.213 190.311 152.018 190.115C151.822 189.913 151.725 189.673 151.725 189.393ZM150.475 201.727C151.171 201.661 151.611 201.544 151.793 201.375C151.975 201.199 152.066 200.73 152.066 199.969V195.311C152.066 194.887 152.037 194.594 151.979 194.432C151.881 194.165 151.676 194.031 151.363 194.031C151.292 194.031 151.22 194.038 151.148 194.051C151.083 194.064 150.888 194.116 150.562 194.207V193.904L150.982 193.768C152.122 193.396 152.916 193.117 153.365 192.928C153.548 192.85 153.665 192.811 153.717 192.811C153.73 192.856 153.736 192.905 153.736 192.957V199.969C153.736 200.711 153.824 201.176 154 201.365C154.182 201.554 154.589 201.674 155.221 201.727V202H150.475V201.727ZM160.738 192.996V193.699H158.746L158.727 199.324C158.727 199.819 158.769 200.193 158.854 200.447C159.01 200.896 159.316 201.121 159.771 201.121C160.006 201.121 160.208 201.066 160.377 200.955C160.553 200.844 160.751 200.669 160.973 200.428L161.227 200.643L161.012 200.936C160.673 201.391 160.315 201.714 159.938 201.902C159.56 202.091 159.195 202.186 158.844 202.186C158.076 202.186 157.555 201.844 157.281 201.16C157.132 200.789 157.057 200.275 157.057 199.617V193.699H155.992C155.96 193.68 155.934 193.66 155.914 193.641C155.901 193.621 155.895 193.595 155.895 193.562C155.895 193.497 155.908 193.449 155.934 193.416C155.966 193.377 156.061 193.292 156.217 193.162C156.666 192.791 156.988 192.492 157.184 192.264C157.385 192.029 157.854 191.417 158.59 190.428C158.674 190.428 158.723 190.434 158.736 190.447C158.756 190.46 158.766 190.509 158.766 190.594V192.996H160.738ZM165.797 192.84C166.715 192.84 167.519 193.159 168.209 193.797C168.899 194.428 169.244 195.327 169.244 196.492H163.043C163.108 198.003 163.45 199.103 164.068 199.793C164.687 200.483 165.419 200.828 166.266 200.828C166.949 200.828 167.525 200.649 167.994 200.291C168.463 199.933 168.896 199.425 169.293 198.768L169.635 198.885C169.368 199.712 168.867 200.477 168.131 201.18C167.402 201.883 166.507 202.234 165.445 202.234C164.221 202.234 163.274 201.772 162.604 200.848C161.939 199.923 161.607 198.859 161.607 197.654C161.607 196.346 161.995 195.216 162.77 194.266C163.544 193.315 164.553 192.84 165.797 192.84ZM165.23 193.553C164.488 193.553 163.922 193.882 163.531 194.539C163.323 194.891 163.173 195.333 163.082 195.867H167.203C167.132 195.216 167.008 194.731 166.832 194.412C166.513 193.839 165.979 193.553 165.23 193.553ZM170.426 201.746C170.934 201.701 171.272 201.616 171.441 201.492C171.702 201.303 171.832 200.926 171.832 200.359V195.311C171.832 194.829 171.767 194.513 171.637 194.363C171.513 194.214 171.305 194.139 171.012 194.139C170.875 194.139 170.771 194.145 170.699 194.158C170.634 194.171 170.556 194.194 170.465 194.227V193.885L171.168 193.65C171.422 193.566 171.839 193.413 172.418 193.191C172.997 192.97 173.303 192.859 173.336 192.859C173.368 192.859 173.388 192.876 173.395 192.908C173.401 192.941 173.404 193.003 173.404 193.094V194.412C174.049 193.826 174.605 193.423 175.074 193.201C175.543 192.973 176.025 192.859 176.52 192.859C177.19 192.859 177.724 193.087 178.121 193.543C178.329 193.79 178.502 194.126 178.639 194.549C179.12 194.061 179.54 193.699 179.898 193.465C180.517 193.061 181.148 192.859 181.793 192.859C182.841 192.859 183.541 193.286 183.893 194.139C184.094 194.62 184.195 195.382 184.195 196.424V200.477C184.195 200.939 184.296 201.255 184.498 201.424C184.706 201.587 185.077 201.694 185.611 201.746V202H181.207V201.727C181.773 201.674 182.145 201.561 182.32 201.385C182.503 201.209 182.594 200.851 182.594 200.311V196.102C182.594 195.47 182.525 195.005 182.389 194.705C182.148 194.171 181.676 193.904 180.973 193.904C180.549 193.904 180.13 194.044 179.713 194.324C179.472 194.487 179.176 194.747 178.824 195.105V200.105C178.824 200.633 178.915 201.033 179.098 201.307C179.286 201.58 179.68 201.727 180.279 201.746V202H175.797V201.746C176.415 201.668 176.809 201.518 176.979 201.297C177.148 201.076 177.232 200.532 177.232 199.666V196.932C177.232 195.929 177.167 195.239 177.037 194.861C176.822 194.223 176.367 193.904 175.67 193.904C175.273 193.904 174.882 194.015 174.498 194.236C174.114 194.451 173.775 194.734 173.482 195.086V200.428C173.482 200.923 173.567 201.264 173.736 201.453C173.912 201.642 174.29 201.74 174.869 201.746V202H170.426V201.746ZM186.705 198.924H187.027C187.177 199.666 187.379 200.236 187.633 200.633C188.089 201.362 188.756 201.727 189.635 201.727C190.123 201.727 190.507 201.593 190.787 201.326C191.074 201.053 191.217 200.701 191.217 200.271C191.217 199.998 191.135 199.734 190.973 199.48C190.81 199.227 190.523 198.979 190.113 198.738L189.02 198.113C188.219 197.684 187.63 197.251 187.252 196.814C186.874 196.378 186.686 195.864 186.686 195.271C186.686 194.542 186.946 193.943 187.467 193.475C187.988 193.006 188.642 192.771 189.43 192.771C189.775 192.771 190.152 192.837 190.562 192.967C190.979 193.097 191.214 193.162 191.266 193.162C191.383 193.162 191.467 193.146 191.52 193.113C191.572 193.081 191.617 193.029 191.656 192.957H191.891L191.959 195.682H191.656C191.526 195.05 191.35 194.559 191.129 194.207C190.725 193.556 190.143 193.23 189.381 193.23C188.925 193.23 188.567 193.37 188.307 193.65C188.046 193.93 187.916 194.259 187.916 194.637C187.916 195.236 188.365 195.77 189.264 196.238L190.553 196.932C191.939 197.687 192.633 198.566 192.633 199.568C192.633 200.337 192.343 200.965 191.764 201.453C191.191 201.941 190.439 202.186 189.508 202.186C189.117 202.186 188.674 202.12 188.18 201.99C187.685 201.86 187.392 201.795 187.301 201.795C187.223 201.795 187.154 201.824 187.096 201.883C187.037 201.935 186.992 202 186.959 202.078H186.705V198.924ZM203.551 192.996V193.699H201.559L201.539 199.324C201.539 199.819 201.581 200.193 201.666 200.447C201.822 200.896 202.128 201.121 202.584 201.121C202.818 201.121 203.02 201.066 203.189 200.955C203.365 200.844 203.564 200.669 203.785 200.428L204.039 200.643L203.824 200.936C203.486 201.391 203.128 201.714 202.75 201.902C202.372 202.091 202.008 202.186 201.656 202.186C200.888 202.186 200.367 201.844 200.094 201.16C199.944 200.789 199.869 200.275 199.869 199.617V193.699H198.805C198.772 193.68 198.746 193.66 198.727 193.641C198.714 193.621 198.707 193.595 198.707 193.562C198.707 193.497 198.72 193.449 198.746 193.416C198.779 193.377 198.873 193.292 199.029 193.162C199.479 192.791 199.801 192.492 199.996 192.264C200.198 192.029 200.667 191.417 201.402 190.428C201.487 190.428 201.536 190.434 201.549 190.447C201.568 190.46 201.578 190.509 201.578 190.594V192.996H203.551ZM204.537 197.469C204.537 196.173 204.947 195.079 205.768 194.188C206.594 193.289 207.656 192.84 208.951 192.84C210.24 192.84 211.308 193.263 212.154 194.109C213.001 194.956 213.424 196.082 213.424 197.488C213.424 198.784 213.014 199.91 212.193 200.867C211.373 201.824 210.312 202.303 209.01 202.303C207.76 202.303 206.702 201.844 205.836 200.926C204.97 200.008 204.537 198.855 204.537 197.469ZM208.678 193.426C208.163 193.426 207.717 193.595 207.34 193.934C206.689 194.526 206.363 195.548 206.363 197C206.363 198.159 206.624 199.24 207.145 200.242C207.672 201.245 208.401 201.746 209.332 201.746C210.061 201.746 210.621 201.411 211.012 200.74C211.409 200.07 211.607 199.191 211.607 198.104C211.607 196.977 211.357 195.916 210.855 194.92C210.354 193.924 209.628 193.426 208.678 193.426ZM66.7637 216.025H70.8848V216.328C70.5592 216.335 70.3184 216.364 70.1621 216.416C69.8626 216.501 69.7129 216.667 69.7129 216.914C69.7129 217.005 69.7292 217.1 69.7617 217.197C69.7943 217.288 69.8529 217.428 69.9375 217.617L72.2227 222.686L74.0586 217.578C74.0781 217.526 74.1074 217.409 74.1465 217.227C74.1921 217.044 74.2148 216.921 74.2148 216.855C74.2148 216.686 74.1562 216.562 74.0391 216.484C73.9219 216.406 73.7721 216.361 73.5898 216.348L73.2871 216.328V216.025H75.9727V216.328C75.7057 216.361 75.5039 216.452 75.3672 216.602C75.237 216.751 75.123 216.96 75.0254 217.227L71.9492 225.371C71.4154 226.777 70.9043 227.796 70.416 228.428C69.9277 229.059 69.3092 229.375 68.5605 229.375C68.196 229.375 67.8542 229.284 67.5352 229.102C67.2161 228.919 67.0566 228.63 67.0566 228.232C67.0566 227.972 67.151 227.757 67.3398 227.588C67.5352 227.425 67.7793 227.344 68.0723 227.344C68.2415 227.344 68.4922 227.406 68.8242 227.529C69.1628 227.653 69.4036 227.715 69.5469 227.715C69.9115 227.715 70.2956 227.292 70.6992 226.445C71.1029 225.599 71.3047 225.033 71.3047 224.746C71.3047 224.688 71.2949 224.616 71.2754 224.531C71.2559 224.447 71.2331 224.372 71.207 224.307L68.082 217.549C67.8607 217.067 67.6654 216.751 67.4961 216.602C67.3333 216.445 67.0892 216.344 66.7637 216.299V216.025ZM76.998 220.469C76.998 219.173 77.4082 218.079 78.2285 217.188C79.0553 216.289 80.1165 215.84 81.4121 215.84C82.7012 215.84 83.7689 216.263 84.6152 217.109C85.4616 217.956 85.8848 219.082 85.8848 220.488C85.8848 221.784 85.4746 222.91 84.6543 223.867C83.834 224.824 82.7728 225.303 81.4707 225.303C80.2207 225.303 79.1628 224.844 78.2969 223.926C77.431 223.008 76.998 221.855 76.998 220.469ZM81.1387 216.426C80.6243 216.426 80.1784 216.595 79.8008 216.934C79.1497 217.526 78.8242 218.548 78.8242 220C78.8242 221.159 79.0846 222.24 79.6055 223.242C80.1328 224.245 80.862 224.746 81.793 224.746C82.5221 224.746 83.082 224.411 83.4727 223.74C83.8698 223.07 84.0684 222.191 84.0684 221.104C84.0684 219.977 83.8177 218.916 83.3164 217.92C82.8151 216.924 82.0892 216.426 81.1387 216.426ZM89.5859 215.957V222.207C89.5859 222.65 89.6478 223.005 89.7715 223.271C90.0124 223.766 90.4551 224.014 91.0996 224.014C91.5423 224.014 91.9753 223.867 92.3984 223.574C92.6393 223.411 92.8835 223.187 93.1309 222.9V217.549C93.1309 217.048 93.0332 216.719 92.8379 216.562C92.6426 216.406 92.252 216.312 91.666 216.279V215.957H94.8203V222.832C94.8203 223.275 94.8984 223.581 95.0547 223.75C95.2174 223.913 95.556 223.984 96.0703 223.965V224.238C95.7122 224.336 95.4486 224.411 95.2793 224.463C95.11 224.508 94.8268 224.596 94.4297 224.727C94.2604 224.785 93.8893 224.925 93.3164 225.146C93.2839 225.146 93.2643 225.13 93.2578 225.098C93.2513 225.072 93.248 225.039 93.248 225V223.428C92.8053 223.955 92.4017 224.346 92.0371 224.6C91.4837 224.99 90.8978 225.186 90.2793 225.186C89.7129 225.186 89.179 224.984 88.6777 224.58C88.1699 224.183 87.916 223.516 87.916 222.578V217.51C87.916 216.989 87.8053 216.641 87.584 216.465C87.4408 216.354 87.1348 216.276 86.666 216.23V215.957H89.5859ZM96.5781 224.678C97.1771 224.626 97.5742 224.521 97.7695 224.365C97.9648 224.202 98.0625 223.861 98.0625 223.34V218.936C98.0625 218.291 98.0007 217.832 97.877 217.559C97.7598 217.279 97.5417 217.139 97.2227 217.139C97.1576 217.139 97.0697 217.148 96.959 217.168C96.8548 217.181 96.7441 217.201 96.627 217.227V216.904C96.998 216.774 97.3789 216.641 97.7695 216.504C98.1602 216.367 98.4303 216.27 98.5801 216.211C98.9056 216.087 99.2409 215.947 99.5859 215.791C99.6315 215.791 99.6576 215.807 99.6641 215.84C99.6771 215.872 99.6836 215.941 99.6836 216.045V217.646C100.1 217.067 100.501 216.615 100.885 216.289C101.275 215.964 101.679 215.801 102.096 215.801C102.428 215.801 102.698 215.902 102.906 216.104C103.115 216.299 103.219 216.546 103.219 216.846C103.219 217.113 103.137 217.337 102.975 217.52C102.818 217.702 102.62 217.793 102.379 217.793C102.132 217.793 101.881 217.679 101.627 217.451C101.38 217.223 101.184 217.109 101.041 217.109C100.813 217.109 100.533 217.295 100.201 217.666C99.8691 218.031 99.7031 218.408 99.7031 218.799V223.203C99.7031 223.763 99.8333 224.154 100.094 224.375C100.354 224.59 100.787 224.691 101.393 224.678V225H96.5781V224.678ZM109.186 221.924H109.508C109.658 222.666 109.859 223.236 110.113 223.633C110.569 224.362 111.236 224.727 112.115 224.727C112.604 224.727 112.988 224.593 113.268 224.326C113.554 224.053 113.697 223.701 113.697 223.271C113.697 222.998 113.616 222.734 113.453 222.48C113.29 222.227 113.004 221.979 112.594 221.738L111.5 221.113C110.699 220.684 110.11 220.251 109.732 219.814C109.355 219.378 109.166 218.864 109.166 218.271C109.166 217.542 109.426 216.943 109.947 216.475C110.468 216.006 111.122 215.771 111.91 215.771C112.255 215.771 112.633 215.837 113.043 215.967C113.46 216.097 113.694 216.162 113.746 216.162C113.863 216.162 113.948 216.146 114 216.113C114.052 216.081 114.098 216.029 114.137 215.957H114.371L114.439 218.682H114.137C114.007 218.05 113.831 217.559 113.609 217.207C113.206 216.556 112.623 216.23 111.861 216.23C111.406 216.23 111.048 216.37 110.787 216.65C110.527 216.93 110.396 217.259 110.396 217.637C110.396 218.236 110.846 218.77 111.744 219.238L113.033 219.932C114.42 220.687 115.113 221.566 115.113 222.568C115.113 223.337 114.824 223.965 114.244 224.453C113.671 224.941 112.919 225.186 111.988 225.186C111.598 225.186 111.155 225.12 110.66 224.99C110.165 224.86 109.872 224.795 109.781 224.795C109.703 224.795 109.635 224.824 109.576 224.883C109.518 224.935 109.472 225 109.439 225.078H109.186V221.924ZM116.119 224.727C116.653 224.655 117.001 224.525 117.164 224.336C117.333 224.141 117.418 223.685 117.418 222.969V213.594C117.418 213.229 117.369 212.962 117.271 212.793C117.18 212.617 116.952 212.529 116.588 212.529C116.516 212.529 116.445 212.536 116.373 212.549C116.308 212.555 116.233 212.565 116.148 212.578V212.227C116.435 212.142 116.786 212.041 117.203 211.924C117.626 211.8 117.919 211.712 118.082 211.66L119.02 211.367L119.039 211.436V217.432C119.449 216.963 119.814 216.618 120.133 216.396C120.706 216.006 121.324 215.811 121.988 215.811C123.043 215.811 123.762 216.253 124.146 217.139C124.355 217.607 124.459 218.223 124.459 218.984V222.969C124.459 223.659 124.537 224.108 124.693 224.316C124.856 224.525 125.185 224.661 125.68 224.727V225H121.451V224.727C122.018 224.648 122.382 224.515 122.545 224.326C122.708 224.137 122.789 223.685 122.789 222.969V219.014C122.789 218.382 122.682 217.871 122.467 217.48C122.258 217.09 121.861 216.895 121.275 216.895C120.768 216.895 120.276 217.077 119.801 217.441C119.326 217.806 119.088 218.044 119.088 218.154V222.969C119.088 223.698 119.173 224.154 119.342 224.336C119.511 224.518 119.872 224.648 120.426 224.727V225H116.119V224.727ZM126.451 220.469C126.451 219.173 126.861 218.079 127.682 217.188C128.508 216.289 129.57 215.84 130.865 215.84C132.154 215.84 133.222 216.263 134.068 217.109C134.915 217.956 135.338 219.082 135.338 220.488C135.338 221.784 134.928 222.91 134.107 223.867C133.287 224.824 132.226 225.303 130.924 225.303C129.674 225.303 128.616 224.844 127.75 223.926C126.884 223.008 126.451 221.855 126.451 220.469ZM130.592 216.426C130.077 216.426 129.632 216.595 129.254 216.934C128.603 217.526 128.277 218.548 128.277 220C128.277 221.159 128.538 222.24 129.059 223.242C129.586 224.245 130.315 224.746 131.246 224.746C131.975 224.746 132.535 224.411 132.926 223.74C133.323 223.07 133.521 222.191 133.521 221.104C133.521 219.977 133.271 218.916 132.77 217.92C132.268 216.924 131.542 216.426 130.592 216.426ZM139.137 223.203C139.306 223.646 139.557 223.978 139.889 224.199C140.227 224.414 140.624 224.521 141.08 224.521C141.783 224.521 142.382 224.173 142.877 223.477C143.378 222.773 143.629 221.797 143.629 220.547C143.629 219.349 143.368 218.454 142.848 217.861C142.333 217.269 141.734 216.973 141.051 216.973C140.569 216.973 140.13 217.122 139.732 217.422C139.335 217.715 139.137 218.005 139.137 218.291V223.203ZM136.031 229.033C136.643 228.994 137.031 228.864 137.193 228.643C137.363 228.421 137.447 228.073 137.447 227.598V218.223C137.447 217.728 137.385 217.412 137.262 217.275C137.145 217.132 136.92 217.061 136.588 217.061C136.516 217.061 136.448 217.064 136.383 217.07C136.324 217.077 136.236 217.09 136.119 217.109V216.787L137.047 216.484C137.079 216.478 137.734 216.253 139.01 215.811C139.042 215.811 139.065 215.827 139.078 215.859C139.098 215.885 139.107 215.918 139.107 215.957V217.275C139.537 216.846 139.915 216.527 140.24 216.318C140.826 215.954 141.428 215.771 142.047 215.771C142.945 215.771 143.717 216.156 144.361 216.924C145.012 217.686 145.338 218.73 145.338 220.059C145.338 221.361 144.947 222.542 144.166 223.604C143.391 224.665 142.415 225.195 141.236 225.195C140.872 225.195 140.556 225.15 140.289 225.059C139.872 224.922 139.488 224.671 139.137 224.307V227.5C139.137 228.158 139.244 228.561 139.459 228.711C139.674 228.861 140.143 228.962 140.865 229.014V229.355H136.031V229.033ZM149.137 223.203C149.306 223.646 149.557 223.978 149.889 224.199C150.227 224.414 150.624 224.521 151.08 224.521C151.783 224.521 152.382 224.173 152.877 223.477C153.378 222.773 153.629 221.797 153.629 220.547C153.629 219.349 153.368 218.454 152.848 217.861C152.333 217.269 151.734 216.973 151.051 216.973C150.569 216.973 150.13 217.122 149.732 217.422C149.335 217.715 149.137 218.005 149.137 218.291V223.203ZM146.031 229.033C146.643 228.994 147.031 228.864 147.193 228.643C147.363 228.421 147.447 228.073 147.447 227.598V218.223C147.447 217.728 147.385 217.412 147.262 217.275C147.145 217.132 146.92 217.061 146.588 217.061C146.516 217.061 146.448 217.064 146.383 217.07C146.324 217.077 146.236 217.09 146.119 217.109V216.787L147.047 216.484C147.079 216.478 147.734 216.253 149.01 215.811C149.042 215.811 149.065 215.827 149.078 215.859C149.098 215.885 149.107 215.918 149.107 215.957V217.275C149.537 216.846 149.915 216.527 150.24 216.318C150.826 215.954 151.428 215.771 152.047 215.771C152.945 215.771 153.717 216.156 154.361 216.924C155.012 217.686 155.338 218.73 155.338 220.059C155.338 221.361 154.947 222.542 154.166 223.604C153.391 224.665 152.415 225.195 151.236 225.195C150.872 225.195 150.556 225.15 150.289 225.059C149.872 224.922 149.488 224.671 149.137 224.307V227.5C149.137 228.158 149.244 228.561 149.459 228.711C149.674 228.861 150.143 228.962 150.865 229.014V229.355H146.031V229.033ZM157.584 212.393C157.584 212.113 157.682 211.872 157.877 211.67C158.072 211.468 158.313 211.367 158.6 211.367C158.88 211.367 159.117 211.468 159.312 211.67C159.514 211.865 159.615 212.106 159.615 212.393C159.615 212.673 159.514 212.913 159.312 213.115C159.117 213.311 158.88 213.408 158.6 213.408C158.313 213.408 158.072 213.311 157.877 213.115C157.682 212.913 157.584 212.673 157.584 212.393ZM156.334 224.727C157.031 224.661 157.47 224.544 157.652 224.375C157.835 224.199 157.926 223.73 157.926 222.969V218.311C157.926 217.887 157.896 217.594 157.838 217.432C157.74 217.165 157.535 217.031 157.223 217.031C157.151 217.031 157.079 217.038 157.008 217.051C156.943 217.064 156.747 217.116 156.422 217.207V216.904L156.842 216.768C157.981 216.396 158.775 216.117 159.225 215.928C159.407 215.85 159.524 215.811 159.576 215.811C159.589 215.856 159.596 215.905 159.596 215.957V222.969C159.596 223.711 159.684 224.176 159.859 224.365C160.042 224.554 160.449 224.674 161.08 224.727V225H156.334V224.727ZM161.871 224.727C162.333 224.668 162.656 224.554 162.838 224.385C163.027 224.209 163.121 223.822 163.121 223.223V218.271C163.121 217.855 163.082 217.562 163.004 217.393C162.88 217.145 162.626 217.021 162.242 217.021C162.184 217.021 162.122 217.025 162.057 217.031C161.998 217.038 161.923 217.048 161.832 217.061V216.719C162.099 216.641 162.73 216.439 163.727 216.113L164.645 215.811C164.69 215.811 164.716 215.827 164.723 215.859C164.736 215.892 164.742 215.938 164.742 215.996V217.432C165.341 216.872 165.81 216.488 166.148 216.279C166.656 215.96 167.184 215.801 167.73 215.801C168.173 215.801 168.577 215.928 168.941 216.182C169.645 216.676 169.996 217.559 169.996 218.828V223.389C169.996 223.857 170.09 224.196 170.279 224.404C170.468 224.613 170.784 224.72 171.227 224.727V225H167.057V224.727C167.532 224.661 167.864 224.531 168.053 224.336C168.242 224.134 168.336 223.701 168.336 223.037V218.867C168.336 218.307 168.232 217.845 168.023 217.48C167.815 217.109 167.431 216.924 166.871 216.924C166.487 216.924 166.096 217.054 165.699 217.314C165.478 217.464 165.191 217.712 164.84 218.057V223.525C164.84 223.994 164.944 224.31 165.152 224.473C165.361 224.629 165.689 224.714 166.139 224.727V225H161.871V224.727ZM173.473 226.807C173.473 227.354 173.779 227.731 174.391 227.939C175.009 228.148 175.715 228.252 176.51 228.252C177.59 228.252 178.469 228.063 179.146 227.686C179.824 227.314 180.162 226.855 180.162 226.309C180.162 225.872 179.889 225.583 179.342 225.439C179.003 225.355 178.362 225.306 177.418 225.293C177.177 225.286 176.923 225.277 176.656 225.264C176.389 225.257 176.145 225.247 175.924 225.234C175.781 225.228 175.549 225.202 175.23 225.156C174.911 225.111 174.674 225.072 174.518 225.039C174.439 225.039 174.247 225.244 173.941 225.654C173.629 226.071 173.473 226.455 173.473 226.807ZM174.742 221.719C174.15 221.523 173.688 221.175 173.355 220.674C173.03 220.173 172.867 219.609 172.867 218.984C172.867 218.223 173.17 217.5 173.775 216.816C174.381 216.133 175.237 215.791 176.344 215.791C176.819 215.791 177.343 215.905 177.916 216.133C178.489 216.354 179.039 216.465 179.566 216.465C179.703 216.465 179.908 216.462 180.182 216.455C180.462 216.442 180.663 216.436 180.787 216.436H180.904V217.227H179.215C179.332 217.5 179.423 217.738 179.488 217.939C179.599 218.317 179.654 218.675 179.654 219.014C179.654 219.756 179.345 220.439 178.727 221.064C178.115 221.683 177.288 221.992 176.246 221.992C176.083 221.992 175.79 221.963 175.367 221.904C175.178 221.904 174.928 222.064 174.615 222.383C174.309 222.702 174.156 222.962 174.156 223.164C174.156 223.372 174.384 223.525 174.84 223.623C175.139 223.688 175.471 223.721 175.836 223.721C177.509 223.721 178.645 223.815 179.244 224.004C180.227 224.31 180.719 224.967 180.719 225.977C180.719 227.005 180.143 227.826 178.99 228.438C177.844 229.049 176.686 229.355 175.514 229.355C174.446 229.355 173.6 229.137 172.975 228.701C172.35 228.271 172.037 227.819 172.037 227.344C172.037 227.109 172.118 226.878 172.281 226.65C172.451 226.429 172.779 226.097 173.268 225.654L173.912 225.078L174.029 224.961C173.73 224.844 173.505 224.73 173.355 224.619C173.095 224.417 172.965 224.186 172.965 223.926C172.965 223.685 173.076 223.421 173.297 223.135C173.525 222.842 174.007 222.37 174.742 221.719ZM176.598 221.523C176.956 221.523 177.255 221.426 177.496 221.23C177.887 220.918 178.082 220.374 178.082 219.6C178.082 218.981 177.923 218.285 177.604 217.51C177.291 216.735 176.767 216.348 176.031 216.348C175.393 216.348 174.954 216.65 174.713 217.256C174.589 217.575 174.527 217.969 174.527 218.438C174.527 219.232 174.719 219.945 175.104 220.576C175.488 221.208 175.986 221.523 176.598 221.523ZM191.48 215.791C192.294 215.791 192.994 216.003 193.58 216.426C194.173 216.842 194.469 217.301 194.469 217.803C194.469 218.018 194.394 218.219 194.244 218.408C194.094 218.59 193.863 218.682 193.551 218.682C193.323 218.682 193.121 218.604 192.945 218.447C192.776 218.291 192.652 218.063 192.574 217.764L192.457 217.295C192.372 216.95 192.226 216.706 192.018 216.562C191.803 216.426 191.52 216.357 191.168 216.357C190.426 216.357 189.798 216.683 189.283 217.334C188.775 217.979 188.521 218.838 188.521 219.912C188.521 220.895 188.801 221.777 189.361 222.559C189.928 223.34 190.689 223.73 191.646 223.73C192.324 223.73 192.926 223.509 193.453 223.066C193.753 222.812 194.091 222.409 194.469 221.855L194.742 222.021C194.371 222.803 193.98 223.421 193.57 223.877C192.783 224.749 191.871 225.186 190.836 225.186C189.82 225.186 188.922 224.785 188.141 223.984C187.359 223.184 186.969 222.096 186.969 220.723C186.969 219.375 187.395 218.216 188.248 217.246C189.101 216.276 190.178 215.791 191.48 215.791ZM201.129 219.59C200.38 219.837 199.762 220.111 199.273 220.41C198.336 220.99 197.867 221.647 197.867 222.383C197.867 222.975 198.062 223.411 198.453 223.691C198.707 223.874 198.99 223.965 199.303 223.965C199.732 223.965 200.143 223.844 200.533 223.604C200.93 223.363 201.129 223.057 201.129 222.686V219.59ZM196.129 223.057C196.129 222.113 196.601 221.325 197.545 220.693C198.144 220.303 199.339 219.772 201.129 219.102V218.271C201.129 217.607 201.064 217.145 200.934 216.885C200.712 216.449 200.253 216.23 199.557 216.23C199.225 216.23 198.909 216.315 198.609 216.484C198.31 216.66 198.16 216.901 198.16 217.207C198.16 217.285 198.176 217.419 198.209 217.607C198.242 217.79 198.258 217.907 198.258 217.959C198.258 218.324 198.137 218.577 197.896 218.721C197.76 218.805 197.597 218.848 197.408 218.848C197.115 218.848 196.891 218.753 196.734 218.564C196.578 218.369 196.5 218.154 196.5 217.92C196.5 217.464 196.78 216.989 197.34 216.494C197.906 215.993 198.733 215.742 199.82 215.742C201.083 215.742 201.939 216.152 202.389 216.973C202.63 217.422 202.75 218.076 202.75 218.936V222.852C202.75 223.229 202.776 223.49 202.828 223.633C202.913 223.887 203.089 224.014 203.355 224.014C203.505 224.014 203.629 223.991 203.727 223.945C203.824 223.9 203.993 223.789 204.234 223.613V224.121C204.026 224.375 203.801 224.583 203.561 224.746C203.196 224.993 202.825 225.117 202.447 225.117C202.005 225.117 201.682 224.974 201.48 224.688C201.285 224.401 201.178 224.059 201.158 223.662C200.663 224.092 200.24 224.411 199.889 224.619C199.296 224.971 198.733 225.146 198.199 225.146C197.639 225.146 197.154 224.951 196.744 224.561C196.334 224.163 196.129 223.662 196.129 223.057ZM204.371 224.678C204.97 224.626 205.367 224.521 205.562 224.365C205.758 224.202 205.855 223.861 205.855 223.34V218.936C205.855 218.291 205.794 217.832 205.67 217.559C205.553 217.279 205.335 217.139 205.016 217.139C204.951 217.139 204.863 217.148 204.752 217.168C204.648 217.181 204.537 217.201 204.42 217.227V216.904C204.791 216.774 205.172 216.641 205.562 216.504C205.953 216.367 206.223 216.27 206.373 216.211C206.699 216.087 207.034 215.947 207.379 215.791C207.424 215.791 207.451 215.807 207.457 215.84C207.47 215.872 207.477 215.941 207.477 216.045V217.646C207.893 217.067 208.294 216.615 208.678 216.289C209.068 215.964 209.472 215.801 209.889 215.801C210.221 215.801 210.491 215.902 210.699 216.104C210.908 216.299 211.012 216.546 211.012 216.846C211.012 217.113 210.93 217.337 210.768 217.52C210.611 217.702 210.413 217.793 210.172 217.793C209.924 217.793 209.674 217.679 209.42 217.451C209.173 217.223 208.977 217.109 208.834 217.109C208.606 217.109 208.326 217.295 207.994 217.666C207.662 218.031 207.496 218.408 207.496 218.799V223.203C207.496 223.763 207.626 224.154 207.887 224.375C208.147 224.59 208.58 224.691 209.186 224.678V225H204.371V224.678ZM216.031 215.996V216.699H214.039L214.02 222.324C214.02 222.819 214.062 223.193 214.146 223.447C214.303 223.896 214.609 224.121 215.064 224.121C215.299 224.121 215.501 224.066 215.67 223.955C215.846 223.844 216.044 223.669 216.266 223.428L216.52 223.643L216.305 223.936C215.966 224.391 215.608 224.714 215.23 224.902C214.853 225.091 214.488 225.186 214.137 225.186C213.368 225.186 212.848 224.844 212.574 224.16C212.424 223.789 212.35 223.275 212.35 222.617V216.699H211.285C211.253 216.68 211.227 216.66 211.207 216.641C211.194 216.621 211.188 216.595 211.188 216.562C211.188 216.497 211.201 216.449 211.227 216.416C211.259 216.377 211.354 216.292 211.51 216.162C211.959 215.791 212.281 215.492 212.477 215.264C212.678 215.029 213.147 214.417 213.883 213.428C213.967 213.428 214.016 213.434 214.029 213.447C214.049 213.46 214.059 213.509 214.059 213.594V215.996H216.031ZM83.3262 242.59C82.5775 242.837 81.959 243.111 81.4707 243.41C80.5332 243.99 80.0645 244.647 80.0645 245.383C80.0645 245.975 80.2598 246.411 80.6504 246.691C80.9043 246.874 81.1875 246.965 81.5 246.965C81.9297 246.965 82.3398 246.844 82.7305 246.604C83.1276 246.363 83.3262 246.057 83.3262 245.686V242.59ZM78.3262 246.057C78.3262 245.113 78.7982 244.325 79.7422 243.693C80.3411 243.303 81.5358 242.772 83.3262 242.102V241.271C83.3262 240.607 83.2611 240.145 83.1309 239.885C82.9095 239.449 82.4505 239.23 81.7539 239.23C81.4219 239.23 81.1061 239.315 80.8066 239.484C80.5072 239.66 80.3574 239.901 80.3574 240.207C80.3574 240.285 80.3737 240.419 80.4062 240.607C80.4388 240.79 80.4551 240.907 80.4551 240.959C80.4551 241.324 80.3346 241.577 80.0938 241.721C79.957 241.805 79.7943 241.848 79.6055 241.848C79.3125 241.848 79.0879 241.753 78.9316 241.564C78.7754 241.369 78.6973 241.154 78.6973 240.92C78.6973 240.464 78.9772 239.989 79.5371 239.494C80.1035 238.993 80.9303 238.742 82.0176 238.742C83.2806 238.742 84.1367 239.152 84.5859 239.973C84.8268 240.422 84.9473 241.076 84.9473 241.936V245.852C84.9473 246.229 84.9733 246.49 85.0254 246.633C85.11 246.887 85.2858 247.014 85.5527 247.014C85.7025 247.014 85.8262 246.991 85.9238 246.945C86.0215 246.9 86.1908 246.789 86.4316 246.613V247.121C86.2233 247.375 85.9987 247.583 85.7578 247.746C85.3932 247.993 85.0221 248.117 84.6445 248.117C84.2018 248.117 83.8796 247.974 83.6777 247.688C83.4824 247.401 83.375 247.059 83.3555 246.662C82.8607 247.092 82.4375 247.411 82.0859 247.619C81.4935 247.971 80.9303 248.146 80.3965 248.146C79.8366 248.146 79.3516 247.951 78.9414 247.561C78.5312 247.163 78.3262 246.662 78.3262 246.057ZM86.8418 247.727C87.304 247.668 87.6263 247.554 87.8086 247.385C87.9974 247.209 88.0918 246.822 88.0918 246.223V241.271C88.0918 240.855 88.0527 240.562 87.9746 240.393C87.8509 240.145 87.597 240.021 87.2129 240.021C87.1543 240.021 87.0924 240.025 87.0273 240.031C86.9688 240.038 86.8939 240.048 86.8027 240.061V239.719C87.0697 239.641 87.7012 239.439 88.6973 239.113L89.6152 238.811C89.6608 238.811 89.6868 238.827 89.6934 238.859C89.7064 238.892 89.7129 238.938 89.7129 238.996V240.432C90.3118 239.872 90.7806 239.488 91.1191 239.279C91.627 238.96 92.1543 238.801 92.7012 238.801C93.1439 238.801 93.5475 238.928 93.9121 239.182C94.6152 239.676 94.9668 240.559 94.9668 241.828V246.389C94.9668 246.857 95.0612 247.196 95.25 247.404C95.4388 247.613 95.7546 247.72 96.1973 247.727V248H92.0273V247.727C92.5026 247.661 92.8346 247.531 93.0234 247.336C93.2122 247.134 93.3066 246.701 93.3066 246.037V241.867C93.3066 241.307 93.2025 240.845 92.9941 240.48C92.7858 240.109 92.4017 239.924 91.8418 239.924C91.4577 239.924 91.0671 240.054 90.6699 240.314C90.4486 240.464 90.1621 240.712 89.8105 241.057V246.525C89.8105 246.994 89.9147 247.31 90.123 247.473C90.3314 247.629 90.6602 247.714 91.1094 247.727V248H86.8418V247.727ZM101.217 238.771C101.692 238.771 102.128 238.876 102.525 239.084C102.786 239.221 103.036 239.41 103.277 239.65V236.545C103.277 236.148 103.232 235.874 103.141 235.725C103.056 235.575 102.848 235.5 102.516 235.5C102.438 235.5 102.369 235.503 102.311 235.51C102.252 235.516 102.122 235.529 101.92 235.549V235.227L102.721 235.021C103.014 234.943 103.307 234.862 103.6 234.777C103.893 234.693 104.15 234.611 104.371 234.533C104.475 234.501 104.648 234.439 104.889 234.348L104.947 234.367L104.928 235.393C104.921 235.764 104.915 236.148 104.908 236.545C104.902 236.936 104.898 237.323 104.898 237.707L104.879 245.686C104.879 246.109 104.931 246.405 105.035 246.574C105.139 246.743 105.416 246.828 105.865 246.828C105.937 246.828 106.008 246.828 106.08 246.828C106.152 246.822 106.223 246.812 106.295 246.799V247.121C106.256 247.134 105.784 247.297 104.879 247.609L103.346 248.186L103.277 248.098V246.896C102.913 247.294 102.597 247.577 102.33 247.746C101.855 248.039 101.305 248.186 100.68 248.186C99.5729 248.186 98.6745 247.759 97.9844 246.906C97.3008 246.047 96.959 245.054 96.959 243.928C96.959 242.515 97.3691 241.304 98.1895 240.295C99.0163 239.279 100.025 238.771 101.217 238.771ZM101.578 247.131C102.086 247.131 102.496 246.981 102.809 246.682C103.121 246.382 103.277 246.099 103.277 245.832V241.643C103.277 240.796 103.049 240.201 102.594 239.855C102.145 239.504 101.705 239.328 101.275 239.328C100.455 239.328 99.8171 239.693 99.3613 240.422C98.9056 241.145 98.6777 242.036 98.6777 243.098C98.6777 244.146 98.9186 245.08 99.4004 245.9C99.8887 246.721 100.615 247.131 101.578 247.131ZM111.803 247.746C112.311 247.701 112.649 247.616 112.818 247.492C113.079 247.303 113.209 246.926 113.209 246.359V241.311C113.209 240.829 113.144 240.513 113.014 240.363C112.89 240.214 112.682 240.139 112.389 240.139C112.252 240.139 112.148 240.145 112.076 240.158C112.011 240.171 111.933 240.194 111.842 240.227V239.885L112.545 239.65C112.799 239.566 113.215 239.413 113.795 239.191C114.374 238.97 114.68 238.859 114.713 238.859C114.745 238.859 114.765 238.876 114.771 238.908C114.778 238.941 114.781 239.003 114.781 239.094V240.412C115.426 239.826 115.982 239.423 116.451 239.201C116.92 238.973 117.402 238.859 117.896 238.859C118.567 238.859 119.101 239.087 119.498 239.543C119.706 239.79 119.879 240.126 120.016 240.549C120.497 240.061 120.917 239.699 121.275 239.465C121.894 239.061 122.525 238.859 123.17 238.859C124.218 238.859 124.918 239.286 125.27 240.139C125.471 240.62 125.572 241.382 125.572 242.424V246.477C125.572 246.939 125.673 247.255 125.875 247.424C126.083 247.587 126.454 247.694 126.988 247.746V248H122.584V247.727C123.15 247.674 123.521 247.561 123.697 247.385C123.88 247.209 123.971 246.851 123.971 246.311V242.102C123.971 241.47 123.902 241.005 123.766 240.705C123.525 240.171 123.053 239.904 122.35 239.904C121.926 239.904 121.507 240.044 121.09 240.324C120.849 240.487 120.553 240.747 120.201 241.105V246.105C120.201 246.633 120.292 247.033 120.475 247.307C120.663 247.58 121.057 247.727 121.656 247.746V248H117.174V247.746C117.792 247.668 118.186 247.518 118.355 247.297C118.525 247.076 118.609 246.532 118.609 245.666V242.932C118.609 241.929 118.544 241.239 118.414 240.861C118.199 240.223 117.743 239.904 117.047 239.904C116.65 239.904 116.259 240.015 115.875 240.236C115.491 240.451 115.152 240.734 114.859 241.086V246.428C114.859 246.923 114.944 247.264 115.113 247.453C115.289 247.642 115.667 247.74 116.246 247.746V248H111.803V247.746ZM132.779 242.59C132.031 242.837 131.412 243.111 130.924 243.41C129.986 243.99 129.518 244.647 129.518 245.383C129.518 245.975 129.713 246.411 130.104 246.691C130.357 246.874 130.641 246.965 130.953 246.965C131.383 246.965 131.793 246.844 132.184 246.604C132.581 246.363 132.779 246.057 132.779 245.686V242.59ZM127.779 246.057C127.779 245.113 128.251 244.325 129.195 243.693C129.794 243.303 130.989 242.772 132.779 242.102V241.271C132.779 240.607 132.714 240.145 132.584 239.885C132.363 239.449 131.904 239.23 131.207 239.23C130.875 239.23 130.559 239.315 130.26 239.484C129.96 239.66 129.811 239.901 129.811 240.207C129.811 240.285 129.827 240.419 129.859 240.607C129.892 240.79 129.908 240.907 129.908 240.959C129.908 241.324 129.788 241.577 129.547 241.721C129.41 241.805 129.247 241.848 129.059 241.848C128.766 241.848 128.541 241.753 128.385 241.564C128.229 241.369 128.15 241.154 128.15 240.92C128.15 240.464 128.43 239.989 128.99 239.494C129.557 238.993 130.383 238.742 131.471 238.742C132.734 238.742 133.59 239.152 134.039 239.973C134.28 240.422 134.4 241.076 134.4 241.936V245.852C134.4 246.229 134.426 246.49 134.479 246.633C134.563 246.887 134.739 247.014 135.006 247.014C135.156 247.014 135.279 246.991 135.377 246.945C135.475 246.9 135.644 246.789 135.885 246.613V247.121C135.676 247.375 135.452 247.583 135.211 247.746C134.846 247.993 134.475 248.117 134.098 248.117C133.655 248.117 133.333 247.974 133.131 247.688C132.936 247.401 132.828 247.059 132.809 246.662C132.314 247.092 131.891 247.411 131.539 247.619C130.947 247.971 130.383 248.146 129.85 248.146C129.29 248.146 128.805 247.951 128.395 247.561C127.984 247.163 127.779 246.662 127.779 246.057ZM137.574 235.393C137.574 235.113 137.672 234.872 137.867 234.67C138.062 234.468 138.303 234.367 138.59 234.367C138.87 234.367 139.107 234.468 139.303 234.67C139.505 234.865 139.605 235.106 139.605 235.393C139.605 235.673 139.505 235.913 139.303 236.115C139.107 236.311 138.87 236.408 138.59 236.408C138.303 236.408 138.062 236.311 137.867 236.115C137.672 235.913 137.574 235.673 137.574 235.393ZM136.324 247.727C137.021 247.661 137.46 247.544 137.643 247.375C137.825 247.199 137.916 246.73 137.916 245.969V241.311C137.916 240.887 137.887 240.594 137.828 240.432C137.73 240.165 137.525 240.031 137.213 240.031C137.141 240.031 137.07 240.038 136.998 240.051C136.933 240.064 136.738 240.116 136.412 240.207V239.904L136.832 239.768C137.971 239.396 138.766 239.117 139.215 238.928C139.397 238.85 139.514 238.811 139.566 238.811C139.579 238.856 139.586 238.905 139.586 238.957V245.969C139.586 246.711 139.674 247.176 139.85 247.365C140.032 247.554 140.439 247.674 141.07 247.727V248H136.324V247.727ZM141.861 247.727C142.324 247.668 142.646 247.554 142.828 247.385C143.017 247.209 143.111 246.822 143.111 246.223V241.271C143.111 240.855 143.072 240.562 142.994 240.393C142.87 240.145 142.617 240.021 142.232 240.021C142.174 240.021 142.112 240.025 142.047 240.031C141.988 240.038 141.913 240.048 141.822 240.061V239.719C142.089 239.641 142.721 239.439 143.717 239.113L144.635 238.811C144.68 238.811 144.706 238.827 144.713 238.859C144.726 238.892 144.732 238.938 144.732 238.996V240.432C145.331 239.872 145.8 239.488 146.139 239.279C146.646 238.96 147.174 238.801 147.721 238.801C148.163 238.801 148.567 238.928 148.932 239.182C149.635 239.676 149.986 240.559 149.986 241.828V246.389C149.986 246.857 150.081 247.196 150.27 247.404C150.458 247.613 150.774 247.72 151.217 247.727V248H147.047V247.727C147.522 247.661 147.854 247.531 148.043 247.336C148.232 247.134 148.326 246.701 148.326 246.037V241.867C148.326 241.307 148.222 240.845 148.014 240.48C147.805 240.109 147.421 239.924 146.861 239.924C146.477 239.924 146.087 240.054 145.689 240.314C145.468 240.464 145.182 240.712 144.83 241.057V246.525C144.83 246.994 144.934 247.31 145.143 247.473C145.351 247.629 145.68 247.714 146.129 247.727V248H141.861V247.727ZM156.588 238.996V239.699H154.596L154.576 245.324C154.576 245.819 154.618 246.193 154.703 246.447C154.859 246.896 155.165 247.121 155.621 247.121C155.855 247.121 156.057 247.066 156.227 246.955C156.402 246.844 156.601 246.669 156.822 246.428L157.076 246.643L156.861 246.936C156.523 247.391 156.165 247.714 155.787 247.902C155.41 248.091 155.045 248.186 154.693 248.186C153.925 248.186 153.404 247.844 153.131 247.16C152.981 246.789 152.906 246.275 152.906 245.617V239.699H151.842C151.809 239.68 151.783 239.66 151.764 239.641C151.751 239.621 151.744 239.595 151.744 239.562C151.744 239.497 151.757 239.449 151.783 239.416C151.816 239.377 151.91 239.292 152.066 239.162C152.516 238.791 152.838 238.492 153.033 238.264C153.235 238.029 153.704 237.417 154.439 236.428C154.524 236.428 154.573 236.434 154.586 236.447C154.605 236.46 154.615 236.509 154.615 236.594V238.996H156.588ZM162.799 242.59C162.05 242.837 161.432 243.111 160.943 243.41C160.006 243.99 159.537 244.647 159.537 245.383C159.537 245.975 159.732 246.411 160.123 246.691C160.377 246.874 160.66 246.965 160.973 246.965C161.402 246.965 161.812 246.844 162.203 246.604C162.6 246.363 162.799 246.057 162.799 245.686V242.59ZM157.799 246.057C157.799 245.113 158.271 244.325 159.215 243.693C159.814 243.303 161.008 242.772 162.799 242.102V241.271C162.799 240.607 162.734 240.145 162.604 239.885C162.382 239.449 161.923 239.23 161.227 239.23C160.895 239.23 160.579 239.315 160.279 239.484C159.98 239.66 159.83 239.901 159.83 240.207C159.83 240.285 159.846 240.419 159.879 240.607C159.911 240.79 159.928 240.907 159.928 240.959C159.928 241.324 159.807 241.577 159.566 241.721C159.43 241.805 159.267 241.848 159.078 241.848C158.785 241.848 158.561 241.753 158.404 241.564C158.248 241.369 158.17 241.154 158.17 240.92C158.17 240.464 158.45 239.989 159.01 239.494C159.576 238.993 160.403 238.742 161.49 238.742C162.753 238.742 163.609 239.152 164.059 239.973C164.299 240.422 164.42 241.076 164.42 241.936V245.852C164.42 246.229 164.446 246.49 164.498 246.633C164.583 246.887 164.758 247.014 165.025 247.014C165.175 247.014 165.299 246.991 165.396 246.945C165.494 246.9 165.663 246.789 165.904 246.613V247.121C165.696 247.375 165.471 247.583 165.23 247.746C164.866 247.993 164.495 248.117 164.117 248.117C163.674 248.117 163.352 247.974 163.15 247.688C162.955 247.401 162.848 247.059 162.828 246.662C162.333 247.092 161.91 247.411 161.559 247.619C160.966 247.971 160.403 248.146 159.869 248.146C159.309 248.146 158.824 247.951 158.414 247.561C158.004 247.163 157.799 246.662 157.799 246.057ZM167.594 235.393C167.594 235.113 167.691 234.872 167.887 234.67C168.082 234.468 168.323 234.367 168.609 234.367C168.889 234.367 169.127 234.468 169.322 234.67C169.524 234.865 169.625 235.106 169.625 235.393C169.625 235.673 169.524 235.913 169.322 236.115C169.127 236.311 168.889 236.408 168.609 236.408C168.323 236.408 168.082 236.311 167.887 236.115C167.691 235.913 167.594 235.673 167.594 235.393ZM166.344 247.727C167.04 247.661 167.48 247.544 167.662 247.375C167.844 247.199 167.936 246.73 167.936 245.969V241.311C167.936 240.887 167.906 240.594 167.848 240.432C167.75 240.165 167.545 240.031 167.232 240.031C167.161 240.031 167.089 240.038 167.018 240.051C166.952 240.064 166.757 240.116 166.432 240.207V239.904L166.852 239.768C167.991 239.396 168.785 239.117 169.234 238.928C169.417 238.85 169.534 238.811 169.586 238.811C169.599 238.856 169.605 238.905 169.605 238.957V245.969C169.605 246.711 169.693 247.176 169.869 247.365C170.051 247.554 170.458 247.674 171.09 247.727V248H166.344V247.727ZM171.881 247.727C172.343 247.668 172.665 247.554 172.848 247.385C173.036 247.209 173.131 246.822 173.131 246.223V241.271C173.131 240.855 173.092 240.562 173.014 240.393C172.89 240.145 172.636 240.021 172.252 240.021C172.193 240.021 172.132 240.025 172.066 240.031C172.008 240.038 171.933 240.048 171.842 240.061V239.719C172.109 239.641 172.74 239.439 173.736 239.113L174.654 238.811C174.7 238.811 174.726 238.827 174.732 238.859C174.745 238.892 174.752 238.938 174.752 238.996V240.432C175.351 239.872 175.82 239.488 176.158 239.279C176.666 238.96 177.193 238.801 177.74 238.801C178.183 238.801 178.587 238.928 178.951 239.182C179.654 239.676 180.006 240.559 180.006 241.828V246.389C180.006 246.857 180.1 247.196 180.289 247.404C180.478 247.613 180.794 247.72 181.236 247.727V248H177.066V247.727C177.542 247.661 177.874 247.531 178.062 247.336C178.251 247.134 178.346 246.701 178.346 246.037V241.867C178.346 241.307 178.242 240.845 178.033 240.48C177.825 240.109 177.441 239.924 176.881 239.924C176.497 239.924 176.106 240.054 175.709 240.314C175.488 240.464 175.201 240.712 174.85 241.057V246.525C174.85 246.994 174.954 247.31 175.162 247.473C175.37 247.629 175.699 247.714 176.148 247.727V248H171.881V247.727ZM192.252 242.59C191.503 242.837 190.885 243.111 190.396 243.41C189.459 243.99 188.99 244.647 188.99 245.383C188.99 245.975 189.186 246.411 189.576 246.691C189.83 246.874 190.113 246.965 190.426 246.965C190.855 246.965 191.266 246.844 191.656 246.604C192.053 246.363 192.252 246.057 192.252 245.686V242.59ZM187.252 246.057C187.252 245.113 187.724 244.325 188.668 243.693C189.267 243.303 190.462 242.772 192.252 242.102V241.271C192.252 240.607 192.187 240.145 192.057 239.885C191.835 239.449 191.376 239.23 190.68 239.23C190.348 239.23 190.032 239.315 189.732 239.484C189.433 239.66 189.283 239.901 189.283 240.207C189.283 240.285 189.299 240.419 189.332 240.607C189.365 240.79 189.381 240.907 189.381 240.959C189.381 241.324 189.26 241.577 189.02 241.721C188.883 241.805 188.72 241.848 188.531 241.848C188.238 241.848 188.014 241.753 187.857 241.564C187.701 241.369 187.623 241.154 187.623 240.92C187.623 240.464 187.903 239.989 188.463 239.494C189.029 238.993 189.856 238.742 190.943 238.742C192.206 238.742 193.062 239.152 193.512 239.973C193.753 240.422 193.873 241.076 193.873 241.936V245.852C193.873 246.229 193.899 246.49 193.951 246.633C194.036 246.887 194.212 247.014 194.479 247.014C194.628 247.014 194.752 246.991 194.85 246.945C194.947 246.9 195.117 246.789 195.357 246.613V247.121C195.149 247.375 194.924 247.583 194.684 247.746C194.319 247.993 193.948 248.117 193.57 248.117C193.128 248.117 192.805 247.974 192.604 247.688C192.408 247.401 192.301 247.059 192.281 246.662C191.786 247.092 191.363 247.411 191.012 247.619C190.419 247.971 189.856 248.146 189.322 248.146C188.762 248.146 188.277 247.951 187.867 247.561C187.457 247.163 187.252 246.662 187.252 246.057ZM195.768 247.727C196.23 247.668 196.552 247.554 196.734 247.385C196.923 247.209 197.018 246.822 197.018 246.223V241.271C197.018 240.855 196.979 240.562 196.9 240.393C196.777 240.145 196.523 240.021 196.139 240.021C196.08 240.021 196.018 240.025 195.953 240.031C195.895 240.038 195.82 240.048 195.729 240.061V239.719C195.995 239.641 196.627 239.439 197.623 239.113L198.541 238.811C198.587 238.811 198.613 238.827 198.619 238.859C198.632 238.892 198.639 238.938 198.639 238.996V240.432C199.238 239.872 199.706 239.488 200.045 239.279C200.553 238.96 201.08 238.801 201.627 238.801C202.07 238.801 202.473 238.928 202.838 239.182C203.541 239.676 203.893 240.559 203.893 241.828V246.389C203.893 246.857 203.987 247.196 204.176 247.404C204.365 247.613 204.68 247.72 205.123 247.727V248H200.953V247.727C201.428 247.661 201.76 247.531 201.949 247.336C202.138 247.134 202.232 246.701 202.232 246.037V241.867C202.232 241.307 202.128 240.845 201.92 240.48C201.712 240.109 201.327 239.924 200.768 239.924C200.383 239.924 199.993 240.054 199.596 240.314C199.374 240.464 199.088 240.712 198.736 241.057V246.525C198.736 246.994 198.84 247.31 199.049 247.473C199.257 247.629 199.586 247.714 200.035 247.727V248H195.768V247.727ZM70.7871 266.469C70.7871 265.173 71.1973 264.079 72.0176 263.188C72.8444 262.289 73.9056 261.84 75.2012 261.84C76.4902 261.84 77.5579 262.263 78.4043 263.109C79.2507 263.956 79.6738 265.082 79.6738 266.488C79.6738 267.784 79.2637 268.91 78.4434 269.867C77.623 270.824 76.5618 271.303 75.2598 271.303C74.0098 271.303 72.9518 270.844 72.0859 269.926C71.2201 269.008 70.7871 267.855 70.7871 266.469ZM74.9277 262.426C74.4134 262.426 73.9674 262.595 73.5898 262.934C72.9388 263.526 72.6133 264.548 72.6133 266C72.6133 267.159 72.8737 268.24 73.3945 269.242C73.9219 270.245 74.651 270.746 75.582 270.746C76.3112 270.746 76.8711 270.411 77.2617 269.74C77.6589 269.07 77.8574 268.191 77.8574 267.104C77.8574 265.977 77.6068 264.916 77.1055 263.92C76.6042 262.924 75.8783 262.426 74.9277 262.426ZM80.3672 270.678C80.9661 270.626 81.3633 270.521 81.5586 270.365C81.7539 270.202 81.8516 269.861 81.8516 269.34V264.936C81.8516 264.291 81.7897 263.832 81.666 263.559C81.5488 263.279 81.3307 263.139 81.0117 263.139C80.9466 263.139 80.8587 263.148 80.748 263.168C80.6439 263.181 80.5332 263.201 80.416 263.227V262.904C80.7871 262.774 81.168 262.641 81.5586 262.504C81.9492 262.367 82.2194 262.27 82.3691 262.211C82.6947 262.087 83.0299 261.947 83.375 261.791C83.4206 261.791 83.4466 261.807 83.4531 261.84C83.4661 261.872 83.4727 261.941 83.4727 262.045V263.646C83.8893 263.067 84.2897 262.615 84.6738 262.289C85.0645 261.964 85.4681 261.801 85.8848 261.801C86.2168 261.801 86.487 261.902 86.6953 262.104C86.9036 262.299 87.0078 262.546 87.0078 262.846C87.0078 263.113 86.9264 263.337 86.7637 263.52C86.6074 263.702 86.4089 263.793 86.168 263.793C85.9206 263.793 85.6699 263.679 85.416 263.451C85.1686 263.223 84.9733 263.109 84.8301 263.109C84.6022 263.109 84.3223 263.295 83.9902 263.666C83.6582 264.031 83.4922 264.408 83.4922 264.799V269.203C83.4922 269.763 83.6224 270.154 83.8828 270.375C84.1432 270.59 84.5762 270.691 85.1816 270.678V271H80.3672V270.678ZM88.5508 272.807C88.5508 273.354 88.8568 273.731 89.4688 273.939C90.0872 274.148 90.7936 274.252 91.5879 274.252C92.6686 274.252 93.5475 274.063 94.2246 273.686C94.9017 273.314 95.2402 272.855 95.2402 272.309C95.2402 271.872 94.9668 271.583 94.4199 271.439C94.0814 271.355 93.4401 271.306 92.4961 271.293C92.2552 271.286 92.0013 271.277 91.7344 271.264C91.4674 271.257 91.2233 271.247 91.002 271.234C90.8587 271.228 90.6276 271.202 90.3086 271.156C89.9896 271.111 89.752 271.072 89.5957 271.039C89.5176 271.039 89.3255 271.244 89.0195 271.654C88.707 272.071 88.5508 272.455 88.5508 272.807ZM89.8203 267.719C89.2279 267.523 88.7656 267.175 88.4336 266.674C88.1081 266.173 87.9453 265.609 87.9453 264.984C87.9453 264.223 88.248 263.5 88.8535 262.816C89.459 262.133 90.3151 261.791 91.4219 261.791C91.8971 261.791 92.4212 261.905 92.9941 262.133C93.5671 262.354 94.1172 262.465 94.6445 262.465C94.7812 262.465 94.9863 262.462 95.2598 262.455C95.5397 262.442 95.7415 262.436 95.8652 262.436H95.9824V263.227H94.293C94.4102 263.5 94.5013 263.738 94.5664 263.939C94.6771 264.317 94.7324 264.675 94.7324 265.014C94.7324 265.756 94.4232 266.439 93.8047 267.064C93.1927 267.683 92.3659 267.992 91.3242 267.992C91.1615 267.992 90.8685 267.963 90.4453 267.904C90.2565 267.904 90.0059 268.064 89.6934 268.383C89.3874 268.702 89.2344 268.962 89.2344 269.164C89.2344 269.372 89.4622 269.525 89.918 269.623C90.2174 269.688 90.5495 269.721 90.9141 269.721C92.5872 269.721 93.7233 269.815 94.3223 270.004C95.3053 270.31 95.7969 270.967 95.7969 271.977C95.7969 273.005 95.2207 273.826 94.0684 274.438C92.9225 275.049 91.7637 275.355 90.5918 275.355C89.5241 275.355 88.6777 275.137 88.0527 274.701C87.4277 274.271 87.1152 273.819 87.1152 273.344C87.1152 273.109 87.1966 272.878 87.3594 272.65C87.5286 272.429 87.8574 272.097 88.3457 271.654L88.9902 271.078L89.1074 270.961C88.8079 270.844 88.5833 270.73 88.4336 270.619C88.1732 270.417 88.043 270.186 88.043 269.926C88.043 269.685 88.1536 269.421 88.375 269.135C88.6029 268.842 89.0846 268.37 89.8203 267.719ZM91.6758 267.523C92.0339 267.523 92.3333 267.426 92.5742 267.23C92.9648 266.918 93.1602 266.374 93.1602 265.6C93.1602 264.981 93.0007 264.285 92.6816 263.51C92.3691 262.735 91.8451 262.348 91.1094 262.348C90.4714 262.348 90.0319 262.65 89.791 263.256C89.6673 263.575 89.6055 263.969 89.6055 264.438C89.6055 265.232 89.7975 265.945 90.1816 266.576C90.5658 267.208 91.0638 267.523 91.6758 267.523ZM102.32 265.59C101.572 265.837 100.953 266.111 100.465 266.41C99.5273 266.99 99.0586 267.647 99.0586 268.383C99.0586 268.975 99.2539 269.411 99.6445 269.691C99.8984 269.874 100.182 269.965 100.494 269.965C100.924 269.965 101.334 269.844 101.725 269.604C102.122 269.363 102.32 269.057 102.32 268.686V265.59ZM97.3203 269.057C97.3203 268.113 97.7923 267.325 98.7363 266.693C99.3353 266.303 100.53 265.772 102.32 265.102V264.271C102.32 263.607 102.255 263.145 102.125 262.885C101.904 262.449 101.445 262.23 100.748 262.23C100.416 262.23 100.1 262.315 99.8008 262.484C99.5013 262.66 99.3516 262.901 99.3516 263.207C99.3516 263.285 99.3678 263.419 99.4004 263.607C99.4329 263.79 99.4492 263.907 99.4492 263.959C99.4492 264.324 99.3288 264.577 99.0879 264.721C98.9512 264.805 98.7884 264.848 98.5996 264.848C98.3066 264.848 98.082 264.753 97.9258 264.564C97.7695 264.369 97.6914 264.154 97.6914 263.92C97.6914 263.464 97.9714 262.989 98.5312 262.494C99.0977 261.993 99.9245 261.742 101.012 261.742C102.275 261.742 103.131 262.152 103.58 262.973C103.821 263.422 103.941 264.076 103.941 264.936V268.852C103.941 269.229 103.967 269.49 104.02 269.633C104.104 269.887 104.28 270.014 104.547 270.014C104.697 270.014 104.82 269.991 104.918 269.945C105.016 269.9 105.185 269.789 105.426 269.613V270.121C105.217 270.375 104.993 270.583 104.752 270.746C104.387 270.993 104.016 271.117 103.639 271.117C103.196 271.117 102.874 270.974 102.672 270.688C102.477 270.401 102.369 270.059 102.35 269.662C101.855 270.092 101.432 270.411 101.08 270.619C100.488 270.971 99.9245 271.146 99.3906 271.146C98.8307 271.146 98.3457 270.951 97.9355 270.561C97.5254 270.163 97.3203 269.662 97.3203 269.057ZM105.836 270.727C106.298 270.668 106.62 270.554 106.803 270.385C106.992 270.209 107.086 269.822 107.086 269.223V264.271C107.086 263.855 107.047 263.562 106.969 263.393C106.845 263.145 106.591 263.021 106.207 263.021C106.148 263.021 106.087 263.025 106.021 263.031C105.963 263.038 105.888 263.048 105.797 263.061V262.719C106.064 262.641 106.695 262.439 107.691 262.113L108.609 261.811C108.655 261.811 108.681 261.827 108.688 261.859C108.701 261.892 108.707 261.938 108.707 261.996V263.432C109.306 262.872 109.775 262.488 110.113 262.279C110.621 261.96 111.148 261.801 111.695 261.801C112.138 261.801 112.542 261.928 112.906 262.182C113.609 262.676 113.961 263.559 113.961 264.828V269.389C113.961 269.857 114.055 270.196 114.244 270.404C114.433 270.613 114.749 270.72 115.191 270.727V271H111.021V270.727C111.497 270.661 111.829 270.531 112.018 270.336C112.206 270.134 112.301 269.701 112.301 269.037V264.867C112.301 264.307 112.197 263.845 111.988 263.48C111.78 263.109 111.396 262.924 110.836 262.924C110.452 262.924 110.061 263.054 109.664 263.314C109.443 263.464 109.156 263.712 108.805 264.057V269.525C108.805 269.994 108.909 270.31 109.117 270.473C109.326 270.629 109.654 270.714 110.104 270.727V271H105.836V270.727ZM117.115 258.393C117.115 258.113 117.213 257.872 117.408 257.67C117.604 257.468 117.844 257.367 118.131 257.367C118.411 257.367 118.648 257.468 118.844 257.67C119.046 257.865 119.146 258.106 119.146 258.393C119.146 258.673 119.046 258.913 118.844 259.115C118.648 259.311 118.411 259.408 118.131 259.408C117.844 259.408 117.604 259.311 117.408 259.115C117.213 258.913 117.115 258.673 117.115 258.393ZM115.865 270.727C116.562 270.661 117.001 270.544 117.184 270.375C117.366 270.199 117.457 269.73 117.457 268.969V264.311C117.457 263.887 117.428 263.594 117.369 263.432C117.271 263.165 117.066 263.031 116.754 263.031C116.682 263.031 116.611 263.038 116.539 263.051C116.474 263.064 116.279 263.116 115.953 263.207V262.904L116.373 262.768C117.512 262.396 118.307 262.117 118.756 261.928C118.938 261.85 119.055 261.811 119.107 261.811C119.12 261.856 119.127 261.905 119.127 261.957V268.969C119.127 269.711 119.215 270.176 119.391 270.365C119.573 270.554 119.98 270.674 120.611 270.727V271H115.865V270.727ZM129.137 262.025V262.26L123.717 270.385H126.48C127.438 270.385 128.043 270.264 128.297 270.023C128.551 269.776 128.801 269.177 129.049 268.227L129.391 268.295L129.117 271H121.549V270.775L126.891 262.621H124.273C123.57 262.621 123.111 262.742 122.896 262.982C122.682 263.223 122.532 263.692 122.447 264.389H122.105L122.145 262.025H129.137ZM134.508 261.84C135.426 261.84 136.23 262.159 136.92 262.797C137.61 263.428 137.955 264.327 137.955 265.492H131.754C131.819 267.003 132.161 268.103 132.779 268.793C133.398 269.483 134.13 269.828 134.977 269.828C135.66 269.828 136.236 269.649 136.705 269.291C137.174 268.933 137.607 268.425 138.004 267.768L138.346 267.885C138.079 268.712 137.577 269.477 136.842 270.18C136.113 270.883 135.217 271.234 134.156 271.234C132.932 271.234 131.985 270.772 131.314 269.848C130.65 268.923 130.318 267.859 130.318 266.654C130.318 265.346 130.706 264.216 131.48 263.266C132.255 262.315 133.264 261.84 134.508 261.84ZM133.941 262.553C133.199 262.553 132.633 262.882 132.242 263.539C132.034 263.891 131.884 264.333 131.793 264.867H135.914C135.842 264.216 135.719 263.731 135.543 263.412C135.224 262.839 134.69 262.553 133.941 262.553ZM143.551 261.771C144.026 261.771 144.462 261.876 144.859 262.084C145.12 262.221 145.37 262.41 145.611 262.65V259.545C145.611 259.148 145.566 258.874 145.475 258.725C145.39 258.575 145.182 258.5 144.85 258.5C144.771 258.5 144.703 258.503 144.645 258.51C144.586 258.516 144.456 258.529 144.254 258.549V258.227L145.055 258.021C145.348 257.943 145.641 257.862 145.934 257.777C146.227 257.693 146.484 257.611 146.705 257.533C146.809 257.501 146.982 257.439 147.223 257.348L147.281 257.367L147.262 258.393C147.255 258.764 147.249 259.148 147.242 259.545C147.236 259.936 147.232 260.323 147.232 260.707L147.213 268.686C147.213 269.109 147.265 269.405 147.369 269.574C147.473 269.743 147.75 269.828 148.199 269.828C148.271 269.828 148.342 269.828 148.414 269.828C148.486 269.822 148.557 269.812 148.629 269.799V270.121C148.59 270.134 148.118 270.297 147.213 270.609L145.68 271.186L145.611 271.098V269.896C145.247 270.294 144.931 270.577 144.664 270.746C144.189 271.039 143.639 271.186 143.014 271.186C141.907 271.186 141.008 270.759 140.318 269.906C139.635 269.047 139.293 268.054 139.293 266.928C139.293 265.515 139.703 264.304 140.523 263.295C141.35 262.279 142.359 261.771 143.551 261.771ZM143.912 270.131C144.42 270.131 144.83 269.981 145.143 269.682C145.455 269.382 145.611 269.099 145.611 268.832V264.643C145.611 263.796 145.383 263.201 144.928 262.855C144.479 262.504 144.039 262.328 143.609 262.328C142.789 262.328 142.151 262.693 141.695 263.422C141.24 264.145 141.012 265.036 141.012 266.098C141.012 267.146 141.253 268.08 141.734 268.9C142.223 269.721 142.949 270.131 143.912 270.131ZM153.854 270.727C154.479 270.681 154.889 270.577 155.084 270.414C155.286 270.251 155.387 269.9 155.387 269.359V259.574C155.387 259.112 155.309 258.819 155.152 258.695C154.996 258.572 154.771 258.51 154.479 258.51C154.355 258.51 154.247 258.513 154.156 258.52C154.065 258.526 153.964 258.536 153.854 258.549V258.275L154.732 258.041C155.403 257.865 155.973 257.699 156.441 257.543C156.728 257.445 156.894 257.396 156.939 257.396C156.979 257.396 157.001 257.406 157.008 257.426C157.021 257.439 157.027 257.475 157.027 257.533V265.746L159.732 263.363C159.928 263.188 160.058 263.048 160.123 262.943C160.195 262.839 160.23 262.748 160.23 262.67C160.23 262.52 160.156 262.426 160.006 262.387C159.863 262.348 159.602 262.318 159.225 262.299V262.025H163.297V262.299C162.568 262.344 161.982 262.491 161.539 262.738C161.096 262.979 160.247 263.676 158.99 264.828L158.414 265.355L160.221 267.699C161.145 268.897 161.842 269.695 162.311 270.092C162.779 270.482 163.277 270.701 163.805 270.746V271H159.459V270.727L159.801 270.707C159.911 270.701 160.012 270.678 160.104 270.639C160.195 270.6 160.24 270.535 160.24 270.443C160.24 270.372 160.224 270.307 160.191 270.248C160.159 270.183 160.113 270.111 160.055 270.033L157.027 266.049V269.662C157.027 270.111 157.193 270.411 157.525 270.561C157.721 270.652 158.056 270.701 158.531 270.707V271H153.854V270.727ZM165.455 258.393C165.455 258.113 165.553 257.872 165.748 257.67C165.943 257.468 166.184 257.367 166.471 257.367C166.751 257.367 166.988 257.468 167.184 257.67C167.385 257.865 167.486 258.106 167.486 258.393C167.486 258.673 167.385 258.913 167.184 259.115C166.988 259.311 166.751 259.408 166.471 259.408C166.184 259.408 165.943 259.311 165.748 259.115C165.553 258.913 165.455 258.673 165.455 258.393ZM164.205 270.727C164.902 270.661 165.341 270.544 165.523 270.375C165.706 270.199 165.797 269.73 165.797 268.969V264.311C165.797 263.887 165.768 263.594 165.709 263.432C165.611 263.165 165.406 263.031 165.094 263.031C165.022 263.031 164.951 263.038 164.879 263.051C164.814 263.064 164.618 263.116 164.293 263.207V262.904L164.713 262.768C165.852 262.396 166.646 262.117 167.096 261.928C167.278 261.85 167.395 261.811 167.447 261.811C167.46 261.856 167.467 261.905 167.467 261.957V268.969C167.467 269.711 167.555 270.176 167.73 270.365C167.913 270.554 168.32 270.674 168.951 270.727V271H164.205V270.727ZM174.469 261.996V262.699H172.477L172.457 268.324C172.457 268.819 172.499 269.193 172.584 269.447C172.74 269.896 173.046 270.121 173.502 270.121C173.736 270.121 173.938 270.066 174.107 269.955C174.283 269.844 174.482 269.669 174.703 269.428L174.957 269.643L174.742 269.936C174.404 270.391 174.046 270.714 173.668 270.902C173.29 271.091 172.926 271.186 172.574 271.186C171.806 271.186 171.285 270.844 171.012 270.16C170.862 269.789 170.787 269.275 170.787 268.617V262.699H169.723C169.69 262.68 169.664 262.66 169.645 262.641C169.632 262.621 169.625 262.595 169.625 262.562C169.625 262.497 169.638 262.449 169.664 262.416C169.697 262.377 169.791 262.292 169.947 262.162C170.396 261.791 170.719 261.492 170.914 261.264C171.116 261.029 171.585 260.417 172.32 259.428C172.405 259.428 172.454 259.434 172.467 259.447C172.486 259.46 172.496 259.509 172.496 259.594V261.996H174.469ZM179.918 261.791C180.732 261.791 181.432 262.003 182.018 262.426C182.61 262.842 182.906 263.301 182.906 263.803C182.906 264.018 182.831 264.219 182.682 264.408C182.532 264.59 182.301 264.682 181.988 264.682C181.76 264.682 181.559 264.604 181.383 264.447C181.214 264.291 181.09 264.063 181.012 263.764L180.895 263.295C180.81 262.95 180.663 262.706 180.455 262.562C180.24 262.426 179.957 262.357 179.605 262.357C178.863 262.357 178.235 262.683 177.721 263.334C177.213 263.979 176.959 264.838 176.959 265.912C176.959 266.895 177.239 267.777 177.799 268.559C178.365 269.34 179.127 269.73 180.084 269.73C180.761 269.73 181.363 269.509 181.891 269.066C182.19 268.812 182.529 268.409 182.906 267.855L183.18 268.021C182.809 268.803 182.418 269.421 182.008 269.877C181.22 270.749 180.309 271.186 179.273 271.186C178.258 271.186 177.359 270.785 176.578 269.984C175.797 269.184 175.406 268.096 175.406 266.723C175.406 265.375 175.833 264.216 176.686 263.246C177.538 262.276 178.616 261.791 179.918 261.791ZM184.01 270.727C184.544 270.655 184.892 270.525 185.055 270.336C185.224 270.141 185.309 269.685 185.309 268.969V259.594C185.309 259.229 185.26 258.962 185.162 258.793C185.071 258.617 184.843 258.529 184.479 258.529C184.407 258.529 184.335 258.536 184.264 258.549C184.199 258.555 184.124 258.565 184.039 258.578V258.227C184.326 258.142 184.677 258.041 185.094 257.924C185.517 257.8 185.81 257.712 185.973 257.66L186.91 257.367L186.93 257.436V263.432C187.34 262.963 187.704 262.618 188.023 262.396C188.596 262.006 189.215 261.811 189.879 261.811C190.934 261.811 191.653 262.253 192.037 263.139C192.245 263.607 192.35 264.223 192.35 264.984V268.969C192.35 269.659 192.428 270.108 192.584 270.316C192.747 270.525 193.076 270.661 193.57 270.727V271H189.342V270.727C189.908 270.648 190.273 270.515 190.436 270.326C190.598 270.137 190.68 269.685 190.68 268.969V265.014C190.68 264.382 190.572 263.871 190.357 263.48C190.149 263.09 189.752 262.895 189.166 262.895C188.658 262.895 188.167 263.077 187.691 263.441C187.216 263.806 186.979 264.044 186.979 264.154V268.969C186.979 269.698 187.063 270.154 187.232 270.336C187.402 270.518 187.763 270.648 188.316 270.727V271H184.01V270.727ZM198.414 261.84C199.332 261.84 200.136 262.159 200.826 262.797C201.516 263.428 201.861 264.327 201.861 265.492H195.66C195.725 267.003 196.067 268.103 196.686 268.793C197.304 269.483 198.036 269.828 198.883 269.828C199.566 269.828 200.143 269.649 200.611 269.291C201.08 268.933 201.513 268.425 201.91 267.768L202.252 267.885C201.985 268.712 201.484 269.477 200.748 270.18C200.019 270.883 199.124 271.234 198.062 271.234C196.839 271.234 195.891 270.772 195.221 269.848C194.557 268.923 194.225 267.859 194.225 266.654C194.225 265.346 194.612 264.216 195.387 263.266C196.161 262.315 197.171 261.84 198.414 261.84ZM197.848 262.553C197.105 262.553 196.539 262.882 196.148 263.539C195.94 263.891 195.79 264.333 195.699 264.867H199.82C199.749 264.216 199.625 263.731 199.449 263.412C199.13 262.839 198.596 262.553 197.848 262.553ZM203.082 270.727C203.544 270.668 203.867 270.554 204.049 270.385C204.238 270.209 204.332 269.822 204.332 269.223V264.271C204.332 263.855 204.293 263.562 204.215 263.393C204.091 263.145 203.837 263.021 203.453 263.021C203.395 263.021 203.333 263.025 203.268 263.031C203.209 263.038 203.134 263.048 203.043 263.061V262.719C203.31 262.641 203.941 262.439 204.938 262.113L205.855 261.811C205.901 261.811 205.927 261.827 205.934 261.859C205.947 261.892 205.953 261.938 205.953 261.996V263.432C206.552 262.872 207.021 262.488 207.359 262.279C207.867 261.96 208.395 261.801 208.941 261.801C209.384 261.801 209.788 261.928 210.152 262.182C210.855 262.676 211.207 263.559 211.207 264.828V269.389C211.207 269.857 211.301 270.196 211.49 270.404C211.679 270.613 211.995 270.72 212.438 270.727V271H208.268V270.727C208.743 270.661 209.075 270.531 209.264 270.336C209.452 270.134 209.547 269.701 209.547 269.037V264.867C209.547 264.307 209.443 263.845 209.234 263.48C209.026 263.109 208.642 262.924 208.082 262.924C207.698 262.924 207.307 263.054 206.91 263.314C206.689 263.464 206.402 263.712 206.051 264.057V269.525C206.051 269.994 206.155 270.31 206.363 270.473C206.572 270.629 206.9 270.714 207.35 270.727V271H203.082V270.727Z" fill="#FA5629"/>
</g>
<defs>
<filter id="filter0_ii_1_37" x="0" y="0" width="278" height="350" filterUnits="userSpaceOnUse" color-interpolation-filters="sRGB">
<feFlood flood-opacity="0" result="BackgroundImageFix"/>
<feBlend mode="normal" in="SourceGraphic" in2="BackgroundImageFix" result="shape"/>
<feColorMatrix in="SourceAlpha" type="matrix" values="0 0 0 0 0 0 0 0 0 0 0 0 0 0 0 0 0 0 127 0" result="hardAlpha"/>
<feOffset dy="4"/>
<feGaussianBlur stdDeviation="2"/>
<feComposite in2="hardAlpha" operator="arithmetic" k2="-1" k3="1"/>
<feColorMatrix type="matrix" values="0 0 0 0 0 0 0 0 0 0 0 0 0 0 0 0 0 0 0.25 0"/>
<feBlend mode="normal" in2="shape" result="effect1_innerShadow_1_37"/>
<feColorMatrix in="SourceAlpha" type="matrix" values="0 0 0 0 0 0 0 0 0 0 0 0 0 0 0 0 0 0 127 0" result="hardAlpha"/>
<feOffset dy="4"/>
<feGaussianBlur stdDeviation="2"/>
<feComposite in2="hardAlpha" operator="arithmetic" k2="-1" k3="1"/>
<feColorMatrix type="matrix" values="0 0 0 0 0 0 0 0 0 0 0 0 0 0 0 0 0 0 0.25 0"/>
<feBlend mode="normal" in2="effect1_innerShadow_1_37" result="effect2_innerShadow_1_37"/>
</filter>
</defs>
</svg>
