<svg width="278" height="346" viewBox="0 0 278 346" fill="none" xmlns="http://www.w3.org/2000/svg">
<g filter="url(#filter0_ii_1_34)">
<path d="M0 29C0 12.9837 12.9837 0 29 0H249C265.016 0 278 12.9837 278 29V317C278 333.016 265.016 346 249 346H29C12.9837 346 0 333.016 0 317V29Z" fill="white"/>
<path d="M171.667 125.417V129.5H98.1667V125.417L106.333 117.25V92.75C106.333 80.0917 114.623 68.9442 126.75 65.3508C126.75 64.9425 126.75 64.575 126.75 64.1667C126.75 62.0007 127.61 59.9235 129.142 58.392C130.674 56.8604 132.751 56 134.917 56C137.083 56 139.16 56.8604 140.691 58.392C142.223 59.9235 143.083 62.0007 143.083 64.1667C143.083 64.575 143.083 64.9425 143.083 65.3508C155.211 68.9442 163.5 80.0917 163.5 92.75V117.25L171.667 125.417ZM143.083 133.583C143.083 135.749 142.223 137.826 140.691 139.358C139.16 140.89 137.083 141.75 134.917 141.75C132.751 141.75 130.674 140.89 129.142 139.358C127.61 137.826 126.75 135.749 126.75 133.583M166.562 60.8592L160.764 66.6575C167.747 73.5583 171.667 82.95 171.667 92.75H179.833C179.833 80.7858 175.097 69.2708 166.562 60.8592ZM90 92.75H98.1667C98.1667 82.95 102.087 73.5583 109.069 66.6575L103.271 60.8592C94.7367 69.2708 90 80.7858 90 92.75Z" fill="#FA5629"/>
<path d="M63.2598 184.533C64.0345 184.533 64.7962 184.641 65.5449 184.855C66.2936 185.07 66.7233 185.178 66.834 185.178C67.1204 185.178 67.3223 185.122 67.4395 185.012C67.5632 184.901 67.6673 184.742 67.752 184.533H68.1914L68.3477 188.742H67.8887C67.4785 187.772 67.0553 187.049 66.6191 186.574C65.8314 185.741 64.806 185.324 63.543 185.324C62.2604 185.324 61.1309 185.812 60.1543 186.789C59.1842 187.759 58.6992 189.361 58.6992 191.594C58.6992 193.436 59.1842 194.875 60.1543 195.91C61.1243 196.945 62.3223 197.463 63.748 197.463C63.9889 197.463 64.2721 197.44 64.5977 197.395C64.9232 197.349 65.2324 197.277 65.5254 197.18C66.0007 197.023 66.2969 196.89 66.4141 196.779C66.5312 196.662 66.5898 196.493 66.5898 196.271V193.078C66.5898 192.31 66.4792 191.831 66.2578 191.643C66.043 191.454 65.5677 191.337 64.832 191.291V190.92H69.9297V191.291C69.4349 191.324 69.1061 191.405 68.9434 191.535C68.6699 191.743 68.5332 192.173 68.5332 192.824V196.76C68.5332 196.994 67.957 197.307 66.8047 197.697C65.6589 198.088 64.5553 198.283 63.4941 198.283C61.541 198.283 59.8939 197.714 58.5527 196.574C57.0749 195.318 56.3359 193.632 56.3359 191.516C56.3359 189.654 56.9251 188.059 58.1035 186.73C59.3991 185.266 61.1178 184.533 63.2598 184.533ZM74.8906 188.84C75.8086 188.84 76.6126 189.159 77.3027 189.797C77.9928 190.428 78.3379 191.327 78.3379 192.492H72.1367C72.2018 194.003 72.5436 195.103 73.1621 195.793C73.7806 196.483 74.513 196.828 75.3594 196.828C76.043 196.828 76.6191 196.649 77.0879 196.291C77.5566 195.933 77.9896 195.425 78.3867 194.768L78.7285 194.885C78.4616 195.712 77.9603 196.477 77.2246 197.18C76.4954 197.883 75.6003 198.234 74.5391 198.234C73.3151 198.234 72.3678 197.772 71.6973 196.848C71.0332 195.923 70.7012 194.859 70.7012 193.654C70.7012 192.346 71.0885 191.216 71.8633 190.266C72.638 189.315 73.6471 188.84 74.8906 188.84ZM74.3242 189.553C73.582 189.553 73.0156 189.882 72.625 190.539C72.4167 190.891 72.2669 191.333 72.1758 191.867H76.2969C76.2253 191.216 76.1016 190.731 75.9258 190.412C75.6068 189.839 75.0729 189.553 74.3242 189.553ZM84.2852 188.996V189.699H82.293L82.2734 195.324C82.2734 195.819 82.3158 196.193 82.4004 196.447C82.5566 196.896 82.8626 197.121 83.3184 197.121C83.5527 197.121 83.7546 197.066 83.9238 196.955C84.0996 196.844 84.2982 196.669 84.5195 196.428L84.7734 196.643L84.5586 196.936C84.2201 197.391 83.862 197.714 83.4844 197.902C83.1068 198.091 82.7422 198.186 82.3906 198.186C81.6224 198.186 81.1016 197.844 80.8281 197.16C80.6784 196.789 80.6035 196.275 80.6035 195.617V189.699H79.5391C79.5065 189.68 79.4805 189.66 79.4609 189.641C79.4479 189.621 79.4414 189.595 79.4414 189.562C79.4414 189.497 79.4544 189.449 79.4805 189.416C79.513 189.377 79.6074 189.292 79.7637 189.162C80.2129 188.791 80.5352 188.492 80.7305 188.264C80.9323 188.029 81.401 187.417 82.1367 186.428C82.2214 186.428 82.2702 186.434 82.2832 186.447C82.3027 186.46 82.3125 186.509 82.3125 186.594V188.996H84.2852ZM90.125 197.727C90.5872 197.668 90.9095 197.554 91.0918 197.385C91.2806 197.209 91.375 196.822 91.375 196.223V191.271C91.375 190.855 91.3359 190.562 91.2578 190.393C91.1341 190.145 90.8802 190.021 90.4961 190.021C90.4375 190.021 90.3757 190.025 90.3105 190.031C90.252 190.038 90.1771 190.048 90.0859 190.061V189.719C90.3529 189.641 90.9844 189.439 91.9805 189.113L92.8984 188.811C92.944 188.811 92.9701 188.827 92.9766 188.859C92.9896 188.892 92.9961 188.938 92.9961 188.996V190.432C93.5951 189.872 94.0638 189.488 94.4023 189.279C94.9102 188.96 95.4375 188.801 95.9844 188.801C96.4271 188.801 96.8307 188.928 97.1953 189.182C97.8984 189.676 98.25 190.559 98.25 191.828V196.389C98.25 196.857 98.3444 197.196 98.5332 197.404C98.722 197.613 99.0378 197.72 99.4805 197.727V198H95.3105V197.727C95.7858 197.661 96.1178 197.531 96.3066 197.336C96.4954 197.134 96.5898 196.701 96.5898 196.037V191.867C96.5898 191.307 96.4857 190.845 96.2773 190.48C96.069 190.109 95.6849 189.924 95.125 189.924C94.7409 189.924 94.3503 190.054 93.9531 190.314C93.7318 190.464 93.4453 190.712 93.0938 191.057V196.525C93.0938 196.994 93.1979 197.31 93.4062 197.473C93.6146 197.629 93.9434 197.714 94.3926 197.727V198H90.125V197.727ZM100.271 193.469C100.271 192.173 100.682 191.079 101.502 190.188C102.329 189.289 103.39 188.84 104.686 188.84C105.975 188.84 107.042 189.263 107.889 190.109C108.735 190.956 109.158 192.082 109.158 193.488C109.158 194.784 108.748 195.91 107.928 196.867C107.107 197.824 106.046 198.303 104.744 198.303C103.494 198.303 102.436 197.844 101.57 196.926C100.704 196.008 100.271 194.855 100.271 193.469ZM104.412 189.426C103.898 189.426 103.452 189.595 103.074 189.934C102.423 190.526 102.098 191.548 102.098 193C102.098 194.159 102.358 195.24 102.879 196.242C103.406 197.245 104.135 197.746 105.066 197.746C105.796 197.746 106.355 197.411 106.746 196.74C107.143 196.07 107.342 195.191 107.342 194.104C107.342 192.977 107.091 191.916 106.59 190.92C106.089 189.924 105.363 189.426 104.412 189.426ZM114.852 188.996V189.699H112.859L112.84 195.324C112.84 195.819 112.882 196.193 112.967 196.447C113.123 196.896 113.429 197.121 113.885 197.121C114.119 197.121 114.321 197.066 114.49 196.955C114.666 196.844 114.865 196.669 115.086 196.428L115.34 196.643L115.125 196.936C114.786 197.391 114.428 197.714 114.051 197.902C113.673 198.091 113.309 198.186 112.957 198.186C112.189 198.186 111.668 197.844 111.395 197.16C111.245 196.789 111.17 196.275 111.17 195.617V189.699H110.105C110.073 189.68 110.047 189.66 110.027 189.641C110.014 189.621 110.008 189.595 110.008 189.562C110.008 189.497 110.021 189.449 110.047 189.416C110.079 189.377 110.174 189.292 110.33 189.162C110.779 188.791 111.102 188.492 111.297 188.264C111.499 188.029 111.967 187.417 112.703 186.428C112.788 186.428 112.837 186.434 112.85 186.447C112.869 186.46 112.879 186.509 112.879 186.594V188.996H114.852ZM116.971 185.393C116.971 185.113 117.068 184.872 117.264 184.67C117.459 184.468 117.7 184.367 117.986 184.367C118.266 184.367 118.504 184.468 118.699 184.67C118.901 184.865 119.002 185.106 119.002 185.393C119.002 185.673 118.901 185.913 118.699 186.115C118.504 186.311 118.266 186.408 117.986 186.408C117.7 186.408 117.459 186.311 117.264 186.115C117.068 185.913 116.971 185.673 116.971 185.393ZM115.721 197.727C116.417 197.661 116.857 197.544 117.039 197.375C117.221 197.199 117.312 196.73 117.312 195.969V191.311C117.312 190.887 117.283 190.594 117.225 190.432C117.127 190.165 116.922 190.031 116.609 190.031C116.538 190.031 116.466 190.038 116.395 190.051C116.329 190.064 116.134 190.116 115.809 190.207V189.904L116.229 189.768C117.368 189.396 118.162 189.117 118.611 188.928C118.794 188.85 118.911 188.811 118.963 188.811C118.976 188.856 118.982 188.905 118.982 188.957V195.969C118.982 196.711 119.07 197.176 119.246 197.365C119.428 197.554 119.835 197.674 120.467 197.727V198H115.721V197.727ZM121.541 197.727C122.049 197.707 122.404 197.609 122.605 197.434C122.807 197.258 122.908 196.825 122.908 196.135V189.67H121.512V189.074H122.908C122.921 187.661 123.286 186.535 124.002 185.695C124.725 184.849 125.818 184.426 127.283 184.426C127.908 184.426 128.481 184.569 129.002 184.855C129.523 185.142 129.783 185.48 129.783 185.871C129.783 186.073 129.712 186.249 129.568 186.398C129.432 186.542 129.256 186.613 129.041 186.613C128.742 186.613 128.393 186.337 127.996 185.783C127.599 185.223 127.166 184.943 126.697 184.943C126.222 184.943 125.848 185.025 125.574 185.188C125.301 185.344 125.047 185.64 124.812 186.076C124.682 186.402 124.598 186.743 124.559 187.102C124.52 187.453 124.5 188.111 124.5 189.074H127.352C127.592 189.074 127.863 189.068 128.162 189.055C128.468 189.042 128.725 189.022 128.934 188.996C128.992 188.99 129.145 188.96 129.393 188.908C129.646 188.856 129.803 188.83 129.861 188.83C129.894 188.83 129.926 188.843 129.959 188.869C129.992 188.895 130.008 188.944 130.008 189.016C130.008 189.074 129.995 189.263 129.969 189.582L129.959 189.992C129.952 190.135 129.946 190.275 129.939 190.412C129.939 190.549 129.939 190.689 129.939 190.832V196.057C129.939 196.74 130.034 197.173 130.223 197.355C130.418 197.538 130.779 197.661 131.307 197.727V198H126.912V197.707C127.537 197.648 127.924 197.531 128.074 197.355C128.224 197.18 128.299 196.747 128.299 196.057V190.783C128.299 190.321 128.23 190.031 128.094 189.914C127.964 189.79 127.671 189.719 127.215 189.699C126.896 189.693 126.658 189.686 126.502 189.68C126.04 189.673 125.372 189.67 124.5 189.67V196.242C124.5 196.835 124.64 197.238 124.92 197.453C125.096 197.59 125.434 197.681 125.936 197.727V198H121.541V197.727ZM136.609 188.84C137.527 188.84 138.331 189.159 139.021 189.797C139.712 190.428 140.057 191.327 140.057 192.492H133.855C133.921 194.003 134.262 195.103 134.881 195.793C135.499 196.483 136.232 196.828 137.078 196.828C137.762 196.828 138.338 196.649 138.807 196.291C139.275 195.933 139.708 195.425 140.105 194.768L140.447 194.885C140.18 195.712 139.679 196.477 138.943 197.18C138.214 197.883 137.319 198.234 136.258 198.234C135.034 198.234 134.087 197.772 133.416 196.848C132.752 195.923 132.42 194.859 132.42 193.654C132.42 192.346 132.807 191.216 133.582 190.266C134.357 189.315 135.366 188.84 136.609 188.84ZM136.043 189.553C135.301 189.553 134.734 189.882 134.344 190.539C134.135 190.891 133.986 191.333 133.895 191.867H138.016C137.944 191.216 137.82 190.731 137.645 190.412C137.326 189.839 136.792 189.553 136.043 189.553ZM145.652 188.771C146.128 188.771 146.564 188.876 146.961 189.084C147.221 189.221 147.472 189.41 147.713 189.65V186.545C147.713 186.148 147.667 185.874 147.576 185.725C147.492 185.575 147.283 185.5 146.951 185.5C146.873 185.5 146.805 185.503 146.746 185.51C146.688 185.516 146.557 185.529 146.355 185.549V185.227L147.156 185.021C147.449 184.943 147.742 184.862 148.035 184.777C148.328 184.693 148.585 184.611 148.807 184.533C148.911 184.501 149.083 184.439 149.324 184.348L149.383 184.367L149.363 185.393C149.357 185.764 149.35 186.148 149.344 186.545C149.337 186.936 149.334 187.323 149.334 187.707L149.314 195.686C149.314 196.109 149.367 196.405 149.471 196.574C149.575 196.743 149.852 196.828 150.301 196.828C150.372 196.828 150.444 196.828 150.516 196.828C150.587 196.822 150.659 196.812 150.73 196.799V197.121C150.691 197.134 150.219 197.297 149.314 197.609L147.781 198.186L147.713 198.098V196.896C147.348 197.294 147.033 197.577 146.766 197.746C146.29 198.039 145.74 198.186 145.115 198.186C144.008 198.186 143.11 197.759 142.42 196.906C141.736 196.047 141.395 195.054 141.395 193.928C141.395 192.515 141.805 191.304 142.625 190.295C143.452 189.279 144.461 188.771 145.652 188.771ZM146.014 197.131C146.521 197.131 146.932 196.981 147.244 196.682C147.557 196.382 147.713 196.099 147.713 195.832V191.643C147.713 190.796 147.485 190.201 147.029 189.855C146.58 189.504 146.141 189.328 145.711 189.328C144.891 189.328 144.253 189.693 143.797 190.422C143.341 191.145 143.113 192.036 143.113 193.098C143.113 194.146 143.354 195.08 143.836 195.9C144.324 196.721 145.05 197.131 146.014 197.131ZM165.213 189.23C164.822 189.276 164.533 189.341 164.344 189.426C164.155 189.51 164.061 189.68 164.061 189.934C164.061 190.07 164.08 190.214 164.119 190.363C164.165 190.507 164.223 190.676 164.295 190.871L166.072 195.51L167.811 191.271C167.889 191.089 167.973 190.852 168.064 190.559C168.156 190.259 168.201 190.035 168.201 189.885C168.201 189.644 168.126 189.481 167.977 189.396C167.827 189.312 167.609 189.25 167.322 189.211V188.928H169.803V189.211C169.64 189.243 169.507 189.322 169.402 189.445C169.298 189.569 169.152 189.862 168.963 190.324L165.838 198.029C165.812 198.088 165.789 198.13 165.77 198.156C165.75 198.182 165.721 198.195 165.682 198.195C165.604 198.156 165.558 198.124 165.545 198.098L163.338 192.639L160.77 198.078C160.757 198.111 160.737 198.137 160.711 198.156C160.691 198.182 160.665 198.195 160.633 198.195C160.555 198.156 160.509 198.124 160.496 198.098L157.576 190.9C157.257 190.113 157.046 189.65 156.941 189.514C156.837 189.37 156.632 189.276 156.326 189.23V188.928H159.939V189.23C159.64 189.257 159.409 189.312 159.246 189.396C159.09 189.475 159.012 189.647 159.012 189.914C159.012 190.103 159.145 190.565 159.412 191.301C159.568 191.724 159.767 192.238 160.008 192.844L161.121 195.617L162.879 191.848L162.898 191.73C162.898 191.6 162.827 191.359 162.684 191.008C162.547 190.65 162.413 190.331 162.283 190.051C162.153 189.758 162.003 189.556 161.834 189.445C161.671 189.328 161.44 189.257 161.141 189.23V188.928H165.213V189.23ZM170.545 197.727C171.079 197.655 171.427 197.525 171.59 197.336C171.759 197.141 171.844 196.685 171.844 195.969V186.594C171.844 186.229 171.795 185.962 171.697 185.793C171.606 185.617 171.378 185.529 171.014 185.529C170.942 185.529 170.87 185.536 170.799 185.549C170.734 185.555 170.659 185.565 170.574 185.578V185.227C170.861 185.142 171.212 185.041 171.629 184.924C172.052 184.8 172.345 184.712 172.508 184.66L173.445 184.367L173.465 184.436V190.432C173.875 189.963 174.24 189.618 174.559 189.396C175.132 189.006 175.75 188.811 176.414 188.811C177.469 188.811 178.188 189.253 178.572 190.139C178.781 190.607 178.885 191.223 178.885 191.984V195.969C178.885 196.659 178.963 197.108 179.119 197.316C179.282 197.525 179.611 197.661 180.105 197.727V198H175.877V197.727C176.443 197.648 176.808 197.515 176.971 197.326C177.133 197.137 177.215 196.685 177.215 195.969V192.014C177.215 191.382 177.107 190.871 176.893 190.48C176.684 190.09 176.287 189.895 175.701 189.895C175.193 189.895 174.702 190.077 174.227 190.441C173.751 190.806 173.514 191.044 173.514 191.154V195.969C173.514 196.698 173.598 197.154 173.768 197.336C173.937 197.518 174.298 197.648 174.852 197.727V198H170.545V197.727ZM184.949 188.84C185.867 188.84 186.671 189.159 187.361 189.797C188.051 190.428 188.396 191.327 188.396 192.492H182.195C182.26 194.003 182.602 195.103 183.221 195.793C183.839 196.483 184.572 196.828 185.418 196.828C186.102 196.828 186.678 196.649 187.146 196.291C187.615 195.933 188.048 195.425 188.445 194.768L188.787 194.885C188.52 195.712 188.019 196.477 187.283 197.18C186.554 197.883 185.659 198.234 184.598 198.234C183.374 198.234 182.426 197.772 181.756 196.848C181.092 195.923 180.76 194.859 180.76 193.654C180.76 192.346 181.147 191.216 181.922 190.266C182.697 189.315 183.706 188.84 184.949 188.84ZM184.383 189.553C183.641 189.553 183.074 189.882 182.684 190.539C182.475 190.891 182.326 191.333 182.234 191.867H186.355C186.284 191.216 186.16 190.731 185.984 190.412C185.665 189.839 185.132 189.553 184.383 189.553ZM189.617 197.727C190.079 197.668 190.402 197.554 190.584 197.385C190.773 197.209 190.867 196.822 190.867 196.223V191.271C190.867 190.855 190.828 190.562 190.75 190.393C190.626 190.145 190.372 190.021 189.988 190.021C189.93 190.021 189.868 190.025 189.803 190.031C189.744 190.038 189.669 190.048 189.578 190.061V189.719C189.845 189.641 190.477 189.439 191.473 189.113L192.391 188.811C192.436 188.811 192.462 188.827 192.469 188.859C192.482 188.892 192.488 188.938 192.488 188.996V190.432C193.087 189.872 193.556 189.488 193.895 189.279C194.402 188.96 194.93 188.801 195.477 188.801C195.919 188.801 196.323 188.928 196.688 189.182C197.391 189.676 197.742 190.559 197.742 191.828V196.389C197.742 196.857 197.837 197.196 198.025 197.404C198.214 197.613 198.53 197.72 198.973 197.727V198H194.803V197.727C195.278 197.661 195.61 197.531 195.799 197.336C195.988 197.134 196.082 196.701 196.082 196.037V191.867C196.082 191.307 195.978 190.845 195.77 190.48C195.561 190.109 195.177 189.924 194.617 189.924C194.233 189.924 193.842 190.054 193.445 190.314C193.224 190.464 192.938 190.712 192.586 191.057V196.525C192.586 196.994 192.69 197.31 192.898 197.473C193.107 197.629 193.436 197.714 193.885 197.727V198H189.617V197.727ZM209.988 192.59C209.24 192.837 208.621 193.111 208.133 193.41C207.195 193.99 206.727 194.647 206.727 195.383C206.727 195.975 206.922 196.411 207.312 196.691C207.566 196.874 207.85 196.965 208.162 196.965C208.592 196.965 209.002 196.844 209.393 196.604C209.79 196.363 209.988 196.057 209.988 195.686V192.59ZM204.988 196.057C204.988 195.113 205.46 194.325 206.404 193.693C207.003 193.303 208.198 192.772 209.988 192.102V191.271C209.988 190.607 209.923 190.145 209.793 189.885C209.572 189.449 209.113 189.23 208.416 189.23C208.084 189.23 207.768 189.315 207.469 189.484C207.169 189.66 207.02 189.901 207.02 190.207C207.02 190.285 207.036 190.419 207.068 190.607C207.101 190.79 207.117 190.907 207.117 190.959C207.117 191.324 206.997 191.577 206.756 191.721C206.619 191.805 206.456 191.848 206.268 191.848C205.975 191.848 205.75 191.753 205.594 191.564C205.438 191.369 205.359 191.154 205.359 190.92C205.359 190.464 205.639 189.989 206.199 189.494C206.766 188.993 207.592 188.742 208.68 188.742C209.943 188.742 210.799 189.152 211.248 189.973C211.489 190.422 211.609 191.076 211.609 191.936V195.852C211.609 196.229 211.635 196.49 211.688 196.633C211.772 196.887 211.948 197.014 212.215 197.014C212.365 197.014 212.488 196.991 212.586 196.945C212.684 196.9 212.853 196.789 213.094 196.613V197.121C212.885 197.375 212.661 197.583 212.42 197.746C212.055 197.993 211.684 198.117 211.307 198.117C210.864 198.117 210.542 197.974 210.34 197.688C210.145 197.401 210.037 197.059 210.018 196.662C209.523 197.092 209.1 197.411 208.748 197.619C208.156 197.971 207.592 198.146 207.059 198.146C206.499 198.146 206.014 197.951 205.604 197.561C205.193 197.163 204.988 196.662 204.988 196.057ZM213.504 197.727C213.966 197.668 214.288 197.554 214.471 197.385C214.66 197.209 214.754 196.822 214.754 196.223V191.271C214.754 190.855 214.715 190.562 214.637 190.393C214.513 190.145 214.259 190.021 213.875 190.021C213.816 190.021 213.755 190.025 213.689 190.031C213.631 190.038 213.556 190.048 213.465 190.061V189.719C213.732 189.641 214.363 189.439 215.359 189.113L216.277 188.811C216.323 188.811 216.349 188.827 216.355 188.859C216.368 188.892 216.375 188.938 216.375 188.996V190.432C216.974 189.872 217.443 189.488 217.781 189.279C218.289 188.96 218.816 188.801 219.363 188.801C219.806 188.801 220.21 188.928 220.574 189.182C221.277 189.676 221.629 190.559 221.629 191.828V196.389C221.629 196.857 221.723 197.196 221.912 197.404C222.101 197.613 222.417 197.72 222.859 197.727V198H218.689V197.727C219.165 197.661 219.497 197.531 219.686 197.336C219.874 197.134 219.969 196.701 219.969 196.037V191.867C219.969 191.307 219.865 190.845 219.656 190.48C219.448 190.109 219.064 189.924 218.504 189.924C218.12 189.924 217.729 190.054 217.332 190.314C217.111 190.464 216.824 190.712 216.473 191.057V196.525C216.473 196.994 216.577 197.31 216.785 197.473C216.993 197.629 217.322 197.714 217.771 197.727V198H213.504V197.727ZM80.5742 208.393C80.5742 208.113 80.6719 207.872 80.8672 207.67C81.0625 207.468 81.3034 207.367 81.5898 207.367C81.8698 207.367 82.1074 207.468 82.3027 207.67C82.5046 207.865 82.6055 208.106 82.6055 208.393C82.6055 208.673 82.5046 208.913 82.3027 209.115C82.1074 209.311 81.8698 209.408 81.5898 209.408C81.3034 209.408 81.0625 209.311 80.8672 209.115C80.6719 208.913 80.5742 208.673 80.5742 208.393ZM79.3242 220.727C80.0208 220.661 80.4603 220.544 80.6426 220.375C80.8249 220.199 80.916 219.73 80.916 218.969V214.311C80.916 213.887 80.8867 213.594 80.8281 213.432C80.7305 213.165 80.5254 213.031 80.2129 213.031C80.1413 213.031 80.0697 213.038 79.998 213.051C79.9329 213.064 79.7376 213.116 79.4121 213.207V212.904L79.832 212.768C80.9714 212.396 81.7656 212.117 82.2148 211.928C82.3971 211.85 82.5143 211.811 82.5664 211.811C82.5794 211.856 82.5859 211.905 82.5859 211.957V218.969C82.5859 219.711 82.6738 220.176 82.8496 220.365C83.0319 220.554 83.4388 220.674 84.0703 220.727V221H79.3242V220.727ZM89.5879 211.996V212.699H87.5957L87.5762 218.324C87.5762 218.819 87.6185 219.193 87.7031 219.447C87.8594 219.896 88.1654 220.121 88.6211 220.121C88.8555 220.121 89.0573 220.066 89.2266 219.955C89.4023 219.844 89.6009 219.669 89.8223 219.428L90.0762 219.643L89.8613 219.936C89.5228 220.391 89.1647 220.714 88.7871 220.902C88.4095 221.091 88.0449 221.186 87.6934 221.186C86.9251 221.186 86.4043 220.844 86.1309 220.16C85.9811 219.789 85.9062 219.275 85.9062 218.617V212.699H84.8418C84.8092 212.68 84.7832 212.66 84.7637 212.641C84.7507 212.621 84.7441 212.595 84.7441 212.562C84.7441 212.497 84.7572 212.449 84.7832 212.416C84.8158 212.377 84.9102 212.292 85.0664 212.162C85.5156 211.791 85.8379 211.492 86.0332 211.264C86.235 211.029 86.7038 210.417 87.4395 209.428C87.5241 209.428 87.5729 209.434 87.5859 209.447C87.6055 209.46 87.6152 209.509 87.6152 209.594V211.996H89.5879ZM94.6465 211.84C95.5645 211.84 96.3685 212.159 97.0586 212.797C97.7487 213.428 98.0938 214.327 98.0938 215.492H91.8926C91.9577 217.003 92.2995 218.103 92.918 218.793C93.5365 219.483 94.2689 219.828 95.1152 219.828C95.7988 219.828 96.375 219.649 96.8438 219.291C97.3125 218.933 97.7454 218.425 98.1426 217.768L98.4844 217.885C98.2174 218.712 97.7161 219.477 96.9805 220.18C96.2513 220.883 95.3561 221.234 94.2949 221.234C93.071 221.234 92.1237 220.772 91.4531 219.848C90.7891 218.923 90.457 217.859 90.457 216.654C90.457 215.346 90.8444 214.216 91.6191 213.266C92.3939 212.315 93.403 211.84 94.6465 211.84ZM94.0801 212.553C93.3379 212.553 92.7715 212.882 92.3809 213.539C92.1725 213.891 92.0228 214.333 91.9316 214.867H96.0527C95.9811 214.216 95.8574 213.731 95.6816 213.412C95.3626 212.839 94.8288 212.553 94.0801 212.553ZM99.2754 220.746C99.7832 220.701 100.122 220.616 100.291 220.492C100.551 220.303 100.682 219.926 100.682 219.359V214.311C100.682 213.829 100.617 213.513 100.486 213.363C100.363 213.214 100.154 213.139 99.8613 213.139C99.7246 213.139 99.6204 213.145 99.5488 213.158C99.4837 213.171 99.4056 213.194 99.3145 213.227V212.885L100.018 212.65C100.271 212.566 100.688 212.413 101.268 212.191C101.847 211.97 102.153 211.859 102.186 211.859C102.218 211.859 102.238 211.876 102.244 211.908C102.251 211.941 102.254 212.003 102.254 212.094V213.412C102.898 212.826 103.455 212.423 103.924 212.201C104.393 211.973 104.874 211.859 105.369 211.859C106.04 211.859 106.574 212.087 106.971 212.543C107.179 212.79 107.352 213.126 107.488 213.549C107.97 213.061 108.39 212.699 108.748 212.465C109.367 212.061 109.998 211.859 110.643 211.859C111.691 211.859 112.391 212.286 112.742 213.139C112.944 213.62 113.045 214.382 113.045 215.424V219.477C113.045 219.939 113.146 220.255 113.348 220.424C113.556 220.587 113.927 220.694 114.461 220.746V221H110.057V220.727C110.623 220.674 110.994 220.561 111.17 220.385C111.352 220.209 111.443 219.851 111.443 219.311V215.102C111.443 214.47 111.375 214.005 111.238 213.705C110.997 213.171 110.525 212.904 109.822 212.904C109.399 212.904 108.979 213.044 108.562 213.324C108.322 213.487 108.025 213.747 107.674 214.105V219.105C107.674 219.633 107.765 220.033 107.947 220.307C108.136 220.58 108.53 220.727 109.129 220.746V221H104.646V220.746C105.265 220.668 105.659 220.518 105.828 220.297C105.997 220.076 106.082 219.532 106.082 218.666V215.932C106.082 214.929 106.017 214.239 105.887 213.861C105.672 213.223 105.216 212.904 104.52 212.904C104.122 212.904 103.732 213.015 103.348 213.236C102.964 213.451 102.625 213.734 102.332 214.086V219.428C102.332 219.923 102.417 220.264 102.586 220.453C102.762 220.642 103.139 220.74 103.719 220.746V221H99.2754V220.746ZM119.91 220.727C120.6 220.694 121.053 220.567 121.268 220.346C121.489 220.118 121.6 219.643 121.6 218.92V212.65H119.93V211.996H121.6C121.6 210.967 121.74 210.098 122.02 209.389C122.553 208.028 123.533 207.348 124.959 207.348C125.532 207.348 126.043 207.462 126.492 207.689C126.948 207.917 127.176 208.223 127.176 208.607C127.176 208.822 127.098 209.014 126.941 209.184C126.785 209.353 126.596 209.438 126.375 209.438C126.186 209.438 126.023 209.382 125.887 209.271C125.75 209.154 125.587 208.952 125.398 208.666L125.232 208.412C125.141 208.275 125.034 208.161 124.91 208.07C124.786 207.973 124.614 207.924 124.393 207.924C123.898 207.924 123.562 208.168 123.387 208.656C123.289 208.917 123.24 209.258 123.24 209.682V211.996H125.691V212.65H123.26V218.92C123.26 219.656 123.357 220.128 123.553 220.336C123.755 220.538 124.275 220.668 125.115 220.727V221H119.91V220.727ZM126.268 220.678C126.867 220.626 127.264 220.521 127.459 220.365C127.654 220.202 127.752 219.861 127.752 219.34V214.936C127.752 214.291 127.69 213.832 127.566 213.559C127.449 213.279 127.231 213.139 126.912 213.139C126.847 213.139 126.759 213.148 126.648 213.168C126.544 213.181 126.434 213.201 126.316 213.227V212.904C126.688 212.774 127.068 212.641 127.459 212.504C127.85 212.367 128.12 212.27 128.27 212.211C128.595 212.087 128.93 211.947 129.275 211.791C129.321 211.791 129.347 211.807 129.354 211.84C129.367 211.872 129.373 211.941 129.373 212.045V213.646C129.79 213.067 130.19 212.615 130.574 212.289C130.965 211.964 131.368 211.801 131.785 211.801C132.117 211.801 132.387 211.902 132.596 212.104C132.804 212.299 132.908 212.546 132.908 212.846C132.908 213.113 132.827 213.337 132.664 213.52C132.508 213.702 132.309 213.793 132.068 213.793C131.821 213.793 131.57 213.679 131.316 213.451C131.069 213.223 130.874 213.109 130.73 213.109C130.503 213.109 130.223 213.295 129.891 213.666C129.559 214.031 129.393 214.408 129.393 214.799V219.203C129.393 219.763 129.523 220.154 129.783 220.375C130.044 220.59 130.477 220.691 131.082 220.678V221H126.268V220.678ZM133.348 216.469C133.348 215.173 133.758 214.079 134.578 213.188C135.405 212.289 136.466 211.84 137.762 211.84C139.051 211.84 140.118 212.263 140.965 213.109C141.811 213.956 142.234 215.082 142.234 216.488C142.234 217.784 141.824 218.91 141.004 219.867C140.184 220.824 139.122 221.303 137.82 221.303C136.57 221.303 135.512 220.844 134.646 219.926C133.781 219.008 133.348 217.855 133.348 216.469ZM137.488 212.426C136.974 212.426 136.528 212.595 136.15 212.934C135.499 213.526 135.174 214.548 135.174 216C135.174 217.159 135.434 218.24 135.955 219.242C136.482 220.245 137.212 220.746 138.143 220.746C138.872 220.746 139.432 220.411 139.822 219.74C140.219 219.07 140.418 218.191 140.418 217.104C140.418 215.977 140.167 214.916 139.666 213.92C139.165 212.924 138.439 212.426 137.488 212.426ZM143.162 220.746C143.67 220.701 144.008 220.616 144.178 220.492C144.438 220.303 144.568 219.926 144.568 219.359V214.311C144.568 213.829 144.503 213.513 144.373 213.363C144.249 213.214 144.041 213.139 143.748 213.139C143.611 213.139 143.507 213.145 143.436 213.158C143.37 213.171 143.292 213.194 143.201 213.227V212.885L143.904 212.65C144.158 212.566 144.575 212.413 145.154 212.191C145.734 211.97 146.04 211.859 146.072 211.859C146.105 211.859 146.124 211.876 146.131 211.908C146.137 211.941 146.141 212.003 146.141 212.094V213.412C146.785 212.826 147.342 212.423 147.811 212.201C148.279 211.973 148.761 211.859 149.256 211.859C149.926 211.859 150.46 212.087 150.857 212.543C151.066 212.79 151.238 213.126 151.375 213.549C151.857 213.061 152.277 212.699 152.635 212.465C153.253 212.061 153.885 211.859 154.529 211.859C155.577 211.859 156.277 212.286 156.629 213.139C156.831 213.62 156.932 214.382 156.932 215.424V219.477C156.932 219.939 157.033 220.255 157.234 220.424C157.443 220.587 157.814 220.694 158.348 220.746V221H153.943V220.727C154.51 220.674 154.881 220.561 155.057 220.385C155.239 220.209 155.33 219.851 155.33 219.311V215.102C155.33 214.47 155.262 214.005 155.125 213.705C154.884 213.171 154.412 212.904 153.709 212.904C153.286 212.904 152.866 213.044 152.449 213.324C152.208 213.487 151.912 213.747 151.561 214.105V219.105C151.561 219.633 151.652 220.033 151.834 220.307C152.023 220.58 152.417 220.727 153.016 220.746V221H148.533V220.746C149.152 220.668 149.546 220.518 149.715 220.297C149.884 220.076 149.969 219.532 149.969 218.666V215.932C149.969 214.929 149.904 214.239 149.773 213.861C149.559 213.223 149.103 212.904 148.406 212.904C148.009 212.904 147.618 213.015 147.234 213.236C146.85 213.451 146.512 213.734 146.219 214.086V219.428C146.219 219.923 146.303 220.264 146.473 220.453C146.648 220.642 147.026 220.74 147.605 220.746V221H143.162V220.746ZM163.68 212.025H167.801V212.328C167.475 212.335 167.234 212.364 167.078 212.416C166.779 212.501 166.629 212.667 166.629 212.914C166.629 213.005 166.645 213.1 166.678 213.197C166.71 213.288 166.769 213.428 166.854 213.617L169.139 218.686L170.975 213.578C170.994 213.526 171.023 213.409 171.062 213.227C171.108 213.044 171.131 212.921 171.131 212.855C171.131 212.686 171.072 212.562 170.955 212.484C170.838 212.406 170.688 212.361 170.506 212.348L170.203 212.328V212.025H172.889V212.328C172.622 212.361 172.42 212.452 172.283 212.602C172.153 212.751 172.039 212.96 171.941 213.227L168.865 221.371C168.331 222.777 167.82 223.796 167.332 224.428C166.844 225.059 166.225 225.375 165.477 225.375C165.112 225.375 164.77 225.284 164.451 225.102C164.132 224.919 163.973 224.63 163.973 224.232C163.973 223.972 164.067 223.757 164.256 223.588C164.451 223.425 164.695 223.344 164.988 223.344C165.158 223.344 165.408 223.406 165.74 223.529C166.079 223.653 166.32 223.715 166.463 223.715C166.827 223.715 167.212 223.292 167.615 222.445C168.019 221.599 168.221 221.033 168.221 220.746C168.221 220.688 168.211 220.616 168.191 220.531C168.172 220.447 168.149 220.372 168.123 220.307L164.998 213.549C164.777 213.067 164.581 212.751 164.412 212.602C164.249 212.445 164.005 212.344 163.68 212.299V212.025ZM173.914 216.469C173.914 215.173 174.324 214.079 175.145 213.188C175.971 212.289 177.033 211.84 178.328 211.84C179.617 211.84 180.685 212.263 181.531 213.109C182.378 213.956 182.801 215.082 182.801 216.488C182.801 217.784 182.391 218.91 181.57 219.867C180.75 220.824 179.689 221.303 178.387 221.303C177.137 221.303 176.079 220.844 175.213 219.926C174.347 219.008 173.914 217.855 173.914 216.469ZM178.055 212.426C177.54 212.426 177.094 212.595 176.717 212.934C176.066 213.526 175.74 214.548 175.74 216C175.74 217.159 176.001 218.24 176.521 219.242C177.049 220.245 177.778 220.746 178.709 220.746C179.438 220.746 179.998 220.411 180.389 219.74C180.786 219.07 180.984 218.191 180.984 217.104C180.984 215.977 180.734 214.916 180.232 213.92C179.731 212.924 179.005 212.426 178.055 212.426ZM186.502 211.957V218.207C186.502 218.65 186.564 219.005 186.688 219.271C186.928 219.766 187.371 220.014 188.016 220.014C188.458 220.014 188.891 219.867 189.314 219.574C189.555 219.411 189.799 219.187 190.047 218.9V213.549C190.047 213.048 189.949 212.719 189.754 212.562C189.559 212.406 189.168 212.312 188.582 212.279V211.957H191.736V218.832C191.736 219.275 191.814 219.581 191.971 219.75C192.133 219.913 192.472 219.984 192.986 219.965V220.238C192.628 220.336 192.365 220.411 192.195 220.463C192.026 220.508 191.743 220.596 191.346 220.727C191.176 220.785 190.805 220.925 190.232 221.146C190.2 221.146 190.18 221.13 190.174 221.098C190.167 221.072 190.164 221.039 190.164 221V219.428C189.721 219.955 189.318 220.346 188.953 220.6C188.4 220.99 187.814 221.186 187.195 221.186C186.629 221.186 186.095 220.984 185.594 220.58C185.086 220.183 184.832 219.516 184.832 218.578V213.51C184.832 212.989 184.721 212.641 184.5 212.465C184.357 212.354 184.051 212.276 183.582 212.23V211.957H186.502ZM193.494 220.678C194.093 220.626 194.49 220.521 194.686 220.365C194.881 220.202 194.979 219.861 194.979 219.34V214.936C194.979 214.291 194.917 213.832 194.793 213.559C194.676 213.279 194.458 213.139 194.139 213.139C194.074 213.139 193.986 213.148 193.875 213.168C193.771 213.181 193.66 213.201 193.543 213.227V212.904C193.914 212.774 194.295 212.641 194.686 212.504C195.076 212.367 195.346 212.27 195.496 212.211C195.822 212.087 196.157 211.947 196.502 211.791C196.548 211.791 196.574 211.807 196.58 211.84C196.593 211.872 196.6 211.941 196.6 212.045V213.646C197.016 213.067 197.417 212.615 197.801 212.289C198.191 211.964 198.595 211.801 199.012 211.801C199.344 211.801 199.614 211.902 199.822 212.104C200.031 212.299 200.135 212.546 200.135 212.846C200.135 213.113 200.053 213.337 199.891 213.52C199.734 213.702 199.536 213.793 199.295 213.793C199.048 213.793 198.797 213.679 198.543 213.451C198.296 213.223 198.1 213.109 197.957 213.109C197.729 213.109 197.449 213.295 197.117 213.666C196.785 214.031 196.619 214.408 196.619 214.799V219.203C196.619 219.763 196.749 220.154 197.01 220.375C197.27 220.59 197.703 220.691 198.309 220.678V221H193.494V220.678ZM60.0078 231.393C60.0078 231.113 60.1055 230.872 60.3008 230.67C60.4961 230.468 60.737 230.367 61.0234 230.367C61.3034 230.367 61.541 230.468 61.7363 230.67C61.9382 230.865 62.0391 231.106 62.0391 231.393C62.0391 231.673 61.9382 231.913 61.7363 232.115C61.541 232.311 61.3034 232.408 61.0234 232.408C60.737 232.408 60.4961 232.311 60.3008 232.115C60.1055 231.913 60.0078 231.673 60.0078 231.393ZM58.7578 243.727C59.4544 243.661 59.8939 243.544 60.0762 243.375C60.2585 243.199 60.3496 242.73 60.3496 241.969V237.311C60.3496 236.887 60.3203 236.594 60.2617 236.432C60.1641 236.165 59.959 236.031 59.6465 236.031C59.5749 236.031 59.5033 236.038 59.4316 236.051C59.3665 236.064 59.1712 236.116 58.8457 236.207V235.904L59.2656 235.768C60.4049 235.396 61.1992 235.117 61.6484 234.928C61.8307 234.85 61.9479 234.811 62 234.811C62.013 234.856 62.0195 234.905 62.0195 234.957V241.969C62.0195 242.711 62.1074 243.176 62.2832 243.365C62.4655 243.554 62.8724 243.674 63.5039 243.727V244H58.7578V243.727ZM64.2949 243.727C64.7572 243.668 65.0794 243.554 65.2617 243.385C65.4505 243.209 65.5449 242.822 65.5449 242.223V237.271C65.5449 236.855 65.5059 236.562 65.4277 236.393C65.304 236.145 65.0501 236.021 64.666 236.021C64.6074 236.021 64.5456 236.025 64.4805 236.031C64.4219 236.038 64.347 236.048 64.2559 236.061V235.719C64.5228 235.641 65.1543 235.439 66.1504 235.113L67.0684 234.811C67.1139 234.811 67.14 234.827 67.1465 234.859C67.1595 234.892 67.166 234.938 67.166 234.996V236.432C67.765 235.872 68.2337 235.488 68.5723 235.279C69.0801 234.96 69.6074 234.801 70.1543 234.801C70.597 234.801 71.0007 234.928 71.3652 235.182C72.0684 235.676 72.4199 236.559 72.4199 237.828V242.389C72.4199 242.857 72.5143 243.196 72.7031 243.404C72.8919 243.613 73.2077 243.72 73.6504 243.727V244H69.4805V243.727C69.9557 243.661 70.2878 243.531 70.4766 243.336C70.6654 243.134 70.7598 242.701 70.7598 242.037V237.867C70.7598 237.307 70.6556 236.845 70.4473 236.48C70.2389 236.109 69.8548 235.924 69.2949 235.924C68.9108 235.924 68.5202 236.054 68.123 236.314C67.9017 236.464 67.6152 236.712 67.2637 237.057V242.525C67.2637 242.994 67.3678 243.31 67.5762 243.473C67.7845 243.629 68.1133 243.714 68.5625 243.727V244H64.2949V243.727ZM78.2305 234.928V235.23C77.8919 235.27 77.651 235.322 77.5078 235.387C77.3711 235.452 77.3027 235.595 77.3027 235.816C77.3027 235.921 77.3158 236.021 77.3418 236.119C77.3743 236.21 77.4264 236.347 77.498 236.529L79.5293 241.578L81.2871 237.105C81.3717 236.891 81.4499 236.666 81.5215 236.432C81.5996 236.197 81.6387 236.018 81.6387 235.895C81.6387 235.641 81.5182 235.458 81.2773 235.348C81.1341 235.289 80.9388 235.25 80.6914 235.23V234.928H83.4648V235.23C83.1458 235.257 82.9147 235.364 82.7715 235.553C82.6348 235.735 82.4329 236.161 82.166 236.832L79.3438 243.863C79.2917 243.987 79.2493 244.072 79.2168 244.117C79.1842 244.163 79.1387 244.186 79.0801 244.186C79.015 244.186 78.9596 244.146 78.9141 244.068C78.8685 243.997 78.8197 243.906 78.7676 243.795L75.7793 236.646C75.5384 236.067 75.2812 235.673 75.0078 235.465C74.8451 235.348 74.6074 235.27 74.2949 235.23V234.928H78.2305ZM88.5137 234.84C89.4316 234.84 90.2357 235.159 90.9258 235.797C91.6159 236.428 91.9609 237.327 91.9609 238.492H85.7598C85.8249 240.003 86.1667 241.103 86.7852 241.793C87.4036 242.483 88.1361 242.828 88.9824 242.828C89.666 242.828 90.2422 242.649 90.7109 242.291C91.1797 241.933 91.6126 241.425 92.0098 240.768L92.3516 240.885C92.0846 241.712 91.5833 242.477 90.8477 243.18C90.1185 243.883 89.2233 244.234 88.1621 244.234C86.9382 244.234 85.9909 243.772 85.3203 242.848C84.6562 241.923 84.3242 240.859 84.3242 239.654C84.3242 238.346 84.7116 237.216 85.4863 236.266C86.2611 235.315 87.2702 234.84 88.5137 234.84ZM87.9473 235.553C87.2051 235.553 86.6387 235.882 86.248 236.539C86.0397 236.891 85.89 237.333 85.7988 237.867H89.9199C89.8483 237.216 89.7246 236.731 89.5488 236.412C89.2298 235.839 88.696 235.553 87.9473 235.553ZM93.1816 243.727C93.6439 243.668 93.9661 243.554 94.1484 243.385C94.3372 243.209 94.4316 242.822 94.4316 242.223V237.271C94.4316 236.855 94.3926 236.562 94.3145 236.393C94.1908 236.145 93.9368 236.021 93.5527 236.021C93.4941 236.021 93.4323 236.025 93.3672 236.031C93.3086 236.038 93.2337 236.048 93.1426 236.061V235.719C93.4095 235.641 94.041 235.439 95.0371 235.113L95.9551 234.811C96.0007 234.811 96.0267 234.827 96.0332 234.859C96.0462 234.892 96.0527 234.938 96.0527 234.996V236.432C96.6517 235.872 97.1204 235.488 97.459 235.279C97.9668 234.96 98.4941 234.801 99.041 234.801C99.4837 234.801 99.8874 234.928 100.252 235.182C100.955 235.676 101.307 236.559 101.307 237.828V242.389C101.307 242.857 101.401 243.196 101.59 243.404C101.779 243.613 102.094 243.72 102.537 243.727V244H98.3672V243.727C98.8424 243.661 99.1745 243.531 99.3633 243.336C99.5521 243.134 99.6465 242.701 99.6465 242.037V237.867C99.6465 237.307 99.5423 236.845 99.334 236.48C99.1257 236.109 98.7415 235.924 98.1816 235.924C97.7975 235.924 97.4069 236.054 97.0098 236.314C96.7884 236.464 96.502 236.712 96.1504 237.057V242.525C96.1504 242.994 96.2546 243.31 96.4629 243.473C96.6712 243.629 97 243.714 97.4492 243.727V244H93.1816V243.727ZM107.908 234.996V235.699H105.916L105.896 241.324C105.896 241.819 105.939 242.193 106.023 242.447C106.18 242.896 106.486 243.121 106.941 243.121C107.176 243.121 107.378 243.066 107.547 242.955C107.723 242.844 107.921 242.669 108.143 242.428L108.396 242.643L108.182 242.936C107.843 243.391 107.485 243.714 107.107 243.902C106.73 244.091 106.365 244.186 106.014 244.186C105.245 244.186 104.725 243.844 104.451 243.16C104.301 242.789 104.227 242.275 104.227 241.617V235.699H103.162C103.13 235.68 103.104 235.66 103.084 235.641C103.071 235.621 103.064 235.595 103.064 235.562C103.064 235.497 103.077 235.449 103.104 235.416C103.136 235.377 103.23 235.292 103.387 235.162C103.836 234.791 104.158 234.492 104.354 234.264C104.555 234.029 105.024 233.417 105.76 232.428C105.844 232.428 105.893 232.434 105.906 232.447C105.926 232.46 105.936 232.509 105.936 232.594V234.996H107.908ZM108.895 239.469C108.895 238.173 109.305 237.079 110.125 236.188C110.952 235.289 112.013 234.84 113.309 234.84C114.598 234.84 115.665 235.263 116.512 236.109C117.358 236.956 117.781 238.082 117.781 239.488C117.781 240.784 117.371 241.91 116.551 242.867C115.73 243.824 114.669 244.303 113.367 244.303C112.117 244.303 111.059 243.844 110.193 242.926C109.327 242.008 108.895 240.855 108.895 239.469ZM113.035 235.426C112.521 235.426 112.075 235.595 111.697 235.934C111.046 236.526 110.721 237.548 110.721 239C110.721 240.159 110.981 241.24 111.502 242.242C112.029 243.245 112.758 243.746 113.689 243.746C114.419 243.746 114.979 243.411 115.369 242.74C115.766 242.07 115.965 241.191 115.965 240.104C115.965 238.977 115.714 237.916 115.213 236.92C114.712 235.924 113.986 235.426 113.035 235.426ZM118.475 243.678C119.074 243.626 119.471 243.521 119.666 243.365C119.861 243.202 119.959 242.861 119.959 242.34V237.936C119.959 237.291 119.897 236.832 119.773 236.559C119.656 236.279 119.438 236.139 119.119 236.139C119.054 236.139 118.966 236.148 118.855 236.168C118.751 236.181 118.641 236.201 118.523 236.227V235.904C118.895 235.774 119.275 235.641 119.666 235.504C120.057 235.367 120.327 235.27 120.477 235.211C120.802 235.087 121.137 234.947 121.482 234.791C121.528 234.791 121.554 234.807 121.561 234.84C121.574 234.872 121.58 234.941 121.58 235.045V236.646C121.997 236.067 122.397 235.615 122.781 235.289C123.172 234.964 123.576 234.801 123.992 234.801C124.324 234.801 124.594 234.902 124.803 235.104C125.011 235.299 125.115 235.546 125.115 235.846C125.115 236.113 125.034 236.337 124.871 236.52C124.715 236.702 124.516 236.793 124.275 236.793C124.028 236.793 123.777 236.679 123.523 236.451C123.276 236.223 123.081 236.109 122.938 236.109C122.71 236.109 122.43 236.295 122.098 236.666C121.766 237.031 121.6 237.408 121.6 237.799V242.203C121.6 242.763 121.73 243.154 121.99 243.375C122.251 243.59 122.684 243.691 123.289 243.678V244H118.475V243.678ZM125.32 235.025H129.441V235.328C129.116 235.335 128.875 235.364 128.719 235.416C128.419 235.501 128.27 235.667 128.27 235.914C128.27 236.005 128.286 236.1 128.318 236.197C128.351 236.288 128.41 236.428 128.494 236.617L130.779 241.686L132.615 236.578C132.635 236.526 132.664 236.409 132.703 236.227C132.749 236.044 132.771 235.921 132.771 235.855C132.771 235.686 132.713 235.562 132.596 235.484C132.479 235.406 132.329 235.361 132.146 235.348L131.844 235.328V235.025H134.529V235.328C134.262 235.361 134.061 235.452 133.924 235.602C133.794 235.751 133.68 235.96 133.582 236.227L130.506 244.371C129.972 245.777 129.461 246.796 128.973 247.428C128.484 248.059 127.866 248.375 127.117 248.375C126.753 248.375 126.411 248.284 126.092 248.102C125.773 247.919 125.613 247.63 125.613 247.232C125.613 246.972 125.708 246.757 125.896 246.588C126.092 246.425 126.336 246.344 126.629 246.344C126.798 246.344 127.049 246.406 127.381 246.529C127.719 246.653 127.96 246.715 128.104 246.715C128.468 246.715 128.852 246.292 129.256 245.445C129.66 244.599 129.861 244.033 129.861 243.746C129.861 243.688 129.852 243.616 129.832 243.531C129.812 243.447 129.79 243.372 129.764 243.307L126.639 236.549C126.417 236.067 126.222 235.751 126.053 235.602C125.89 235.445 125.646 235.344 125.32 235.299V235.025ZM141.688 231.393C141.688 231.113 141.785 230.872 141.98 230.67C142.176 230.468 142.417 230.367 142.703 230.367C142.983 230.367 143.221 230.468 143.416 230.67C143.618 230.865 143.719 231.106 143.719 231.393C143.719 231.673 143.618 231.913 143.416 232.115C143.221 232.311 142.983 232.408 142.703 232.408C142.417 232.408 142.176 232.311 141.98 232.115C141.785 231.913 141.688 231.673 141.688 231.393ZM140.438 243.727C141.134 243.661 141.574 243.544 141.756 243.375C141.938 243.199 142.029 242.73 142.029 241.969V237.311C142.029 236.887 142 236.594 141.941 236.432C141.844 236.165 141.639 236.031 141.326 236.031C141.255 236.031 141.183 236.038 141.111 236.051C141.046 236.064 140.851 236.116 140.525 236.207V235.904L140.945 235.768C142.085 235.396 142.879 235.117 143.328 234.928C143.51 234.85 143.628 234.811 143.68 234.811C143.693 234.856 143.699 234.905 143.699 234.957V241.969C143.699 242.711 143.787 243.176 143.963 243.365C144.145 243.554 144.552 243.674 145.184 243.727V244H140.438V243.727ZM146.648 240.924H146.971C147.12 241.666 147.322 242.236 147.576 242.633C148.032 243.362 148.699 243.727 149.578 243.727C150.066 243.727 150.451 243.593 150.73 243.326C151.017 243.053 151.16 242.701 151.16 242.271C151.16 241.998 151.079 241.734 150.916 241.48C150.753 241.227 150.467 240.979 150.057 240.738L148.963 240.113C148.162 239.684 147.573 239.251 147.195 238.814C146.818 238.378 146.629 237.864 146.629 237.271C146.629 236.542 146.889 235.943 147.41 235.475C147.931 235.006 148.585 234.771 149.373 234.771C149.718 234.771 150.096 234.837 150.506 234.967C150.923 235.097 151.157 235.162 151.209 235.162C151.326 235.162 151.411 235.146 151.463 235.113C151.515 235.081 151.561 235.029 151.6 234.957H151.834L151.902 237.682H151.6C151.469 237.05 151.294 236.559 151.072 236.207C150.669 235.556 150.086 235.23 149.324 235.23C148.868 235.23 148.51 235.37 148.25 235.65C147.99 235.93 147.859 236.259 147.859 236.637C147.859 237.236 148.309 237.77 149.207 238.238L150.496 238.932C151.883 239.687 152.576 240.566 152.576 241.568C152.576 242.337 152.286 242.965 151.707 243.453C151.134 243.941 150.382 244.186 149.451 244.186C149.061 244.186 148.618 244.12 148.123 243.99C147.628 243.86 147.335 243.795 147.244 243.795C147.166 243.795 147.098 243.824 147.039 243.883C146.98 243.935 146.935 244 146.902 244.078H146.648V240.924ZM158.494 243.678C159.093 243.626 159.49 243.521 159.686 243.365C159.881 243.202 159.979 242.861 159.979 242.34V237.936C159.979 237.291 159.917 236.832 159.793 236.559C159.676 236.279 159.458 236.139 159.139 236.139C159.074 236.139 158.986 236.148 158.875 236.168C158.771 236.181 158.66 236.201 158.543 236.227V235.904C158.914 235.774 159.295 235.641 159.686 235.504C160.076 235.367 160.346 235.27 160.496 235.211C160.822 235.087 161.157 234.947 161.502 234.791C161.548 234.791 161.574 234.807 161.58 234.84C161.593 234.872 161.6 234.941 161.6 235.045V236.646C162.016 236.067 162.417 235.615 162.801 235.289C163.191 234.964 163.595 234.801 164.012 234.801C164.344 234.801 164.614 234.902 164.822 235.104C165.031 235.299 165.135 235.546 165.135 235.846C165.135 236.113 165.053 236.337 164.891 236.52C164.734 236.702 164.536 236.793 164.295 236.793C164.048 236.793 163.797 236.679 163.543 236.451C163.296 236.223 163.1 236.109 162.957 236.109C162.729 236.109 162.449 236.295 162.117 236.666C161.785 237.031 161.619 237.408 161.619 237.799V242.203C161.619 242.763 161.749 243.154 162.01 243.375C162.27 243.59 162.703 243.691 163.309 243.678V244H158.494V243.678ZM168.162 234.957V241.207C168.162 241.65 168.224 242.005 168.348 242.271C168.589 242.766 169.031 243.014 169.676 243.014C170.118 243.014 170.551 242.867 170.975 242.574C171.215 242.411 171.46 242.187 171.707 241.9V236.549C171.707 236.048 171.609 235.719 171.414 235.562C171.219 235.406 170.828 235.312 170.242 235.279V234.957H173.396V241.832C173.396 242.275 173.475 242.581 173.631 242.75C173.794 242.913 174.132 242.984 174.646 242.965V243.238C174.288 243.336 174.025 243.411 173.855 243.463C173.686 243.508 173.403 243.596 173.006 243.727C172.837 243.785 172.465 243.925 171.893 244.146C171.86 244.146 171.84 244.13 171.834 244.098C171.827 244.072 171.824 244.039 171.824 244V242.428C171.382 242.955 170.978 243.346 170.613 243.6C170.06 243.99 169.474 244.186 168.855 244.186C168.289 244.186 167.755 243.984 167.254 243.58C166.746 243.183 166.492 242.516 166.492 241.578V236.51C166.492 235.989 166.382 235.641 166.16 235.465C166.017 235.354 165.711 235.276 165.242 235.23V234.957H168.162ZM175.428 243.727C175.89 243.668 176.212 243.554 176.395 243.385C176.583 243.209 176.678 242.822 176.678 242.223V237.271C176.678 236.855 176.639 236.562 176.561 236.393C176.437 236.145 176.183 236.021 175.799 236.021C175.74 236.021 175.678 236.025 175.613 236.031C175.555 236.038 175.48 236.048 175.389 236.061V235.719C175.656 235.641 176.287 235.439 177.283 235.113L178.201 234.811C178.247 234.811 178.273 234.827 178.279 234.859C178.292 234.892 178.299 234.938 178.299 234.996V236.432C178.898 235.872 179.367 235.488 179.705 235.279C180.213 234.96 180.74 234.801 181.287 234.801C181.73 234.801 182.133 234.928 182.498 235.182C183.201 235.676 183.553 236.559 183.553 237.828V242.389C183.553 242.857 183.647 243.196 183.836 243.404C184.025 243.613 184.34 243.72 184.783 243.727V244H180.613V243.727C181.089 243.661 181.421 243.531 181.609 243.336C181.798 243.134 181.893 242.701 181.893 242.037V237.867C181.893 237.307 181.788 236.845 181.58 236.48C181.372 236.109 180.988 235.924 180.428 235.924C180.044 235.924 179.653 236.054 179.256 236.314C179.035 236.464 178.748 236.712 178.396 237.057V242.525C178.396 242.994 178.501 243.31 178.709 243.473C178.917 243.629 179.246 243.714 179.695 243.727V244H175.428V243.727ZM185.428 243.727C185.89 243.668 186.212 243.554 186.395 243.385C186.583 243.209 186.678 242.822 186.678 242.223V237.271C186.678 236.855 186.639 236.562 186.561 236.393C186.437 236.145 186.183 236.021 185.799 236.021C185.74 236.021 185.678 236.025 185.613 236.031C185.555 236.038 185.48 236.048 185.389 236.061V235.719C185.656 235.641 186.287 235.439 187.283 235.113L188.201 234.811C188.247 234.811 188.273 234.827 188.279 234.859C188.292 234.892 188.299 234.938 188.299 234.996V236.432C188.898 235.872 189.367 235.488 189.705 235.279C190.213 234.96 190.74 234.801 191.287 234.801C191.73 234.801 192.133 234.928 192.498 235.182C193.201 235.676 193.553 236.559 193.553 237.828V242.389C193.553 242.857 193.647 243.196 193.836 243.404C194.025 243.613 194.34 243.72 194.783 243.727V244H190.613V243.727C191.089 243.661 191.421 243.531 191.609 243.336C191.798 243.134 191.893 242.701 191.893 242.037V237.867C191.893 237.307 191.788 236.845 191.58 236.48C191.372 236.109 190.988 235.924 190.428 235.924C190.044 235.924 189.653 236.054 189.256 236.314C189.035 236.464 188.748 236.712 188.396 237.057V242.525C188.396 242.994 188.501 243.31 188.709 243.473C188.917 243.629 189.246 243.714 189.695 243.727V244H185.428V243.727ZM196.707 231.393C196.707 231.113 196.805 230.872 197 230.67C197.195 230.468 197.436 230.367 197.723 230.367C198.003 230.367 198.24 230.468 198.436 230.67C198.637 230.865 198.738 231.106 198.738 231.393C198.738 231.673 198.637 231.913 198.436 232.115C198.24 232.311 198.003 232.408 197.723 232.408C197.436 232.408 197.195 232.311 197 232.115C196.805 231.913 196.707 231.673 196.707 231.393ZM195.457 243.727C196.154 243.661 196.593 243.544 196.775 243.375C196.958 243.199 197.049 242.73 197.049 241.969V237.311C197.049 236.887 197.02 236.594 196.961 236.432C196.863 236.165 196.658 236.031 196.346 236.031C196.274 236.031 196.202 236.038 196.131 236.051C196.066 236.064 195.87 236.116 195.545 236.207V235.904L195.965 235.768C197.104 235.396 197.898 235.117 198.348 234.928C198.53 234.85 198.647 234.811 198.699 234.811C198.712 234.856 198.719 234.905 198.719 234.957V241.969C198.719 242.711 198.807 243.176 198.982 243.365C199.165 243.554 199.572 243.674 200.203 243.727V244H195.457V243.727ZM200.994 243.727C201.456 243.668 201.779 243.554 201.961 243.385C202.15 243.209 202.244 242.822 202.244 242.223V237.271C202.244 236.855 202.205 236.562 202.127 236.393C202.003 236.145 201.749 236.021 201.365 236.021C201.307 236.021 201.245 236.025 201.18 236.031C201.121 236.038 201.046 236.048 200.955 236.061V235.719C201.222 235.641 201.854 235.439 202.85 235.113L203.768 234.811C203.813 234.811 203.839 234.827 203.846 234.859C203.859 234.892 203.865 234.938 203.865 234.996V236.432C204.464 235.872 204.933 235.488 205.271 235.279C205.779 234.96 206.307 234.801 206.854 234.801C207.296 234.801 207.7 234.928 208.064 235.182C208.768 235.676 209.119 236.559 209.119 237.828V242.389C209.119 242.857 209.214 243.196 209.402 243.404C209.591 243.613 209.907 243.72 210.35 243.727V244H206.18V243.727C206.655 243.661 206.987 243.531 207.176 243.336C207.365 243.134 207.459 242.701 207.459 242.037V237.867C207.459 237.307 207.355 236.845 207.146 236.48C206.938 236.109 206.554 235.924 205.994 235.924C205.61 235.924 205.219 236.054 204.822 236.314C204.601 236.464 204.314 236.712 203.963 237.057V242.525C203.963 242.994 204.067 243.31 204.275 243.473C204.484 243.629 204.812 243.714 205.262 243.727V244H200.994V243.727ZM212.596 245.807C212.596 246.354 212.902 246.731 213.514 246.939C214.132 247.148 214.839 247.252 215.633 247.252C216.714 247.252 217.592 247.063 218.27 246.686C218.947 246.314 219.285 245.855 219.285 245.309C219.285 244.872 219.012 244.583 218.465 244.439C218.126 244.355 217.485 244.306 216.541 244.293C216.3 244.286 216.046 244.277 215.779 244.264C215.512 244.257 215.268 244.247 215.047 244.234C214.904 244.228 214.673 244.202 214.354 244.156C214.035 244.111 213.797 244.072 213.641 244.039C213.562 244.039 213.37 244.244 213.064 244.654C212.752 245.071 212.596 245.455 212.596 245.807ZM213.865 240.719C213.273 240.523 212.811 240.175 212.479 239.674C212.153 239.173 211.99 238.609 211.99 237.984C211.99 237.223 212.293 236.5 212.898 235.816C213.504 235.133 214.36 234.791 215.467 234.791C215.942 234.791 216.466 234.905 217.039 235.133C217.612 235.354 218.162 235.465 218.689 235.465C218.826 235.465 219.031 235.462 219.305 235.455C219.585 235.442 219.786 235.436 219.91 235.436H220.027V236.227H218.338C218.455 236.5 218.546 236.738 218.611 236.939C218.722 237.317 218.777 237.675 218.777 238.014C218.777 238.756 218.468 239.439 217.85 240.064C217.238 240.683 216.411 240.992 215.369 240.992C215.206 240.992 214.913 240.963 214.49 240.904C214.301 240.904 214.051 241.064 213.738 241.383C213.432 241.702 213.279 241.962 213.279 242.164C213.279 242.372 213.507 242.525 213.963 242.623C214.262 242.688 214.594 242.721 214.959 242.721C216.632 242.721 217.768 242.815 218.367 243.004C219.35 243.31 219.842 243.967 219.842 244.977C219.842 246.005 219.266 246.826 218.113 247.438C216.967 248.049 215.809 248.355 214.637 248.355C213.569 248.355 212.723 248.137 212.098 247.701C211.473 247.271 211.16 246.819 211.16 246.344C211.16 246.109 211.242 245.878 211.404 245.65C211.574 245.429 211.902 245.097 212.391 244.654L213.035 244.078L213.152 243.961C212.853 243.844 212.628 243.73 212.479 243.619C212.218 243.417 212.088 243.186 212.088 242.926C212.088 242.685 212.199 242.421 212.42 242.135C212.648 241.842 213.13 241.37 213.865 240.719ZM215.721 240.523C216.079 240.523 216.378 240.426 216.619 240.23C217.01 239.918 217.205 239.374 217.205 238.6C217.205 237.981 217.046 237.285 216.727 236.51C216.414 235.735 215.89 235.348 215.154 235.348C214.516 235.348 214.077 235.65 213.836 236.256C213.712 236.575 213.65 236.969 213.65 237.438C213.65 238.232 213.842 238.945 214.227 239.576C214.611 240.208 215.109 240.523 215.721 240.523ZM127.225 262.469C127.225 261.173 127.635 260.079 128.455 259.188C129.282 258.289 130.343 257.84 131.639 257.84C132.928 257.84 133.995 258.263 134.842 259.109C135.688 259.956 136.111 261.082 136.111 262.488C136.111 263.784 135.701 264.91 134.881 265.867C134.061 266.824 132.999 267.303 131.697 267.303C130.447 267.303 129.389 266.844 128.523 265.926C127.658 265.008 127.225 263.855 127.225 262.469ZM131.365 258.426C130.851 258.426 130.405 258.595 130.027 258.934C129.376 259.526 129.051 260.548 129.051 262C129.051 263.159 129.311 264.24 129.832 265.242C130.359 266.245 131.089 266.746 132.02 266.746C132.749 266.746 133.309 266.411 133.699 265.74C134.096 265.07 134.295 264.191 134.295 263.104C134.295 261.977 134.044 260.916 133.543 259.92C133.042 258.924 132.316 258.426 131.365 258.426ZM139.812 257.957V264.207C139.812 264.65 139.874 265.005 139.998 265.271C140.239 265.766 140.682 266.014 141.326 266.014C141.769 266.014 142.202 265.867 142.625 265.574C142.866 265.411 143.11 265.187 143.357 264.9V259.549C143.357 259.048 143.26 258.719 143.064 258.562C142.869 258.406 142.479 258.312 141.893 258.279V257.957H145.047V264.832C145.047 265.275 145.125 265.581 145.281 265.75C145.444 265.913 145.783 265.984 146.297 265.965V266.238C145.939 266.336 145.675 266.411 145.506 266.463C145.337 266.508 145.053 266.596 144.656 266.727C144.487 266.785 144.116 266.925 143.543 267.146C143.51 267.146 143.491 267.13 143.484 267.098C143.478 267.072 143.475 267.039 143.475 267V265.428C143.032 265.955 142.628 266.346 142.264 266.6C141.71 266.99 141.124 267.186 140.506 267.186C139.939 267.186 139.406 266.984 138.904 266.58C138.396 266.183 138.143 265.516 138.143 264.578V259.51C138.143 258.989 138.032 258.641 137.811 258.465C137.667 258.354 137.361 258.276 136.893 258.23V257.957H139.812ZM151.805 257.996V258.699H149.812L149.793 264.324C149.793 264.819 149.835 265.193 149.92 265.447C150.076 265.896 150.382 266.121 150.838 266.121C151.072 266.121 151.274 266.066 151.443 265.955C151.619 265.844 151.818 265.669 152.039 265.428L152.293 265.643L152.078 265.936C151.74 266.391 151.382 266.714 151.004 266.902C150.626 267.091 150.262 267.186 149.91 267.186C149.142 267.186 148.621 266.844 148.348 266.16C148.198 265.789 148.123 265.275 148.123 264.617V258.699H147.059C147.026 258.68 147 258.66 146.98 258.641C146.967 258.621 146.961 258.595 146.961 258.562C146.961 258.497 146.974 258.449 147 258.416C147.033 258.377 147.127 258.292 147.283 258.162C147.732 257.791 148.055 257.492 148.25 257.264C148.452 257.029 148.921 256.417 149.656 255.428C149.741 255.428 149.79 255.434 149.803 255.447C149.822 255.46 149.832 255.509 149.832 255.594V257.996H151.805Z" fill="#FA5629"/>
</g>
<defs>
<filter id="filter0_ii_1_34" x="0" y="0" width="278" height="350" filterUnits="userSpaceOnUse" color-interpolation-filters="sRGB">
<feFlood flood-opacity="0" result="BackgroundImageFix"/>
<feBlend mode="normal" in="SourceGraphic" in2="BackgroundImageFix" result="shape"/>
<feColorMatrix in="SourceAlpha" type="matrix" values="0 0 0 0 0 0 0 0 0 0 0 0 0 0 0 0 0 0 127 0" result="hardAlpha"/>
<feOffset dy="4"/>
<feGaussianBlur stdDeviation="2"/>
<feComposite in2="hardAlpha" operator="arithmetic" k2="-1" k3="1"/>
<feColorMatrix type="matrix" values="0 0 0 0 0 0 0 0 0 0 0 0 0 0 0 0 0 0 0.25 0"/>
<feBlend mode="normal" in2="shape" result="effect1_innerShadow_1_34"/>
<feColorMatrix in="SourceAlpha" type="matrix" values="0 0 0 0 0 0 0 0 0 0 0 0 0 0 0 0 0 0 127 0" result="hardAlpha"/>
<feOffset dy="4"/>
<feGaussianBlur stdDeviation="2"/>
<feComposite in2="hardAlpha" operator="arithmetic" k2="-1" k3="1"/>
<feColorMatrix type="matrix" values="0 0 0 0 0 0 0 0 0 0 0 0 0 0 0 0 0 0 0.25 0"/>
<feBlend mode="normal" in2="effect1_innerShadow_1_34" result="effect2_innerShadow_1_34"/>
</filter>
</defs>
</svg>
