<svg width="278" height="346" viewBox="0 0 278 346" fill="none" xmlns="http://www.w3.org/2000/svg">
<g filter="url(#filter0_ii_1_35)">
<rect width="278" height="346" rx="29" fill="white"/>
<path d="M143.042 59C135.814 59 129.444 63.68 127.403 70.48C125.238 69.52 122.952 69 120.583 69C116.251 69 112.097 70.6857 109.034 73.6863C105.971 76.6869 104.25 80.7565 104.25 85C104.25 92.28 109.313 98.64 116.5 100.48V129H169.583V100.48C176.77 98.64 181.833 92.28 181.833 85C181.833 80.7565 180.113 76.6869 177.049 73.6863C173.986 70.6857 169.832 69 165.5 69C163.132 69 160.845 69.52 158.681 70.48C156.639 63.68 150.269 59 143.042 59ZM141 95H145.083V123H141V95ZM128.75 103H132.833V123H128.75V103ZM153.25 103H157.333V123H153.25V103ZM116.5 133V137C116.5 138.061 116.93 139.078 117.696 139.828C118.462 140.579 119.5 141 120.583 141H165.5C166.583 141 167.622 140.579 168.387 139.828C169.153 139.078 169.583 138.061 169.583 137V133H116.5Z" fill="#FA5629"/>
<path d="M73.8047 193.389C73.8047 195.492 74.2181 197.048 75.0449 198.057C75.8717 199.059 76.8874 199.561 78.0918 199.561C79.2702 199.561 80.276 199.072 81.1094 198.096C81.9492 197.113 82.3691 195.544 82.3691 193.389C82.3691 191.208 81.946 189.632 81.0996 188.662C80.2533 187.692 79.2507 187.207 78.0918 187.207C76.8939 187.207 75.8783 187.712 75.0449 188.721C74.2181 189.723 73.8047 191.279 73.8047 193.389ZM71.5391 193.389C71.5391 191.253 72.2096 189.541 73.5508 188.252C74.7812 187.074 76.2949 186.484 78.0918 186.484C79.8952 186.484 81.4121 187.077 82.6426 188.262C83.9772 189.544 84.6445 191.253 84.6445 193.389C84.6445 195.557 83.9544 197.282 82.5742 198.564C81.3372 199.71 79.8431 200.283 78.0918 200.283C76.2168 200.283 74.6608 199.648 73.4238 198.379C72.1673 197.083 71.5391 195.42 71.5391 193.389ZM88.4922 190.957V197.207C88.4922 197.65 88.554 198.005 88.6777 198.271C88.9186 198.766 89.3613 199.014 90.0059 199.014C90.4486 199.014 90.8815 198.867 91.3047 198.574C91.5456 198.411 91.7897 198.187 92.0371 197.9V192.549C92.0371 192.048 91.9395 191.719 91.7441 191.562C91.5488 191.406 91.1582 191.312 90.5723 191.279V190.957H93.7266V197.832C93.7266 198.275 93.8047 198.581 93.9609 198.75C94.1237 198.913 94.4622 198.984 94.9766 198.965V199.238C94.6185 199.336 94.3548 199.411 94.1855 199.463C94.0163 199.508 93.7331 199.596 93.3359 199.727C93.1667 199.785 92.7956 199.925 92.2227 200.146C92.1901 200.146 92.1706 200.13 92.1641 200.098C92.1576 200.072 92.1543 200.039 92.1543 200V198.428C91.7116 198.955 91.3079 199.346 90.9434 199.6C90.39 199.99 89.804 200.186 89.1855 200.186C88.6191 200.186 88.0853 199.984 87.584 199.58C87.0762 199.183 86.8223 198.516 86.8223 197.578V192.51C86.8223 191.989 86.7116 191.641 86.4902 191.465C86.347 191.354 86.041 191.276 85.5723 191.23V190.957H88.4922ZM95.4844 199.678C96.0833 199.626 96.4805 199.521 96.6758 199.365C96.8711 199.202 96.9688 198.861 96.9688 198.34V193.936C96.9688 193.291 96.9069 192.832 96.7832 192.559C96.666 192.279 96.4479 192.139 96.1289 192.139C96.0638 192.139 95.9759 192.148 95.8652 192.168C95.7611 192.181 95.6504 192.201 95.5332 192.227V191.904C95.9043 191.774 96.2852 191.641 96.6758 191.504C97.0664 191.367 97.3366 191.27 97.4863 191.211C97.8118 191.087 98.1471 190.947 98.4922 190.791C98.5378 190.791 98.5638 190.807 98.5703 190.84C98.5833 190.872 98.5898 190.941 98.5898 191.045V192.646C99.0065 192.067 99.4069 191.615 99.791 191.289C100.182 190.964 100.585 190.801 101.002 190.801C101.334 190.801 101.604 190.902 101.812 191.104C102.021 191.299 102.125 191.546 102.125 191.846C102.125 192.113 102.044 192.337 101.881 192.52C101.725 192.702 101.526 192.793 101.285 192.793C101.038 192.793 100.787 192.679 100.533 192.451C100.286 192.223 100.09 192.109 99.9473 192.109C99.7194 192.109 99.4395 192.295 99.1074 192.666C98.7754 193.031 98.6094 193.408 98.6094 193.799V198.203C98.6094 198.763 98.7396 199.154 99 199.375C99.2604 199.59 99.6934 199.691 100.299 199.678V200H95.4844V199.678ZM107.145 199.678C107.743 199.626 108.141 199.521 108.336 199.365C108.531 199.202 108.629 198.861 108.629 198.34V193.936C108.629 193.291 108.567 192.832 108.443 192.559C108.326 192.279 108.108 192.139 107.789 192.139C107.724 192.139 107.636 192.148 107.525 192.168C107.421 192.181 107.311 192.201 107.193 192.227V191.904C107.564 191.774 107.945 191.641 108.336 191.504C108.727 191.367 108.997 191.27 109.146 191.211C109.472 191.087 109.807 190.947 110.152 190.791C110.198 190.791 110.224 190.807 110.23 190.84C110.243 190.872 110.25 190.941 110.25 191.045V192.646C110.667 192.067 111.067 191.615 111.451 191.289C111.842 190.964 112.245 190.801 112.662 190.801C112.994 190.801 113.264 190.902 113.473 191.104C113.681 191.299 113.785 191.546 113.785 191.846C113.785 192.113 113.704 192.337 113.541 192.52C113.385 192.702 113.186 192.793 112.945 192.793C112.698 192.793 112.447 192.679 112.193 192.451C111.946 192.223 111.751 192.109 111.607 192.109C111.38 192.109 111.1 192.295 110.768 192.666C110.436 193.031 110.27 193.408 110.27 193.799V198.203C110.27 198.763 110.4 199.154 110.66 199.375C110.921 199.59 111.354 199.691 111.959 199.678V200H107.145V199.678ZM118.297 190.84C119.215 190.84 120.019 191.159 120.709 191.797C121.399 192.428 121.744 193.327 121.744 194.492H115.543C115.608 196.003 115.95 197.103 116.568 197.793C117.187 198.483 117.919 198.828 118.766 198.828C119.449 198.828 120.025 198.649 120.494 198.291C120.963 197.933 121.396 197.425 121.793 196.768L122.135 196.885C121.868 197.712 121.367 198.477 120.631 199.18C119.902 199.883 119.007 200.234 117.945 200.234C116.721 200.234 115.774 199.772 115.104 198.848C114.439 197.923 114.107 196.859 114.107 195.654C114.107 194.346 114.495 193.216 115.27 192.266C116.044 191.315 117.053 190.84 118.297 190.84ZM117.73 191.553C116.988 191.553 116.422 191.882 116.031 192.539C115.823 192.891 115.673 193.333 115.582 193.867H119.703C119.632 193.216 119.508 192.731 119.332 192.412C119.013 191.839 118.479 191.553 117.73 191.553ZM127.574 190.791C128.388 190.791 129.088 191.003 129.674 191.426C130.266 191.842 130.562 192.301 130.562 192.803C130.562 193.018 130.488 193.219 130.338 193.408C130.188 193.59 129.957 193.682 129.645 193.682C129.417 193.682 129.215 193.604 129.039 193.447C128.87 193.291 128.746 193.063 128.668 192.764L128.551 192.295C128.466 191.95 128.32 191.706 128.111 191.562C127.896 191.426 127.613 191.357 127.262 191.357C126.52 191.357 125.891 191.683 125.377 192.334C124.869 192.979 124.615 193.838 124.615 194.912C124.615 195.895 124.895 196.777 125.455 197.559C126.021 198.34 126.783 198.73 127.74 198.73C128.417 198.73 129.02 198.509 129.547 198.066C129.846 197.812 130.185 197.409 130.562 196.855L130.836 197.021C130.465 197.803 130.074 198.421 129.664 198.877C128.876 199.749 127.965 200.186 126.93 200.186C125.914 200.186 125.016 199.785 124.234 198.984C123.453 198.184 123.062 197.096 123.062 195.723C123.062 194.375 123.489 193.216 124.342 192.246C125.195 191.276 126.272 190.791 127.574 190.791ZM133.131 187.393C133.131 187.113 133.229 186.872 133.424 186.67C133.619 186.468 133.86 186.367 134.146 186.367C134.426 186.367 134.664 186.468 134.859 186.67C135.061 186.865 135.162 187.106 135.162 187.393C135.162 187.673 135.061 187.913 134.859 188.115C134.664 188.311 134.426 188.408 134.146 188.408C133.86 188.408 133.619 188.311 133.424 188.115C133.229 187.913 133.131 187.673 133.131 187.393ZM131.881 199.727C132.577 199.661 133.017 199.544 133.199 199.375C133.382 199.199 133.473 198.73 133.473 197.969V193.311C133.473 192.887 133.443 192.594 133.385 192.432C133.287 192.165 133.082 192.031 132.77 192.031C132.698 192.031 132.626 192.038 132.555 192.051C132.49 192.064 132.294 192.116 131.969 192.207V191.904L132.389 191.768C133.528 191.396 134.322 191.117 134.771 190.928C134.954 190.85 135.071 190.811 135.123 190.811C135.136 190.856 135.143 190.905 135.143 190.957V197.969C135.143 198.711 135.23 199.176 135.406 199.365C135.589 199.554 135.995 199.674 136.627 199.727V200H131.881V199.727ZM140.25 198.203C140.419 198.646 140.67 198.978 141.002 199.199C141.34 199.414 141.738 199.521 142.193 199.521C142.896 199.521 143.495 199.173 143.99 198.477C144.492 197.773 144.742 196.797 144.742 195.547C144.742 194.349 144.482 193.454 143.961 192.861C143.447 192.269 142.848 191.973 142.164 191.973C141.682 191.973 141.243 192.122 140.846 192.422C140.449 192.715 140.25 193.005 140.25 193.291V198.203ZM137.145 204.033C137.757 203.994 138.144 203.864 138.307 203.643C138.476 203.421 138.561 203.073 138.561 202.598V193.223C138.561 192.728 138.499 192.412 138.375 192.275C138.258 192.132 138.033 192.061 137.701 192.061C137.63 192.061 137.561 192.064 137.496 192.07C137.438 192.077 137.35 192.09 137.232 192.109V191.787L138.16 191.484C138.193 191.478 138.847 191.253 140.123 190.811C140.156 190.811 140.178 190.827 140.191 190.859C140.211 190.885 140.221 190.918 140.221 190.957V192.275C140.65 191.846 141.028 191.527 141.354 191.318C141.939 190.954 142.542 190.771 143.16 190.771C144.059 190.771 144.83 191.156 145.475 191.924C146.126 192.686 146.451 193.73 146.451 195.059C146.451 196.361 146.061 197.542 145.279 198.604C144.505 199.665 143.528 200.195 142.35 200.195C141.985 200.195 141.669 200.15 141.402 200.059C140.986 199.922 140.602 199.671 140.25 199.307V202.5C140.25 203.158 140.357 203.561 140.572 203.711C140.787 203.861 141.256 203.962 141.979 204.014V204.355H137.145V204.033ZM151.637 190.84C152.555 190.84 153.359 191.159 154.049 191.797C154.739 192.428 155.084 193.327 155.084 194.492H148.883C148.948 196.003 149.29 197.103 149.908 197.793C150.527 198.483 151.259 198.828 152.105 198.828C152.789 198.828 153.365 198.649 153.834 198.291C154.303 197.933 154.736 197.425 155.133 196.768L155.475 196.885C155.208 197.712 154.706 198.477 153.971 199.18C153.242 199.883 152.346 200.234 151.285 200.234C150.061 200.234 149.114 199.772 148.443 198.848C147.779 197.923 147.447 196.859 147.447 195.654C147.447 194.346 147.835 193.216 148.609 192.266C149.384 191.315 150.393 190.84 151.637 190.84ZM151.07 191.553C150.328 191.553 149.762 191.882 149.371 192.539C149.163 192.891 149.013 193.333 148.922 193.867H153.043C152.971 193.216 152.848 192.731 152.672 192.412C152.353 191.839 151.819 191.553 151.07 191.553ZM161.979 196.924H162.301C162.451 197.666 162.652 198.236 162.906 198.633C163.362 199.362 164.029 199.727 164.908 199.727C165.396 199.727 165.781 199.593 166.061 199.326C166.347 199.053 166.49 198.701 166.49 198.271C166.49 197.998 166.409 197.734 166.246 197.48C166.083 197.227 165.797 196.979 165.387 196.738L164.293 196.113C163.492 195.684 162.903 195.251 162.525 194.814C162.148 194.378 161.959 193.864 161.959 193.271C161.959 192.542 162.219 191.943 162.74 191.475C163.261 191.006 163.915 190.771 164.703 190.771C165.048 190.771 165.426 190.837 165.836 190.967C166.253 191.097 166.487 191.162 166.539 191.162C166.656 191.162 166.741 191.146 166.793 191.113C166.845 191.081 166.891 191.029 166.93 190.957H167.164L167.232 193.682H166.93C166.799 193.05 166.624 192.559 166.402 192.207C165.999 191.556 165.416 191.23 164.654 191.23C164.199 191.23 163.84 191.37 163.58 191.65C163.32 191.93 163.189 192.259 163.189 192.637C163.189 193.236 163.639 193.77 164.537 194.238L165.826 194.932C167.213 195.687 167.906 196.566 167.906 197.568C167.906 198.337 167.617 198.965 167.037 199.453C166.464 199.941 165.712 200.186 164.781 200.186C164.391 200.186 163.948 200.12 163.453 199.99C162.958 199.86 162.665 199.795 162.574 199.795C162.496 199.795 162.428 199.824 162.369 199.883C162.311 199.935 162.265 200 162.232 200.078H161.979V196.924ZM173.316 190.84C174.234 190.84 175.038 191.159 175.729 191.797C176.419 192.428 176.764 193.327 176.764 194.492H170.562C170.628 196.003 170.969 197.103 171.588 197.793C172.206 198.483 172.939 198.828 173.785 198.828C174.469 198.828 175.045 198.649 175.514 198.291C175.982 197.933 176.415 197.425 176.812 196.768L177.154 196.885C176.887 197.712 176.386 198.477 175.65 199.18C174.921 199.883 174.026 200.234 172.965 200.234C171.741 200.234 170.794 199.772 170.123 198.848C169.459 197.923 169.127 196.859 169.127 195.654C169.127 194.346 169.514 193.216 170.289 192.266C171.064 191.315 172.073 190.84 173.316 190.84ZM172.75 191.553C172.008 191.553 171.441 191.882 171.051 192.539C170.842 192.891 170.693 193.333 170.602 193.867H174.723C174.651 193.216 174.527 192.731 174.352 192.412C174.033 191.839 173.499 191.553 172.75 191.553ZM183.355 194.59C182.607 194.837 181.988 195.111 181.5 195.41C180.562 195.99 180.094 196.647 180.094 197.383C180.094 197.975 180.289 198.411 180.68 198.691C180.934 198.874 181.217 198.965 181.529 198.965C181.959 198.965 182.369 198.844 182.76 198.604C183.157 198.363 183.355 198.057 183.355 197.686V194.59ZM178.355 198.057C178.355 197.113 178.827 196.325 179.771 195.693C180.37 195.303 181.565 194.772 183.355 194.102V193.271C183.355 192.607 183.29 192.145 183.16 191.885C182.939 191.449 182.48 191.23 181.783 191.23C181.451 191.23 181.135 191.315 180.836 191.484C180.536 191.66 180.387 191.901 180.387 192.207C180.387 192.285 180.403 192.419 180.436 192.607C180.468 192.79 180.484 192.907 180.484 192.959C180.484 193.324 180.364 193.577 180.123 193.721C179.986 193.805 179.824 193.848 179.635 193.848C179.342 193.848 179.117 193.753 178.961 193.564C178.805 193.369 178.727 193.154 178.727 192.92C178.727 192.464 179.007 191.989 179.566 191.494C180.133 190.993 180.96 190.742 182.047 190.742C183.31 190.742 184.166 191.152 184.615 191.973C184.856 192.422 184.977 193.076 184.977 193.936V197.852C184.977 198.229 185.003 198.49 185.055 198.633C185.139 198.887 185.315 199.014 185.582 199.014C185.732 199.014 185.855 198.991 185.953 198.945C186.051 198.9 186.22 198.789 186.461 198.613V199.121C186.253 199.375 186.028 199.583 185.787 199.746C185.423 199.993 185.051 200.117 184.674 200.117C184.231 200.117 183.909 199.974 183.707 199.688C183.512 199.401 183.404 199.059 183.385 198.662C182.89 199.092 182.467 199.411 182.115 199.619C181.523 199.971 180.96 200.146 180.426 200.146C179.866 200.146 179.381 199.951 178.971 199.561C178.561 199.163 178.355 198.662 178.355 198.057ZM186.598 199.678C187.197 199.626 187.594 199.521 187.789 199.365C187.984 199.202 188.082 198.861 188.082 198.34V193.936C188.082 193.291 188.02 192.832 187.896 192.559C187.779 192.279 187.561 192.139 187.242 192.139C187.177 192.139 187.089 192.148 186.979 192.168C186.874 192.181 186.764 192.201 186.646 192.227V191.904C187.018 191.774 187.398 191.641 187.789 191.504C188.18 191.367 188.45 191.27 188.6 191.211C188.925 191.087 189.26 190.947 189.605 190.791C189.651 190.791 189.677 190.807 189.684 190.84C189.697 190.872 189.703 190.941 189.703 191.045V192.646C190.12 192.067 190.52 191.615 190.904 191.289C191.295 190.964 191.699 190.801 192.115 190.801C192.447 190.801 192.717 190.902 192.926 191.104C193.134 191.299 193.238 191.546 193.238 191.846C193.238 192.113 193.157 192.337 192.994 192.52C192.838 192.702 192.639 192.793 192.398 192.793C192.151 192.793 191.9 192.679 191.646 192.451C191.399 192.223 191.204 192.109 191.061 192.109C190.833 192.109 190.553 192.295 190.221 192.666C189.889 193.031 189.723 193.408 189.723 193.799V198.203C189.723 198.763 189.853 199.154 190.113 199.375C190.374 199.59 190.807 199.691 191.412 199.678V200H186.598V199.678ZM198.141 190.791C198.954 190.791 199.654 191.003 200.24 191.426C200.833 191.842 201.129 192.301 201.129 192.803C201.129 193.018 201.054 193.219 200.904 193.408C200.755 193.59 200.523 193.682 200.211 193.682C199.983 193.682 199.781 193.604 199.605 193.447C199.436 193.291 199.312 193.063 199.234 192.764L199.117 192.295C199.033 191.95 198.886 191.706 198.678 191.562C198.463 191.426 198.18 191.357 197.828 191.357C197.086 191.357 196.458 191.683 195.943 192.334C195.436 192.979 195.182 193.838 195.182 194.912C195.182 195.895 195.462 196.777 196.021 197.559C196.588 198.34 197.35 198.73 198.307 198.73C198.984 198.73 199.586 198.509 200.113 198.066C200.413 197.812 200.751 197.409 201.129 196.855L201.402 197.021C201.031 197.803 200.641 198.421 200.23 198.877C199.443 199.749 198.531 200.186 197.496 200.186C196.48 200.186 195.582 199.785 194.801 198.984C194.02 198.184 193.629 197.096 193.629 195.723C193.629 194.375 194.055 193.216 194.908 192.246C195.761 191.276 196.839 190.791 198.141 190.791ZM202.232 199.727C202.766 199.655 203.115 199.525 203.277 199.336C203.447 199.141 203.531 198.685 203.531 197.969V188.594C203.531 188.229 203.482 187.962 203.385 187.793C203.294 187.617 203.066 187.529 202.701 187.529C202.63 187.529 202.558 187.536 202.486 187.549C202.421 187.555 202.346 187.565 202.262 187.578V187.227C202.548 187.142 202.9 187.041 203.316 186.924C203.74 186.8 204.033 186.712 204.195 186.66L205.133 186.367L205.152 186.436V192.432C205.562 191.963 205.927 191.618 206.246 191.396C206.819 191.006 207.438 190.811 208.102 190.811C209.156 190.811 209.876 191.253 210.26 192.139C210.468 192.607 210.572 193.223 210.572 193.984V197.969C210.572 198.659 210.65 199.108 210.807 199.316C210.969 199.525 211.298 199.661 211.793 199.727V200H207.564V199.727C208.131 199.648 208.495 199.515 208.658 199.326C208.821 199.137 208.902 198.685 208.902 197.969V194.014C208.902 193.382 208.795 192.871 208.58 192.48C208.372 192.09 207.975 191.895 207.389 191.895C206.881 191.895 206.389 192.077 205.914 192.441C205.439 192.806 205.201 193.044 205.201 193.154V197.969C205.201 198.698 205.286 199.154 205.455 199.336C205.624 199.518 205.986 199.648 206.539 199.727V200H202.232V199.727ZM51.8516 222.727C52.5417 222.694 52.9941 222.567 53.209 222.346C53.4303 222.118 53.541 221.643 53.541 220.92V214.65H51.8711V213.996H53.541C53.541 212.967 53.681 212.098 53.9609 211.389C54.4948 210.028 55.4746 209.348 56.9004 209.348C57.4733 209.348 57.9844 209.462 58.4336 209.689C58.8893 209.917 59.1172 210.223 59.1172 210.607C59.1172 210.822 59.0391 211.014 58.8828 211.184C58.7266 211.353 58.5378 211.438 58.3164 211.438C58.1276 211.438 57.9648 211.382 57.8281 211.271C57.6914 211.154 57.5286 210.952 57.3398 210.666L57.1738 210.412C57.0827 210.275 56.9753 210.161 56.8516 210.07C56.7279 209.973 56.5553 209.924 56.334 209.924C55.8392 209.924 55.5039 210.168 55.3281 210.656C55.2305 210.917 55.1816 211.258 55.1816 211.682V213.996H57.6328V214.65H55.2012V220.92C55.2012 221.656 55.2988 222.128 55.4941 222.336C55.696 222.538 56.2168 222.668 57.0566 222.727V223H51.8516V222.727ZM62.7012 213.84C63.6191 213.84 64.4232 214.159 65.1133 214.797C65.8034 215.428 66.1484 216.327 66.1484 217.492H59.9473C60.0124 219.003 60.3542 220.103 60.9727 220.793C61.5911 221.483 62.3236 221.828 63.1699 221.828C63.8535 221.828 64.4297 221.649 64.8984 221.291C65.3672 220.933 65.8001 220.425 66.1973 219.768L66.5391 219.885C66.2721 220.712 65.7708 221.477 65.0352 222.18C64.306 222.883 63.4108 223.234 62.3496 223.234C61.1257 223.234 60.1784 222.772 59.5078 221.848C58.8438 220.923 58.5117 219.859 58.5117 218.654C58.5117 217.346 58.8991 216.216 59.6738 215.266C60.4486 214.315 61.4577 213.84 62.7012 213.84ZM62.1348 214.553C61.3926 214.553 60.8262 214.882 60.4355 215.539C60.2272 215.891 60.0775 216.333 59.9863 216.867H64.1074C64.0358 216.216 63.9121 215.731 63.7363 215.412C63.4173 214.839 62.8835 214.553 62.1348 214.553ZM72.7402 217.59C71.9915 217.837 71.373 218.111 70.8848 218.41C69.9473 218.99 69.4785 219.647 69.4785 220.383C69.4785 220.975 69.6738 221.411 70.0645 221.691C70.3184 221.874 70.6016 221.965 70.9141 221.965C71.3438 221.965 71.7539 221.844 72.1445 221.604C72.5417 221.363 72.7402 221.057 72.7402 220.686V217.59ZM67.7402 221.057C67.7402 220.113 68.2122 219.325 69.1562 218.693C69.7552 218.303 70.9499 217.772 72.7402 217.102V216.271C72.7402 215.607 72.6751 215.145 72.5449 214.885C72.3236 214.449 71.8646 214.23 71.168 214.23C70.8359 214.23 70.5202 214.315 70.2207 214.484C69.9212 214.66 69.7715 214.901 69.7715 215.207C69.7715 215.285 69.7878 215.419 69.8203 215.607C69.8529 215.79 69.8691 215.907 69.8691 215.959C69.8691 216.324 69.7487 216.577 69.5078 216.721C69.3711 216.805 69.2083 216.848 69.0195 216.848C68.7266 216.848 68.502 216.753 68.3457 216.564C68.1895 216.369 68.1113 216.154 68.1113 215.92C68.1113 215.464 68.3913 214.989 68.9512 214.494C69.5176 213.993 70.3444 213.742 71.4316 213.742C72.6947 213.742 73.5508 214.152 74 214.973C74.2409 215.422 74.3613 216.076 74.3613 216.936V220.852C74.3613 221.229 74.3874 221.49 74.4395 221.633C74.5241 221.887 74.6999 222.014 74.9668 222.014C75.1165 222.014 75.2402 221.991 75.3379 221.945C75.4355 221.9 75.6048 221.789 75.8457 221.613V222.121C75.6374 222.375 75.4128 222.583 75.1719 222.746C74.8073 222.993 74.4362 223.117 74.0586 223.117C73.6159 223.117 73.2936 222.974 73.0918 222.688C72.8965 222.401 72.7891 222.059 72.7695 221.662C72.2747 222.092 71.8516 222.411 71.5 222.619C70.9076 222.971 70.3444 223.146 69.8105 223.146C69.2507 223.146 68.7656 222.951 68.3555 222.561C67.9453 222.163 67.7402 221.662 67.7402 221.057ZM80.9824 213.996V214.699H78.9902L78.9707 220.324C78.9707 220.819 79.013 221.193 79.0977 221.447C79.2539 221.896 79.5599 222.121 80.0156 222.121C80.25 222.121 80.4518 222.066 80.6211 221.955C80.7969 221.844 80.9954 221.669 81.2168 221.428L81.4707 221.643L81.2559 221.936C80.9173 222.391 80.5592 222.714 80.1816 222.902C79.804 223.091 79.4395 223.186 79.0879 223.186C78.3197 223.186 77.7988 222.844 77.5254 222.16C77.3757 221.789 77.3008 221.275 77.3008 220.617V214.699H76.2363C76.2038 214.68 76.1777 214.66 76.1582 214.641C76.1452 214.621 76.1387 214.595 76.1387 214.562C76.1387 214.497 76.1517 214.449 76.1777 214.416C76.2103 214.377 76.3047 214.292 76.4609 214.162C76.9102 213.791 77.2324 213.492 77.4277 213.264C77.6296 213.029 78.0983 212.417 78.834 211.428C78.9186 211.428 78.9674 211.434 78.9805 211.447C79 211.46 79.0098 211.509 79.0098 211.594V213.996H80.9824ZM84.5566 213.957V220.207C84.5566 220.65 84.6185 221.005 84.7422 221.271C84.9831 221.766 85.4258 222.014 86.0703 222.014C86.513 222.014 86.946 221.867 87.3691 221.574C87.61 221.411 87.8542 221.187 88.1016 220.9V215.549C88.1016 215.048 88.0039 214.719 87.8086 214.562C87.6133 214.406 87.2227 214.312 86.6367 214.279V213.957H89.791V220.832C89.791 221.275 89.8691 221.581 90.0254 221.75C90.1882 221.913 90.5267 221.984 91.041 221.965V222.238C90.6829 222.336 90.4193 222.411 90.25 222.463C90.0807 222.508 89.7975 222.596 89.4004 222.727C89.2311 222.785 88.86 222.925 88.2871 223.146C88.2546 223.146 88.235 223.13 88.2285 223.098C88.222 223.072 88.2188 223.039 88.2188 223V221.428C87.776 221.955 87.3724 222.346 87.0078 222.6C86.4544 222.99 85.8685 223.186 85.25 223.186C84.6836 223.186 84.1497 222.984 83.6484 222.58C83.1406 222.183 82.8867 221.516 82.8867 220.578V215.51C82.8867 214.989 82.776 214.641 82.5547 214.465C82.4115 214.354 82.1055 214.276 81.6367 214.23V213.957H84.5566ZM91.5488 222.678C92.1478 222.626 92.5449 222.521 92.7402 222.365C92.9355 222.202 93.0332 221.861 93.0332 221.34V216.936C93.0332 216.291 92.9714 215.832 92.8477 215.559C92.7305 215.279 92.5124 215.139 92.1934 215.139C92.1283 215.139 92.0404 215.148 91.9297 215.168C91.8255 215.181 91.7148 215.201 91.5977 215.227V214.904C91.9688 214.774 92.3496 214.641 92.7402 214.504C93.1309 214.367 93.401 214.27 93.5508 214.211C93.8763 214.087 94.2116 213.947 94.5566 213.791C94.6022 213.791 94.6283 213.807 94.6348 213.84C94.6478 213.872 94.6543 213.941 94.6543 214.045V215.646C95.071 215.067 95.4714 214.615 95.8555 214.289C96.2461 213.964 96.6497 213.801 97.0664 213.801C97.3984 213.801 97.6686 213.902 97.877 214.104C98.0853 214.299 98.1895 214.546 98.1895 214.846C98.1895 215.113 98.1081 215.337 97.9453 215.52C97.7891 215.702 97.5905 215.793 97.3496 215.793C97.1022 215.793 96.8516 215.679 96.5977 215.451C96.3503 215.223 96.1549 215.109 96.0117 215.109C95.7839 215.109 95.5039 215.295 95.1719 215.666C94.8398 216.031 94.6738 216.408 94.6738 216.799V221.203C94.6738 221.763 94.804 222.154 95.0645 222.375C95.3249 222.59 95.7578 222.691 96.3633 222.678V223H91.5488V222.678ZM102.701 213.84C103.619 213.84 104.423 214.159 105.113 214.797C105.803 215.428 106.148 216.327 106.148 217.492H99.9473C100.012 219.003 100.354 220.103 100.973 220.793C101.591 221.483 102.324 221.828 103.17 221.828C103.854 221.828 104.43 221.649 104.898 221.291C105.367 220.933 105.8 220.425 106.197 219.768L106.539 219.885C106.272 220.712 105.771 221.477 105.035 222.18C104.306 222.883 103.411 223.234 102.35 223.234C101.126 223.234 100.178 222.772 99.5078 221.848C98.8438 220.923 98.5117 219.859 98.5117 218.654C98.5117 217.346 98.8991 216.216 99.6738 215.266C100.449 214.315 101.458 213.84 102.701 213.84ZM102.135 214.553C101.393 214.553 100.826 214.882 100.436 215.539C100.227 215.891 100.077 216.333 99.9863 216.867H104.107C104.036 216.216 103.912 215.731 103.736 215.412C103.417 214.839 102.883 214.553 102.135 214.553ZM113.043 219.924H113.365C113.515 220.666 113.717 221.236 113.971 221.633C114.426 222.362 115.094 222.727 115.973 222.727C116.461 222.727 116.845 222.593 117.125 222.326C117.411 222.053 117.555 221.701 117.555 221.271C117.555 220.998 117.473 220.734 117.311 220.48C117.148 220.227 116.861 219.979 116.451 219.738L115.357 219.113C114.557 218.684 113.967 218.251 113.59 217.814C113.212 217.378 113.023 216.864 113.023 216.271C113.023 215.542 113.284 214.943 113.805 214.475C114.326 214.006 114.98 213.771 115.768 213.771C116.113 213.771 116.49 213.837 116.9 213.967C117.317 214.097 117.551 214.162 117.604 214.162C117.721 214.162 117.805 214.146 117.857 214.113C117.91 214.081 117.955 214.029 117.994 213.957H118.229L118.297 216.682H117.994C117.864 216.05 117.688 215.559 117.467 215.207C117.063 214.556 116.48 214.23 115.719 214.23C115.263 214.23 114.905 214.37 114.645 214.65C114.384 214.93 114.254 215.259 114.254 215.637C114.254 216.236 114.703 216.77 115.602 217.238L116.891 217.932C118.277 218.687 118.971 219.566 118.971 220.568C118.971 221.337 118.681 221.965 118.102 222.453C117.529 222.941 116.777 223.186 115.846 223.186C115.455 223.186 115.012 223.12 114.518 222.99C114.023 222.86 113.73 222.795 113.639 222.795C113.561 222.795 113.492 222.824 113.434 222.883C113.375 222.935 113.329 223 113.297 223.078H113.043V219.924ZM122.896 213.957V220.207C122.896 220.65 122.958 221.005 123.082 221.271C123.323 221.766 123.766 222.014 124.41 222.014C124.853 222.014 125.286 221.867 125.709 221.574C125.95 221.411 126.194 221.187 126.441 220.9V215.549C126.441 215.048 126.344 214.719 126.148 214.562C125.953 214.406 125.562 214.312 124.977 214.279V213.957H128.131V220.832C128.131 221.275 128.209 221.581 128.365 221.75C128.528 221.913 128.867 221.984 129.381 221.965V222.238C129.023 222.336 128.759 222.411 128.59 222.463C128.421 222.508 128.137 222.596 127.74 222.727C127.571 222.785 127.2 222.925 126.627 223.146C126.594 223.146 126.575 223.13 126.568 223.098C126.562 223.072 126.559 223.039 126.559 223V221.428C126.116 221.955 125.712 222.346 125.348 222.6C124.794 222.99 124.208 223.186 123.59 223.186C123.023 223.186 122.49 222.984 121.988 222.58C121.48 222.183 121.227 221.516 121.227 220.578V215.51C121.227 214.989 121.116 214.641 120.895 214.465C120.751 214.354 120.445 214.276 119.977 214.23V213.957H122.896ZM131.764 224.807C131.764 225.354 132.07 225.731 132.682 225.939C133.3 226.148 134.007 226.252 134.801 226.252C135.882 226.252 136.76 226.063 137.438 225.686C138.115 225.314 138.453 224.855 138.453 224.309C138.453 223.872 138.18 223.583 137.633 223.439C137.294 223.355 136.653 223.306 135.709 223.293C135.468 223.286 135.214 223.277 134.947 223.264C134.68 223.257 134.436 223.247 134.215 223.234C134.072 223.228 133.84 223.202 133.521 223.156C133.202 223.111 132.965 223.072 132.809 223.039C132.73 223.039 132.538 223.244 132.232 223.654C131.92 224.071 131.764 224.455 131.764 224.807ZM133.033 219.719C132.441 219.523 131.979 219.175 131.646 218.674C131.321 218.173 131.158 217.609 131.158 216.984C131.158 216.223 131.461 215.5 132.066 214.816C132.672 214.133 133.528 213.791 134.635 213.791C135.11 213.791 135.634 213.905 136.207 214.133C136.78 214.354 137.33 214.465 137.857 214.465C137.994 214.465 138.199 214.462 138.473 214.455C138.753 214.442 138.954 214.436 139.078 214.436H139.195V215.227H137.506C137.623 215.5 137.714 215.738 137.779 215.939C137.89 216.317 137.945 216.675 137.945 217.014C137.945 217.756 137.636 218.439 137.018 219.064C136.406 219.683 135.579 219.992 134.537 219.992C134.374 219.992 134.081 219.963 133.658 219.904C133.469 219.904 133.219 220.064 132.906 220.383C132.6 220.702 132.447 220.962 132.447 221.164C132.447 221.372 132.675 221.525 133.131 221.623C133.43 221.688 133.762 221.721 134.127 221.721C135.8 221.721 136.936 221.815 137.535 222.004C138.518 222.31 139.01 222.967 139.01 223.977C139.01 225.005 138.434 225.826 137.281 226.438C136.135 227.049 134.977 227.355 133.805 227.355C132.737 227.355 131.891 227.137 131.266 226.701C130.641 226.271 130.328 225.819 130.328 225.344C130.328 225.109 130.41 224.878 130.572 224.65C130.742 224.429 131.07 224.097 131.559 223.654L132.203 223.078L132.32 222.961C132.021 222.844 131.796 222.73 131.646 222.619C131.386 222.417 131.256 222.186 131.256 221.926C131.256 221.685 131.367 221.421 131.588 221.135C131.816 220.842 132.298 220.37 133.033 219.719ZM134.889 219.523C135.247 219.523 135.546 219.426 135.787 219.23C136.178 218.918 136.373 218.374 136.373 217.6C136.373 216.981 136.214 216.285 135.895 215.51C135.582 214.735 135.058 214.348 134.322 214.348C133.684 214.348 133.245 214.65 133.004 215.256C132.88 215.575 132.818 215.969 132.818 216.438C132.818 217.232 133.01 217.945 133.395 218.576C133.779 219.208 134.277 219.523 134.889 219.523ZM141.764 224.807C141.764 225.354 142.07 225.731 142.682 225.939C143.3 226.148 144.007 226.252 144.801 226.252C145.882 226.252 146.76 226.063 147.438 225.686C148.115 225.314 148.453 224.855 148.453 224.309C148.453 223.872 148.18 223.583 147.633 223.439C147.294 223.355 146.653 223.306 145.709 223.293C145.468 223.286 145.214 223.277 144.947 223.264C144.68 223.257 144.436 223.247 144.215 223.234C144.072 223.228 143.84 223.202 143.521 223.156C143.202 223.111 142.965 223.072 142.809 223.039C142.73 223.039 142.538 223.244 142.232 223.654C141.92 224.071 141.764 224.455 141.764 224.807ZM143.033 219.719C142.441 219.523 141.979 219.175 141.646 218.674C141.321 218.173 141.158 217.609 141.158 216.984C141.158 216.223 141.461 215.5 142.066 214.816C142.672 214.133 143.528 213.791 144.635 213.791C145.11 213.791 145.634 213.905 146.207 214.133C146.78 214.354 147.33 214.465 147.857 214.465C147.994 214.465 148.199 214.462 148.473 214.455C148.753 214.442 148.954 214.436 149.078 214.436H149.195V215.227H147.506C147.623 215.5 147.714 215.738 147.779 215.939C147.89 216.317 147.945 216.675 147.945 217.014C147.945 217.756 147.636 218.439 147.018 219.064C146.406 219.683 145.579 219.992 144.537 219.992C144.374 219.992 144.081 219.963 143.658 219.904C143.469 219.904 143.219 220.064 142.906 220.383C142.6 220.702 142.447 220.962 142.447 221.164C142.447 221.372 142.675 221.525 143.131 221.623C143.43 221.688 143.762 221.721 144.127 221.721C145.8 221.721 146.936 221.815 147.535 222.004C148.518 222.31 149.01 222.967 149.01 223.977C149.01 225.005 148.434 225.826 147.281 226.438C146.135 227.049 144.977 227.355 143.805 227.355C142.737 227.355 141.891 227.137 141.266 226.701C140.641 226.271 140.328 225.819 140.328 225.344C140.328 225.109 140.41 224.878 140.572 224.65C140.742 224.429 141.07 224.097 141.559 223.654L142.203 223.078L142.32 222.961C142.021 222.844 141.796 222.73 141.646 222.619C141.386 222.417 141.256 222.186 141.256 221.926C141.256 221.685 141.367 221.421 141.588 221.135C141.816 220.842 142.298 220.37 143.033 219.719ZM144.889 219.523C145.247 219.523 145.546 219.426 145.787 219.23C146.178 218.918 146.373 218.374 146.373 217.6C146.373 216.981 146.214 216.285 145.895 215.51C145.582 214.735 145.058 214.348 144.322 214.348C143.684 214.348 143.245 214.65 143.004 215.256C142.88 215.575 142.818 215.969 142.818 216.438C142.818 217.232 143.01 217.945 143.395 218.576C143.779 219.208 144.277 219.523 144.889 219.523ZM154.381 213.84C155.299 213.84 156.103 214.159 156.793 214.797C157.483 215.428 157.828 216.327 157.828 217.492H151.627C151.692 219.003 152.034 220.103 152.652 220.793C153.271 221.483 154.003 221.828 154.85 221.828C155.533 221.828 156.109 221.649 156.578 221.291C157.047 220.933 157.48 220.425 157.877 219.768L158.219 219.885C157.952 220.712 157.451 221.477 156.715 222.18C155.986 222.883 155.09 223.234 154.029 223.234C152.805 223.234 151.858 222.772 151.188 221.848C150.523 220.923 150.191 219.859 150.191 218.654C150.191 217.346 150.579 216.216 151.354 215.266C152.128 214.315 153.137 213.84 154.381 213.84ZM153.814 214.553C153.072 214.553 152.506 214.882 152.115 215.539C151.907 215.891 151.757 216.333 151.666 216.867H155.787C155.715 216.216 155.592 215.731 155.416 215.412C155.097 214.839 154.563 214.553 153.814 214.553ZM159.723 219.924H160.045C160.195 220.666 160.396 221.236 160.65 221.633C161.106 222.362 161.773 222.727 162.652 222.727C163.141 222.727 163.525 222.593 163.805 222.326C164.091 222.053 164.234 221.701 164.234 221.271C164.234 220.998 164.153 220.734 163.99 220.48C163.827 220.227 163.541 219.979 163.131 219.738L162.037 219.113C161.236 218.684 160.647 218.251 160.27 217.814C159.892 217.378 159.703 216.864 159.703 216.271C159.703 215.542 159.964 214.943 160.484 214.475C161.005 214.006 161.66 213.771 162.447 213.771C162.792 213.771 163.17 213.837 163.58 213.967C163.997 214.097 164.231 214.162 164.283 214.162C164.4 214.162 164.485 214.146 164.537 214.113C164.589 214.081 164.635 214.029 164.674 213.957H164.908L164.977 216.682H164.674C164.544 216.05 164.368 215.559 164.146 215.207C163.743 214.556 163.16 214.23 162.398 214.23C161.943 214.23 161.585 214.37 161.324 214.65C161.064 214.93 160.934 215.259 160.934 215.637C160.934 216.236 161.383 216.77 162.281 217.238L163.57 217.932C164.957 218.687 165.65 219.566 165.65 220.568C165.65 221.337 165.361 221.965 164.781 222.453C164.208 222.941 163.456 223.186 162.525 223.186C162.135 223.186 161.692 223.12 161.197 222.99C160.702 222.86 160.41 222.795 160.318 222.795C160.24 222.795 160.172 222.824 160.113 222.883C160.055 222.935 160.009 223 159.977 223.078H159.723V219.924ZM171.568 213.996V214.699H169.576L169.557 220.324C169.557 220.819 169.599 221.193 169.684 221.447C169.84 221.896 170.146 222.121 170.602 222.121C170.836 222.121 171.038 222.066 171.207 221.955C171.383 221.844 171.581 221.669 171.803 221.428L172.057 221.643L171.842 221.936C171.503 222.391 171.145 222.714 170.768 222.902C170.39 223.091 170.025 223.186 169.674 223.186C168.906 223.186 168.385 222.844 168.111 222.16C167.962 221.789 167.887 221.275 167.887 220.617V214.699H166.822C166.79 214.68 166.764 214.66 166.744 214.641C166.731 214.621 166.725 214.595 166.725 214.562C166.725 214.497 166.738 214.449 166.764 214.416C166.796 214.377 166.891 214.292 167.047 214.162C167.496 213.791 167.818 213.492 168.014 213.264C168.215 213.029 168.684 212.417 169.42 211.428C169.505 211.428 169.553 211.434 169.566 211.447C169.586 211.46 169.596 211.509 169.596 211.594V213.996H171.568ZM173.082 219.924H173.404C173.554 220.666 173.756 221.236 174.01 221.633C174.465 222.362 175.133 222.727 176.012 222.727C176.5 222.727 176.884 222.593 177.164 222.326C177.451 222.053 177.594 221.701 177.594 221.271C177.594 220.998 177.512 220.734 177.35 220.48C177.187 220.227 176.9 219.979 176.49 219.738L175.396 219.113C174.596 218.684 174.007 218.251 173.629 217.814C173.251 217.378 173.062 216.864 173.062 216.271C173.062 215.542 173.323 214.943 173.844 214.475C174.365 214.006 175.019 213.771 175.807 213.771C176.152 213.771 176.529 213.837 176.939 213.967C177.356 214.097 177.59 214.162 177.643 214.162C177.76 214.162 177.844 214.146 177.896 214.113C177.949 214.081 177.994 214.029 178.033 213.957H178.268L178.336 216.682H178.033C177.903 216.05 177.727 215.559 177.506 215.207C177.102 214.556 176.52 214.23 175.758 214.23C175.302 214.23 174.944 214.37 174.684 214.65C174.423 214.93 174.293 215.259 174.293 215.637C174.293 216.236 174.742 216.77 175.641 217.238L176.93 217.932C178.316 218.687 179.01 219.566 179.01 220.568C179.01 221.337 178.72 221.965 178.141 222.453C177.568 222.941 176.816 223.186 175.885 223.186C175.494 223.186 175.051 223.12 174.557 222.99C174.062 222.86 173.769 222.795 173.678 222.795C173.6 222.795 173.531 222.824 173.473 222.883C173.414 222.935 173.368 223 173.336 223.078H173.082V219.924ZM185.162 222.746C185.67 222.701 186.008 222.616 186.178 222.492C186.438 222.303 186.568 221.926 186.568 221.359V216.311C186.568 215.829 186.503 215.513 186.373 215.363C186.249 215.214 186.041 215.139 185.748 215.139C185.611 215.139 185.507 215.145 185.436 215.158C185.37 215.171 185.292 215.194 185.201 215.227V214.885L185.904 214.65C186.158 214.566 186.575 214.413 187.154 214.191C187.734 213.97 188.04 213.859 188.072 213.859C188.105 213.859 188.124 213.876 188.131 213.908C188.137 213.941 188.141 214.003 188.141 214.094V215.412C188.785 214.826 189.342 214.423 189.811 214.201C190.279 213.973 190.761 213.859 191.256 213.859C191.926 213.859 192.46 214.087 192.857 214.543C193.066 214.79 193.238 215.126 193.375 215.549C193.857 215.061 194.277 214.699 194.635 214.465C195.253 214.061 195.885 213.859 196.529 213.859C197.577 213.859 198.277 214.286 198.629 215.139C198.831 215.62 198.932 216.382 198.932 217.424V221.477C198.932 221.939 199.033 222.255 199.234 222.424C199.443 222.587 199.814 222.694 200.348 222.746V223H195.943V222.727C196.51 222.674 196.881 222.561 197.057 222.385C197.239 222.209 197.33 221.851 197.33 221.311V217.102C197.33 216.47 197.262 216.005 197.125 215.705C196.884 215.171 196.412 214.904 195.709 214.904C195.286 214.904 194.866 215.044 194.449 215.324C194.208 215.487 193.912 215.747 193.561 216.105V221.105C193.561 221.633 193.652 222.033 193.834 222.307C194.023 222.58 194.417 222.727 195.016 222.746V223H190.533V222.746C191.152 222.668 191.546 222.518 191.715 222.297C191.884 222.076 191.969 221.532 191.969 220.666V217.932C191.969 216.929 191.904 216.239 191.773 215.861C191.559 215.223 191.103 214.904 190.406 214.904C190.009 214.904 189.618 215.015 189.234 215.236C188.85 215.451 188.512 215.734 188.219 216.086V221.428C188.219 221.923 188.303 222.264 188.473 222.453C188.648 222.642 189.026 222.74 189.605 222.746V223H185.162V222.746ZM204.986 213.84C205.904 213.84 206.708 214.159 207.398 214.797C208.089 215.428 208.434 216.327 208.434 217.492H202.232C202.298 219.003 202.639 220.103 203.258 220.793C203.876 221.483 204.609 221.828 205.455 221.828C206.139 221.828 206.715 221.649 207.184 221.291C207.652 220.933 208.085 220.425 208.482 219.768L208.824 219.885C208.557 220.712 208.056 221.477 207.32 222.18C206.591 222.883 205.696 223.234 204.635 223.234C203.411 223.234 202.464 222.772 201.793 221.848C201.129 220.923 200.797 219.859 200.797 218.654C200.797 217.346 201.184 216.216 201.959 215.266C202.734 214.315 203.743 213.84 204.986 213.84ZM204.42 214.553C203.678 214.553 203.111 214.882 202.721 215.539C202.512 215.891 202.363 216.333 202.271 216.867H206.393C206.321 216.216 206.197 215.731 206.021 215.412C205.702 214.839 205.169 214.553 204.42 214.553ZM215.025 217.59C214.277 217.837 213.658 218.111 213.17 218.41C212.232 218.99 211.764 219.647 211.764 220.383C211.764 220.975 211.959 221.411 212.35 221.691C212.604 221.874 212.887 221.965 213.199 221.965C213.629 221.965 214.039 221.844 214.43 221.604C214.827 221.363 215.025 221.057 215.025 220.686V217.59ZM210.025 221.057C210.025 220.113 210.497 219.325 211.441 218.693C212.04 218.303 213.235 217.772 215.025 217.102V216.271C215.025 215.607 214.96 215.145 214.83 214.885C214.609 214.449 214.15 214.23 213.453 214.23C213.121 214.23 212.805 214.315 212.506 214.484C212.206 214.66 212.057 214.901 212.057 215.207C212.057 215.285 212.073 215.419 212.105 215.607C212.138 215.79 212.154 215.907 212.154 215.959C212.154 216.324 212.034 216.577 211.793 216.721C211.656 216.805 211.493 216.848 211.305 216.848C211.012 216.848 210.787 216.753 210.631 216.564C210.475 216.369 210.396 216.154 210.396 215.92C210.396 215.464 210.676 214.989 211.236 214.494C211.803 213.993 212.63 213.742 213.717 213.742C214.98 213.742 215.836 214.152 216.285 214.973C216.526 215.422 216.646 216.076 216.646 216.936V220.852C216.646 221.229 216.673 221.49 216.725 221.633C216.809 221.887 216.985 222.014 217.252 222.014C217.402 222.014 217.525 221.991 217.623 221.945C217.721 221.9 217.89 221.789 218.131 221.613V222.121C217.923 222.375 217.698 222.583 217.457 222.746C217.092 222.993 216.721 223.117 216.344 223.117C215.901 223.117 215.579 222.974 215.377 222.688C215.182 222.401 215.074 222.059 215.055 221.662C214.56 222.092 214.137 222.411 213.785 222.619C213.193 222.971 212.63 223.146 212.096 223.146C211.536 223.146 211.051 222.951 210.641 222.561C210.23 222.163 210.025 221.662 210.025 221.057ZM218.59 222.727C219.195 222.668 219.605 222.548 219.82 222.365C220.035 222.176 220.143 221.812 220.143 221.271V211.73C220.143 211.301 220.107 211.005 220.035 210.842C219.905 210.568 219.641 210.432 219.244 210.432C219.153 210.432 219.052 210.441 218.941 210.461C218.837 210.48 218.704 210.51 218.541 210.549V210.227C219.42 209.992 220.478 209.68 221.715 209.289C221.76 209.289 221.786 209.309 221.793 209.348C221.806 209.387 221.812 209.471 221.812 209.602V221.311C221.812 221.877 221.91 222.245 222.105 222.414C222.301 222.577 222.704 222.681 223.316 222.727V223H218.59V222.727ZM224.781 219.924H225.104C225.253 220.666 225.455 221.236 225.709 221.633C226.165 222.362 226.832 222.727 227.711 222.727C228.199 222.727 228.583 222.593 228.863 222.326C229.15 222.053 229.293 221.701 229.293 221.271C229.293 220.998 229.212 220.734 229.049 220.48C228.886 220.227 228.6 219.979 228.189 219.738L227.096 219.113C226.295 218.684 225.706 218.251 225.328 217.814C224.951 217.378 224.762 216.864 224.762 216.271C224.762 215.542 225.022 214.943 225.543 214.475C226.064 214.006 226.718 213.771 227.506 213.771C227.851 213.771 228.229 213.837 228.639 213.967C229.055 214.097 229.29 214.162 229.342 214.162C229.459 214.162 229.544 214.146 229.596 214.113C229.648 214.081 229.693 214.029 229.732 213.957H229.967L230.035 216.682H229.732C229.602 216.05 229.426 215.559 229.205 215.207C228.801 214.556 228.219 214.23 227.457 214.23C227.001 214.23 226.643 214.37 226.383 214.65C226.122 214.93 225.992 215.259 225.992 215.637C225.992 216.236 226.441 216.77 227.34 217.238L228.629 217.932C230.016 218.687 230.709 219.566 230.709 220.568C230.709 221.337 230.419 221.965 229.84 222.453C229.267 222.941 228.515 223.186 227.584 223.186C227.193 223.186 226.751 223.12 226.256 222.99C225.761 222.86 225.468 222.795 225.377 222.795C225.299 222.795 225.23 222.824 225.172 222.883C225.113 222.935 225.068 223 225.035 223.078H224.781V219.924ZM69.957 245.727C70.6471 245.694 71.0996 245.567 71.3145 245.346C71.5358 245.118 71.6465 244.643 71.6465 243.92V237.65H69.9766V236.996H71.6465C71.6465 235.967 71.7865 235.098 72.0664 234.389C72.6003 233.028 73.5801 232.348 75.0059 232.348C75.5788 232.348 76.0898 232.462 76.5391 232.689C76.9948 232.917 77.2227 233.223 77.2227 233.607C77.2227 233.822 77.1445 234.014 76.9883 234.184C76.832 234.353 76.6432 234.438 76.4219 234.438C76.2331 234.438 76.0703 234.382 75.9336 234.271C75.7969 234.154 75.6341 233.952 75.4453 233.666L75.2793 233.412C75.1882 233.275 75.0807 233.161 74.957 233.07C74.8333 232.973 74.6608 232.924 74.4395 232.924C73.9447 232.924 73.6094 233.168 73.4336 233.656C73.3359 233.917 73.2871 234.258 73.2871 234.682V236.996H75.7383V237.65H73.3066V243.92C73.3066 244.656 73.4043 245.128 73.5996 245.336C73.8014 245.538 74.3223 245.668 75.1621 245.727V246H69.957V245.727ZM76.7344 241.469C76.7344 240.173 77.1445 239.079 77.9648 238.188C78.7917 237.289 79.8529 236.84 81.1484 236.84C82.4375 236.84 83.5052 237.263 84.3516 238.109C85.1979 238.956 85.6211 240.082 85.6211 241.488C85.6211 242.784 85.2109 243.91 84.3906 244.867C83.5703 245.824 82.5091 246.303 81.207 246.303C79.957 246.303 78.8991 245.844 78.0332 244.926C77.1673 244.008 76.7344 242.855 76.7344 241.469ZM80.875 237.426C80.3607 237.426 79.9147 237.595 79.5371 237.934C78.8861 238.526 78.5605 239.548 78.5605 241C78.5605 242.159 78.821 243.24 79.3418 244.242C79.8691 245.245 80.5983 245.746 81.5293 245.746C82.2585 245.746 82.8184 245.411 83.209 244.74C83.6061 244.07 83.8047 243.191 83.8047 242.104C83.8047 240.977 83.554 239.916 83.0527 238.92C82.5514 237.924 81.8255 237.426 80.875 237.426ZM86.3145 245.678C86.9134 245.626 87.3105 245.521 87.5059 245.365C87.7012 245.202 87.7988 244.861 87.7988 244.34V239.936C87.7988 239.291 87.737 238.832 87.6133 238.559C87.4961 238.279 87.278 238.139 86.959 238.139C86.8939 238.139 86.806 238.148 86.6953 238.168C86.5911 238.181 86.4805 238.201 86.3633 238.227V237.904C86.7344 237.774 87.1152 237.641 87.5059 237.504C87.8965 237.367 88.1667 237.27 88.3164 237.211C88.6419 237.087 88.9772 236.947 89.3223 236.791C89.3678 236.791 89.3939 236.807 89.4004 236.84C89.4134 236.872 89.4199 236.941 89.4199 237.045V238.646C89.8366 238.067 90.237 237.615 90.6211 237.289C91.0117 236.964 91.4154 236.801 91.832 236.801C92.1641 236.801 92.4342 236.902 92.6426 237.104C92.8509 237.299 92.9551 237.546 92.9551 237.846C92.9551 238.113 92.8737 238.337 92.7109 238.52C92.5547 238.702 92.3561 238.793 92.1152 238.793C91.8678 238.793 91.6172 238.679 91.3633 238.451C91.1159 238.223 90.9206 238.109 90.7773 238.109C90.5495 238.109 90.2695 238.295 89.9375 238.666C89.6055 239.031 89.4395 239.408 89.4395 239.799V244.203C89.4395 244.763 89.5697 245.154 89.8301 245.375C90.0905 245.59 90.5234 245.691 91.1289 245.678V246H86.3145V245.678ZM98.1602 237.025H102.281V237.328C101.956 237.335 101.715 237.364 101.559 237.416C101.259 237.501 101.109 237.667 101.109 237.914C101.109 238.005 101.126 238.1 101.158 238.197C101.191 238.288 101.249 238.428 101.334 238.617L103.619 243.686L105.455 238.578C105.475 238.526 105.504 238.409 105.543 238.227C105.589 238.044 105.611 237.921 105.611 237.855C105.611 237.686 105.553 237.562 105.436 237.484C105.318 237.406 105.169 237.361 104.986 237.348L104.684 237.328V237.025H107.369V237.328C107.102 237.361 106.9 237.452 106.764 237.602C106.633 237.751 106.52 237.96 106.422 238.227L103.346 246.371C102.812 247.777 102.301 248.796 101.812 249.428C101.324 250.059 100.706 250.375 99.957 250.375C99.5924 250.375 99.2507 250.284 98.9316 250.102C98.6126 249.919 98.4531 249.63 98.4531 249.232C98.4531 248.972 98.5475 248.757 98.7363 248.588C98.9316 248.425 99.1758 248.344 99.4688 248.344C99.638 248.344 99.8887 248.406 100.221 248.529C100.559 248.653 100.8 248.715 100.943 248.715C101.308 248.715 101.692 248.292 102.096 247.445C102.499 246.599 102.701 246.033 102.701 245.746C102.701 245.688 102.691 245.616 102.672 245.531C102.652 245.447 102.63 245.372 102.604 245.307L99.4785 238.549C99.2572 238.067 99.0618 237.751 98.8926 237.602C98.7298 237.445 98.4857 237.344 98.1602 237.299V237.025ZM108.395 241.469C108.395 240.173 108.805 239.079 109.625 238.188C110.452 237.289 111.513 236.84 112.809 236.84C114.098 236.84 115.165 237.263 116.012 238.109C116.858 238.956 117.281 240.082 117.281 241.488C117.281 242.784 116.871 243.91 116.051 244.867C115.23 245.824 114.169 246.303 112.867 246.303C111.617 246.303 110.559 245.844 109.693 244.926C108.827 244.008 108.395 242.855 108.395 241.469ZM112.535 237.426C112.021 237.426 111.575 237.595 111.197 237.934C110.546 238.526 110.221 239.548 110.221 241C110.221 242.159 110.481 243.24 111.002 244.242C111.529 245.245 112.258 245.746 113.189 245.746C113.919 245.746 114.479 245.411 114.869 244.74C115.266 244.07 115.465 243.191 115.465 242.104C115.465 240.977 115.214 239.916 114.713 238.92C114.212 237.924 113.486 237.426 112.535 237.426ZM120.982 236.957V243.207C120.982 243.65 121.044 244.005 121.168 244.271C121.409 244.766 121.852 245.014 122.496 245.014C122.939 245.014 123.372 244.867 123.795 244.574C124.036 244.411 124.28 244.187 124.527 243.9V238.549C124.527 238.048 124.43 237.719 124.234 237.562C124.039 237.406 123.648 237.312 123.062 237.279V236.957H126.217V243.832C126.217 244.275 126.295 244.581 126.451 244.75C126.614 244.913 126.952 244.984 127.467 244.965V245.238C127.109 245.336 126.845 245.411 126.676 245.463C126.507 245.508 126.223 245.596 125.826 245.727C125.657 245.785 125.286 245.925 124.713 246.146C124.68 246.146 124.661 246.13 124.654 246.098C124.648 246.072 124.645 246.039 124.645 246V244.428C124.202 244.955 123.798 245.346 123.434 245.6C122.88 245.99 122.294 246.186 121.676 246.186C121.109 246.186 120.576 245.984 120.074 245.58C119.566 245.183 119.312 244.516 119.312 243.578V238.51C119.312 237.989 119.202 237.641 118.98 237.465C118.837 237.354 118.531 237.276 118.062 237.23V236.957H120.982ZM137.975 236.996V237.699H135.982L135.963 243.324C135.963 243.819 136.005 244.193 136.09 244.447C136.246 244.896 136.552 245.121 137.008 245.121C137.242 245.121 137.444 245.066 137.613 244.955C137.789 244.844 137.988 244.669 138.209 244.428L138.463 244.643L138.248 244.936C137.91 245.391 137.551 245.714 137.174 245.902C136.796 246.091 136.432 246.186 136.08 246.186C135.312 246.186 134.791 245.844 134.518 245.16C134.368 244.789 134.293 244.275 134.293 243.617V237.699H133.229C133.196 237.68 133.17 237.66 133.15 237.641C133.137 237.621 133.131 237.595 133.131 237.562C133.131 237.497 133.144 237.449 133.17 237.416C133.202 237.377 133.297 237.292 133.453 237.162C133.902 236.791 134.225 236.492 134.42 236.264C134.622 236.029 135.09 235.417 135.826 234.428C135.911 234.428 135.96 234.434 135.973 234.447C135.992 234.46 136.002 234.509 136.002 234.594V236.996H137.975ZM138.961 241.469C138.961 240.173 139.371 239.079 140.191 238.188C141.018 237.289 142.079 236.84 143.375 236.84C144.664 236.84 145.732 237.263 146.578 238.109C147.424 238.956 147.848 240.082 147.848 241.488C147.848 242.784 147.438 243.91 146.617 244.867C145.797 245.824 144.736 246.303 143.434 246.303C142.184 246.303 141.126 245.844 140.26 244.926C139.394 244.008 138.961 242.855 138.961 241.469ZM143.102 237.426C142.587 237.426 142.141 237.595 141.764 237.934C141.113 238.526 140.787 239.548 140.787 241C140.787 242.159 141.048 243.24 141.568 244.242C142.096 245.245 142.825 245.746 143.756 245.746C144.485 245.746 145.045 245.411 145.436 244.74C145.833 244.07 146.031 243.191 146.031 242.104C146.031 240.977 145.781 239.916 145.279 238.92C144.778 237.924 144.052 237.426 143.102 237.426ZM156.646 244.203C156.816 244.646 157.066 244.978 157.398 245.199C157.737 245.414 158.134 245.521 158.59 245.521C159.293 245.521 159.892 245.173 160.387 244.477C160.888 243.773 161.139 242.797 161.139 241.547C161.139 240.349 160.878 239.454 160.357 238.861C159.843 238.269 159.244 237.973 158.561 237.973C158.079 237.973 157.639 238.122 157.242 238.422C156.845 238.715 156.646 239.005 156.646 239.291V244.203ZM153.541 250.033C154.153 249.994 154.54 249.864 154.703 249.643C154.872 249.421 154.957 249.073 154.957 248.598V239.223C154.957 238.728 154.895 238.412 154.771 238.275C154.654 238.132 154.43 238.061 154.098 238.061C154.026 238.061 153.958 238.064 153.893 238.07C153.834 238.077 153.746 238.09 153.629 238.109V237.787L154.557 237.484C154.589 237.478 155.243 237.253 156.52 236.811C156.552 236.811 156.575 236.827 156.588 236.859C156.607 236.885 156.617 236.918 156.617 236.957V238.275C157.047 237.846 157.424 237.527 157.75 237.318C158.336 236.954 158.938 236.771 159.557 236.771C160.455 236.771 161.227 237.156 161.871 237.924C162.522 238.686 162.848 239.73 162.848 241.059C162.848 242.361 162.457 243.542 161.676 244.604C160.901 245.665 159.924 246.195 158.746 246.195C158.382 246.195 158.066 246.15 157.799 246.059C157.382 245.922 156.998 245.671 156.646 245.307V248.5C156.646 249.158 156.754 249.561 156.969 249.711C157.184 249.861 157.652 249.962 158.375 250.014V250.355H153.541V250.033ZM163.541 245.678C164.14 245.626 164.537 245.521 164.732 245.365C164.928 245.202 165.025 244.861 165.025 244.34V239.936C165.025 239.291 164.964 238.832 164.84 238.559C164.723 238.279 164.505 238.139 164.186 238.139C164.12 238.139 164.033 238.148 163.922 238.168C163.818 238.181 163.707 238.201 163.59 238.227V237.904C163.961 237.774 164.342 237.641 164.732 237.504C165.123 237.367 165.393 237.27 165.543 237.211C165.868 237.087 166.204 236.947 166.549 236.791C166.594 236.791 166.62 236.807 166.627 236.84C166.64 236.872 166.646 236.941 166.646 237.045V238.646C167.063 238.067 167.464 237.615 167.848 237.289C168.238 236.964 168.642 236.801 169.059 236.801C169.391 236.801 169.661 236.902 169.869 237.104C170.077 237.299 170.182 237.546 170.182 237.846C170.182 238.113 170.1 238.337 169.938 238.52C169.781 238.702 169.583 238.793 169.342 238.793C169.094 238.793 168.844 238.679 168.59 238.451C168.342 238.223 168.147 238.109 168.004 238.109C167.776 238.109 167.496 238.295 167.164 238.666C166.832 239.031 166.666 239.408 166.666 239.799V244.203C166.666 244.763 166.796 245.154 167.057 245.375C167.317 245.59 167.75 245.691 168.355 245.678V246H163.541V245.678ZM174.693 236.84C175.611 236.84 176.415 237.159 177.105 237.797C177.796 238.428 178.141 239.327 178.141 240.492H171.939C172.005 242.003 172.346 243.103 172.965 243.793C173.583 244.483 174.316 244.828 175.162 244.828C175.846 244.828 176.422 244.649 176.891 244.291C177.359 243.933 177.792 243.425 178.189 242.768L178.531 242.885C178.264 243.712 177.763 244.477 177.027 245.18C176.298 245.883 175.403 246.234 174.342 246.234C173.118 246.234 172.171 245.772 171.5 244.848C170.836 243.923 170.504 242.859 170.504 241.654C170.504 240.346 170.891 239.216 171.666 238.266C172.441 237.315 173.45 236.84 174.693 236.84ZM174.127 237.553C173.385 237.553 172.818 237.882 172.428 238.539C172.219 238.891 172.07 239.333 171.979 239.867H176.1C176.028 239.216 175.904 238.731 175.729 238.412C175.41 237.839 174.876 237.553 174.127 237.553ZM182.193 244.203C182.363 244.646 182.613 244.978 182.945 245.199C183.284 245.414 183.681 245.521 184.137 245.521C184.84 245.521 185.439 245.173 185.934 244.477C186.435 243.773 186.686 242.797 186.686 241.547C186.686 240.349 186.425 239.454 185.904 238.861C185.39 238.269 184.791 237.973 184.107 237.973C183.626 237.973 183.186 238.122 182.789 238.422C182.392 238.715 182.193 239.005 182.193 239.291V244.203ZM179.088 250.033C179.7 249.994 180.087 249.864 180.25 249.643C180.419 249.421 180.504 249.073 180.504 248.598V239.223C180.504 238.728 180.442 238.412 180.318 238.275C180.201 238.132 179.977 238.061 179.645 238.061C179.573 238.061 179.505 238.064 179.439 238.07C179.381 238.077 179.293 238.09 179.176 238.109V237.787L180.104 237.484C180.136 237.478 180.79 237.253 182.066 236.811C182.099 236.811 182.122 236.827 182.135 236.859C182.154 236.885 182.164 236.918 182.164 236.957V238.275C182.594 237.846 182.971 237.527 183.297 237.318C183.883 236.954 184.485 236.771 185.104 236.771C186.002 236.771 186.773 237.156 187.418 237.924C188.069 238.686 188.395 239.73 188.395 241.059C188.395 242.361 188.004 243.542 187.223 244.604C186.448 245.665 185.471 246.195 184.293 246.195C183.928 246.195 183.613 246.15 183.346 246.059C182.929 245.922 182.545 245.671 182.193 245.307V248.5C182.193 249.158 182.301 249.561 182.516 249.711C182.73 249.861 183.199 249.962 183.922 250.014V250.355H179.088V250.033ZM194.732 240.59C193.984 240.837 193.365 241.111 192.877 241.41C191.939 241.99 191.471 242.647 191.471 243.383C191.471 243.975 191.666 244.411 192.057 244.691C192.311 244.874 192.594 244.965 192.906 244.965C193.336 244.965 193.746 244.844 194.137 244.604C194.534 244.363 194.732 244.057 194.732 243.686V240.59ZM189.732 244.057C189.732 243.113 190.204 242.325 191.148 241.693C191.747 241.303 192.942 240.772 194.732 240.102V239.271C194.732 238.607 194.667 238.145 194.537 237.885C194.316 237.449 193.857 237.23 193.16 237.23C192.828 237.23 192.512 237.315 192.213 237.484C191.913 237.66 191.764 237.901 191.764 238.207C191.764 238.285 191.78 238.419 191.812 238.607C191.845 238.79 191.861 238.907 191.861 238.959C191.861 239.324 191.741 239.577 191.5 239.721C191.363 239.805 191.201 239.848 191.012 239.848C190.719 239.848 190.494 239.753 190.338 239.564C190.182 239.369 190.104 239.154 190.104 238.92C190.104 238.464 190.383 237.989 190.943 237.494C191.51 236.993 192.337 236.742 193.424 236.742C194.687 236.742 195.543 237.152 195.992 237.973C196.233 238.422 196.354 239.076 196.354 239.936V243.852C196.354 244.229 196.38 244.49 196.432 244.633C196.516 244.887 196.692 245.014 196.959 245.014C197.109 245.014 197.232 244.991 197.33 244.945C197.428 244.9 197.597 244.789 197.838 244.613V245.121C197.63 245.375 197.405 245.583 197.164 245.746C196.799 245.993 196.428 246.117 196.051 246.117C195.608 246.117 195.286 245.974 195.084 245.688C194.889 245.401 194.781 245.059 194.762 244.662C194.267 245.092 193.844 245.411 193.492 245.619C192.9 245.971 192.337 246.146 191.803 246.146C191.243 246.146 190.758 245.951 190.348 245.561C189.938 245.163 189.732 244.662 189.732 244.057ZM197.975 245.678C198.574 245.626 198.971 245.521 199.166 245.365C199.361 245.202 199.459 244.861 199.459 244.34V239.936C199.459 239.291 199.397 238.832 199.273 238.559C199.156 238.279 198.938 238.139 198.619 238.139C198.554 238.139 198.466 238.148 198.355 238.168C198.251 238.181 198.141 238.201 198.023 238.227V237.904C198.395 237.774 198.775 237.641 199.166 237.504C199.557 237.367 199.827 237.27 199.977 237.211C200.302 237.087 200.637 236.947 200.982 236.791C201.028 236.791 201.054 236.807 201.061 236.84C201.074 236.872 201.08 236.941 201.08 237.045V238.646C201.497 238.067 201.897 237.615 202.281 237.289C202.672 236.964 203.076 236.801 203.492 236.801C203.824 236.801 204.094 236.902 204.303 237.104C204.511 237.299 204.615 237.546 204.615 237.846C204.615 238.113 204.534 238.337 204.371 238.52C204.215 238.702 204.016 238.793 203.775 238.793C203.528 238.793 203.277 238.679 203.023 238.451C202.776 238.223 202.581 238.109 202.438 238.109C202.21 238.109 201.93 238.295 201.598 238.666C201.266 239.031 201.1 239.408 201.1 239.799V244.203C201.1 244.763 201.23 245.154 201.49 245.375C201.751 245.59 202.184 245.691 202.789 245.678V246H197.975V245.678ZM209.127 236.84C210.045 236.84 210.849 237.159 211.539 237.797C212.229 238.428 212.574 239.327 212.574 240.492H206.373C206.438 242.003 206.78 243.103 207.398 243.793C208.017 244.483 208.749 244.828 209.596 244.828C210.279 244.828 210.855 244.649 211.324 244.291C211.793 243.933 212.226 243.425 212.623 242.768L212.965 242.885C212.698 243.712 212.197 244.477 211.461 245.18C210.732 245.883 209.837 246.234 208.775 246.234C207.551 246.234 206.604 245.772 205.934 244.848C205.27 243.923 204.938 242.859 204.938 241.654C204.938 240.346 205.325 239.216 206.1 238.266C206.874 237.315 207.883 236.84 209.127 236.84ZM208.561 237.553C207.818 237.553 207.252 237.882 206.861 238.539C206.653 238.891 206.503 239.333 206.412 239.867H210.533C210.462 239.216 210.338 238.731 210.162 238.412C209.843 237.839 209.309 237.553 208.561 237.553ZM52.418 268.727C53.1081 268.694 53.5605 268.567 53.7754 268.346C53.9967 268.118 54.1074 267.643 54.1074 266.92V260.65H52.4375V259.996H54.1074C54.1074 258.967 54.2474 258.098 54.5273 257.389C55.0612 256.028 56.041 255.348 57.4668 255.348C58.0397 255.348 58.5508 255.462 59 255.689C59.4557 255.917 59.6836 256.223 59.6836 256.607C59.6836 256.822 59.6055 257.014 59.4492 257.184C59.293 257.353 59.1042 257.438 58.8828 257.438C58.694 257.438 58.5312 257.382 58.3945 257.271C58.2578 257.154 58.0951 256.952 57.9062 256.666L57.7402 256.412C57.6491 256.275 57.5417 256.161 57.418 256.07C57.2943 255.973 57.1217 255.924 56.9004 255.924C56.4056 255.924 56.0703 256.168 55.8945 256.656C55.7969 256.917 55.748 257.258 55.748 257.682V259.996H58.1992V260.65H55.7676V266.92C55.7676 267.656 55.8652 268.128 56.0605 268.336C56.2624 268.538 56.7832 268.668 57.623 268.727V269H52.418V268.727ZM58.7754 268.678C59.3743 268.626 59.7715 268.521 59.9668 268.365C60.1621 268.202 60.2598 267.861 60.2598 267.34V262.936C60.2598 262.291 60.1979 261.832 60.0742 261.559C59.957 261.279 59.7389 261.139 59.4199 261.139C59.3548 261.139 59.2669 261.148 59.1562 261.168C59.0521 261.181 58.9414 261.201 58.8242 261.227V260.904C59.1953 260.774 59.5762 260.641 59.9668 260.504C60.3574 260.367 60.6276 260.27 60.7773 260.211C61.1029 260.087 61.4382 259.947 61.7832 259.791C61.8288 259.791 61.8548 259.807 61.8613 259.84C61.8743 259.872 61.8809 259.941 61.8809 260.045V261.646C62.2975 261.067 62.6979 260.615 63.082 260.289C63.4727 259.964 63.8763 259.801 64.293 259.801C64.625 259.801 64.8952 259.902 65.1035 260.104C65.3118 260.299 65.416 260.546 65.416 260.846C65.416 261.113 65.3346 261.337 65.1719 261.52C65.0156 261.702 64.8171 261.793 64.5762 261.793C64.3288 261.793 64.0781 261.679 63.8242 261.451C63.5768 261.223 63.3815 261.109 63.2383 261.109C63.0104 261.109 62.7305 261.295 62.3984 261.666C62.0664 262.031 61.9004 262.408 61.9004 262.799V267.203C61.9004 267.763 62.0306 268.154 62.291 268.375C62.5514 268.59 62.9844 268.691 63.5898 268.678V269H58.7754V268.678ZM65.8555 264.469C65.8555 263.173 66.2656 262.079 67.0859 261.188C67.9128 260.289 68.974 259.84 70.2695 259.84C71.5586 259.84 72.6263 260.263 73.4727 261.109C74.319 261.956 74.7422 263.082 74.7422 264.488C74.7422 265.784 74.332 266.91 73.5117 267.867C72.6914 268.824 71.6302 269.303 70.3281 269.303C69.0781 269.303 68.0202 268.844 67.1543 267.926C66.2884 267.008 65.8555 265.855 65.8555 264.469ZM69.9961 260.426C69.4818 260.426 69.0358 260.595 68.6582 260.934C68.0072 261.526 67.6816 262.548 67.6816 264C67.6816 265.159 67.9421 266.24 68.4629 267.242C68.9902 268.245 69.7194 268.746 70.6504 268.746C71.3796 268.746 71.9395 268.411 72.3301 267.74C72.7272 267.07 72.9258 266.191 72.9258 265.104C72.9258 263.977 72.6751 262.916 72.1738 261.92C71.6725 260.924 70.9466 260.426 69.9961 260.426ZM75.6699 268.746C76.1777 268.701 76.5163 268.616 76.6855 268.492C76.946 268.303 77.0762 267.926 77.0762 267.359V262.311C77.0762 261.829 77.0111 261.513 76.8809 261.363C76.7572 261.214 76.5488 261.139 76.2559 261.139C76.1191 261.139 76.015 261.145 75.9434 261.158C75.8783 261.171 75.8001 261.194 75.709 261.227V260.885L76.4121 260.65C76.666 260.566 77.0827 260.413 77.6621 260.191C78.2415 259.97 78.5475 259.859 78.5801 259.859C78.6126 259.859 78.6322 259.876 78.6387 259.908C78.6452 259.941 78.6484 260.003 78.6484 260.094V261.412C79.293 260.826 79.8496 260.423 80.3184 260.201C80.7871 259.973 81.2689 259.859 81.7637 259.859C82.4342 259.859 82.9681 260.087 83.3652 260.543C83.5736 260.79 83.7461 261.126 83.8828 261.549C84.3646 261.061 84.7845 260.699 85.1426 260.465C85.7611 260.061 86.3926 259.859 87.0371 259.859C88.0853 259.859 88.7852 260.286 89.1367 261.139C89.3385 261.62 89.4395 262.382 89.4395 263.424V267.477C89.4395 267.939 89.5404 268.255 89.7422 268.424C89.9505 268.587 90.3216 268.694 90.8555 268.746V269H86.4512V268.727C87.0176 268.674 87.3887 268.561 87.5645 268.385C87.7467 268.209 87.8379 267.851 87.8379 267.311V263.102C87.8379 262.47 87.7695 262.005 87.6328 261.705C87.3919 261.171 86.9199 260.904 86.2168 260.904C85.7936 260.904 85.3737 261.044 84.957 261.324C84.7161 261.487 84.4199 261.747 84.0684 262.105V267.105C84.0684 267.633 84.1595 268.033 84.3418 268.307C84.5306 268.58 84.9245 268.727 85.5234 268.746V269H81.041V268.746C81.6595 268.668 82.0534 268.518 82.2227 268.297C82.3919 268.076 82.4766 267.532 82.4766 266.666V263.932C82.4766 262.929 82.4115 262.239 82.2812 261.861C82.0664 261.223 81.6107 260.904 80.9141 260.904C80.5169 260.904 80.1263 261.015 79.7422 261.236C79.3581 261.451 79.0195 261.734 78.7266 262.086V267.428C78.7266 267.923 78.8112 268.264 78.9805 268.453C79.1562 268.642 79.5339 268.74 80.1133 268.746V269H75.6699V268.746ZM101.002 259.996V260.699H99.0098L98.9902 266.324C98.9902 266.819 99.0326 267.193 99.1172 267.447C99.2734 267.896 99.5794 268.121 100.035 268.121C100.27 268.121 100.471 268.066 100.641 267.955C100.816 267.844 101.015 267.669 101.236 267.428L101.49 267.643L101.275 267.936C100.937 268.391 100.579 268.714 100.201 268.902C99.8236 269.091 99.459 269.186 99.1074 269.186C98.3392 269.186 97.8184 268.844 97.5449 268.16C97.3952 267.789 97.3203 267.275 97.3203 266.617V260.699H96.2559C96.2233 260.68 96.1973 260.66 96.1777 260.641C96.1647 260.621 96.1582 260.595 96.1582 260.562C96.1582 260.497 96.1712 260.449 96.1973 260.416C96.2298 260.377 96.3242 260.292 96.4805 260.162C96.9297 259.791 97.252 259.492 97.4473 259.264C97.6491 259.029 98.1178 258.417 98.8535 257.428C98.9382 257.428 98.987 257.434 99 257.447C99.0195 257.46 99.0293 257.509 99.0293 257.594V259.996H101.002ZM101.656 268.727C102.19 268.655 102.538 268.525 102.701 268.336C102.87 268.141 102.955 267.685 102.955 266.969V257.594C102.955 257.229 102.906 256.962 102.809 256.793C102.717 256.617 102.49 256.529 102.125 256.529C102.053 256.529 101.982 256.536 101.91 256.549C101.845 256.555 101.77 256.565 101.686 256.578V256.227C101.972 256.142 102.324 256.041 102.74 255.924C103.163 255.8 103.456 255.712 103.619 255.66L104.557 255.367L104.576 255.436V261.432C104.986 260.963 105.351 260.618 105.67 260.396C106.243 260.006 106.861 259.811 107.525 259.811C108.58 259.811 109.299 260.253 109.684 261.139C109.892 261.607 109.996 262.223 109.996 262.984V266.969C109.996 267.659 110.074 268.108 110.23 268.316C110.393 268.525 110.722 268.661 111.217 268.727V269H106.988V268.727C107.555 268.648 107.919 268.515 108.082 268.326C108.245 268.137 108.326 267.685 108.326 266.969V263.014C108.326 262.382 108.219 261.871 108.004 261.48C107.796 261.09 107.398 260.895 106.812 260.895C106.305 260.895 105.813 261.077 105.338 261.441C104.863 261.806 104.625 262.044 104.625 262.154V266.969C104.625 267.698 104.71 268.154 104.879 268.336C105.048 268.518 105.41 268.648 105.963 268.727V269H101.656V268.727ZM116.061 259.84C116.979 259.84 117.783 260.159 118.473 260.797C119.163 261.428 119.508 262.327 119.508 263.492H113.307C113.372 265.003 113.714 266.103 114.332 266.793C114.951 267.483 115.683 267.828 116.529 267.828C117.213 267.828 117.789 267.649 118.258 267.291C118.727 266.933 119.16 266.425 119.557 265.768L119.898 265.885C119.632 266.712 119.13 267.477 118.395 268.18C117.665 268.883 116.77 269.234 115.709 269.234C114.485 269.234 113.538 268.772 112.867 267.848C112.203 266.923 111.871 265.859 111.871 264.654C111.871 263.346 112.258 262.216 113.033 261.266C113.808 260.315 114.817 259.84 116.061 259.84ZM115.494 260.553C114.752 260.553 114.186 260.882 113.795 261.539C113.587 261.891 113.437 262.333 113.346 262.867H117.467C117.395 262.216 117.271 261.731 117.096 261.412C116.777 260.839 116.243 260.553 115.494 260.553ZM127.008 256.393C127.008 256.113 127.105 255.872 127.301 255.67C127.496 255.468 127.737 255.367 128.023 255.367C128.303 255.367 128.541 255.468 128.736 255.67C128.938 255.865 129.039 256.106 129.039 256.393C129.039 256.673 128.938 256.913 128.736 257.115C128.541 257.311 128.303 257.408 128.023 257.408C127.737 257.408 127.496 257.311 127.301 257.115C127.105 256.913 127.008 256.673 127.008 256.393ZM125.758 268.727C126.454 268.661 126.894 268.544 127.076 268.375C127.258 268.199 127.35 267.73 127.35 266.969V262.311C127.35 261.887 127.32 261.594 127.262 261.432C127.164 261.165 126.959 261.031 126.646 261.031C126.575 261.031 126.503 261.038 126.432 261.051C126.367 261.064 126.171 261.116 125.846 261.207V260.904L126.266 260.768C127.405 260.396 128.199 260.117 128.648 259.928C128.831 259.85 128.948 259.811 129 259.811C129.013 259.856 129.02 259.905 129.02 259.957V266.969C129.02 267.711 129.107 268.176 129.283 268.365C129.465 268.554 129.872 268.674 130.504 268.727V269H125.758V268.727ZM136.021 259.996V260.699H134.029L134.01 266.324C134.01 266.819 134.052 267.193 134.137 267.447C134.293 267.896 134.599 268.121 135.055 268.121C135.289 268.121 135.491 268.066 135.66 267.955C135.836 267.844 136.035 267.669 136.256 267.428L136.51 267.643L136.295 267.936C135.956 268.391 135.598 268.714 135.221 268.902C134.843 269.091 134.479 269.186 134.127 269.186C133.359 269.186 132.838 268.844 132.564 268.16C132.415 267.789 132.34 267.275 132.34 266.617V260.699H131.275C131.243 260.68 131.217 260.66 131.197 260.641C131.184 260.621 131.178 260.595 131.178 260.562C131.178 260.497 131.191 260.449 131.217 260.416C131.249 260.377 131.344 260.292 131.5 260.162C131.949 259.791 132.271 259.492 132.467 259.264C132.669 259.029 133.137 258.417 133.873 257.428C133.958 257.428 134.007 257.434 134.02 257.447C134.039 257.46 134.049 257.509 134.049 257.594V259.996H136.021ZM141.08 259.84C141.998 259.84 142.802 260.159 143.492 260.797C144.182 261.428 144.527 262.327 144.527 263.492H138.326C138.391 265.003 138.733 266.103 139.352 266.793C139.97 267.483 140.702 267.828 141.549 267.828C142.232 267.828 142.809 267.649 143.277 267.291C143.746 266.933 144.179 266.425 144.576 265.768L144.918 265.885C144.651 266.712 144.15 267.477 143.414 268.18C142.685 268.883 141.79 269.234 140.729 269.234C139.505 269.234 138.557 268.772 137.887 267.848C137.223 266.923 136.891 265.859 136.891 264.654C136.891 263.346 137.278 262.216 138.053 261.266C138.827 260.315 139.837 259.84 141.08 259.84ZM140.514 260.553C139.771 260.553 139.205 260.882 138.814 261.539C138.606 261.891 138.456 262.333 138.365 262.867H142.486C142.415 262.216 142.291 261.731 142.115 261.412C141.796 260.839 141.262 260.553 140.514 260.553ZM145.709 268.746C146.217 268.701 146.555 268.616 146.725 268.492C146.985 268.303 147.115 267.926 147.115 267.359V262.311C147.115 261.829 147.05 261.513 146.92 261.363C146.796 261.214 146.588 261.139 146.295 261.139C146.158 261.139 146.054 261.145 145.982 261.158C145.917 261.171 145.839 261.194 145.748 261.227V260.885L146.451 260.65C146.705 260.566 147.122 260.413 147.701 260.191C148.281 259.97 148.587 259.859 148.619 259.859C148.652 259.859 148.671 259.876 148.678 259.908C148.684 259.941 148.688 260.003 148.688 260.094V261.412C149.332 260.826 149.889 260.423 150.357 260.201C150.826 259.973 151.308 259.859 151.803 259.859C152.473 259.859 153.007 260.087 153.404 260.543C153.613 260.79 153.785 261.126 153.922 261.549C154.404 261.061 154.824 260.699 155.182 260.465C155.8 260.061 156.432 259.859 157.076 259.859C158.124 259.859 158.824 260.286 159.176 261.139C159.378 261.62 159.479 262.382 159.479 263.424V267.477C159.479 267.939 159.579 268.255 159.781 268.424C159.99 268.587 160.361 268.694 160.895 268.746V269H156.49V268.727C157.057 268.674 157.428 268.561 157.604 268.385C157.786 268.209 157.877 267.851 157.877 267.311V263.102C157.877 262.47 157.809 262.005 157.672 261.705C157.431 261.171 156.959 260.904 156.256 260.904C155.833 260.904 155.413 261.044 154.996 261.324C154.755 261.487 154.459 261.747 154.107 262.105V267.105C154.107 267.633 154.199 268.033 154.381 268.307C154.57 268.58 154.964 268.727 155.562 268.746V269H151.08V268.746C151.699 268.668 152.092 268.518 152.262 268.297C152.431 268.076 152.516 267.532 152.516 266.666V263.932C152.516 262.929 152.451 262.239 152.32 261.861C152.105 261.223 151.65 260.904 150.953 260.904C150.556 260.904 150.165 261.015 149.781 261.236C149.397 261.451 149.059 261.734 148.766 262.086V267.428C148.766 267.923 148.85 268.264 149.02 268.453C149.195 268.642 149.573 268.74 150.152 268.746V269H145.709V268.746ZM161.988 265.924H162.311C162.46 266.666 162.662 267.236 162.916 267.633C163.372 268.362 164.039 268.727 164.918 268.727C165.406 268.727 165.79 268.593 166.07 268.326C166.357 268.053 166.5 267.701 166.5 267.271C166.5 266.998 166.419 266.734 166.256 266.48C166.093 266.227 165.807 265.979 165.396 265.738L164.303 265.113C163.502 264.684 162.913 264.251 162.535 263.814C162.158 263.378 161.969 262.864 161.969 262.271C161.969 261.542 162.229 260.943 162.75 260.475C163.271 260.006 163.925 259.771 164.713 259.771C165.058 259.771 165.436 259.837 165.846 259.967C166.262 260.097 166.497 260.162 166.549 260.162C166.666 260.162 166.751 260.146 166.803 260.113C166.855 260.081 166.9 260.029 166.939 259.957H167.174L167.242 262.682H166.939C166.809 262.05 166.633 261.559 166.412 261.207C166.008 260.556 165.426 260.23 164.664 260.23C164.208 260.23 163.85 260.37 163.59 260.65C163.329 260.93 163.199 261.259 163.199 261.637C163.199 262.236 163.648 262.77 164.547 263.238L165.836 263.932C167.223 264.687 167.916 265.566 167.916 266.568C167.916 267.337 167.626 267.965 167.047 268.453C166.474 268.941 165.722 269.186 164.791 269.186C164.4 269.186 163.958 269.12 163.463 268.99C162.968 268.86 162.675 268.795 162.584 268.795C162.506 268.795 162.438 268.824 162.379 268.883C162.32 268.935 162.275 269 162.242 269.078H161.988V265.924ZM175.387 256.393C175.387 256.113 175.484 255.872 175.68 255.67C175.875 255.468 176.116 255.367 176.402 255.367C176.682 255.367 176.92 255.468 177.115 255.67C177.317 255.865 177.418 256.106 177.418 256.393C177.418 256.673 177.317 256.913 177.115 257.115C176.92 257.311 176.682 257.408 176.402 257.408C176.116 257.408 175.875 257.311 175.68 257.115C175.484 256.913 175.387 256.673 175.387 256.393ZM174.137 268.727C174.833 268.661 175.273 268.544 175.455 268.375C175.637 268.199 175.729 267.73 175.729 266.969V262.311C175.729 261.887 175.699 261.594 175.641 261.432C175.543 261.165 175.338 261.031 175.025 261.031C174.954 261.031 174.882 261.038 174.811 261.051C174.745 261.064 174.55 261.116 174.225 261.207V260.904L174.645 260.768C175.784 260.396 176.578 260.117 177.027 259.928C177.21 259.85 177.327 259.811 177.379 259.811C177.392 259.856 177.398 259.905 177.398 259.957V266.969C177.398 267.711 177.486 268.176 177.662 268.365C177.844 268.554 178.251 268.674 178.883 268.727V269H174.137V268.727ZM179.674 268.727C180.136 268.668 180.458 268.554 180.641 268.385C180.829 268.209 180.924 267.822 180.924 267.223V262.271C180.924 261.855 180.885 261.562 180.807 261.393C180.683 261.145 180.429 261.021 180.045 261.021C179.986 261.021 179.924 261.025 179.859 261.031C179.801 261.038 179.726 261.048 179.635 261.061V260.719C179.902 260.641 180.533 260.439 181.529 260.113L182.447 259.811C182.493 259.811 182.519 259.827 182.525 259.859C182.538 259.892 182.545 259.938 182.545 259.996V261.432C183.144 260.872 183.613 260.488 183.951 260.279C184.459 259.96 184.986 259.801 185.533 259.801C185.976 259.801 186.38 259.928 186.744 260.182C187.447 260.676 187.799 261.559 187.799 262.828V267.389C187.799 267.857 187.893 268.196 188.082 268.404C188.271 268.613 188.587 268.72 189.029 268.727V269H184.859V268.727C185.335 268.661 185.667 268.531 185.855 268.336C186.044 268.134 186.139 267.701 186.139 267.037V262.867C186.139 262.307 186.035 261.845 185.826 261.48C185.618 261.109 185.234 260.924 184.674 260.924C184.29 260.924 183.899 261.054 183.502 261.314C183.281 261.464 182.994 261.712 182.643 262.057V267.525C182.643 267.994 182.747 268.31 182.955 268.473C183.163 268.629 183.492 268.714 183.941 268.727V269H179.674V268.727ZM194.586 260.025H198.707V260.328C198.382 260.335 198.141 260.364 197.984 260.416C197.685 260.501 197.535 260.667 197.535 260.914C197.535 261.005 197.551 261.1 197.584 261.197C197.617 261.288 197.675 261.428 197.76 261.617L200.045 266.686L201.881 261.578C201.9 261.526 201.93 261.409 201.969 261.227C202.014 261.044 202.037 260.921 202.037 260.855C202.037 260.686 201.979 260.562 201.861 260.484C201.744 260.406 201.594 260.361 201.412 260.348L201.109 260.328V260.025H203.795V260.328C203.528 260.361 203.326 260.452 203.189 260.602C203.059 260.751 202.945 260.96 202.848 261.227L199.771 269.371C199.238 270.777 198.727 271.796 198.238 272.428C197.75 273.059 197.132 273.375 196.383 273.375C196.018 273.375 195.676 273.284 195.357 273.102C195.038 272.919 194.879 272.63 194.879 272.232C194.879 271.972 194.973 271.757 195.162 271.588C195.357 271.425 195.602 271.344 195.895 271.344C196.064 271.344 196.314 271.406 196.646 271.529C196.985 271.653 197.226 271.715 197.369 271.715C197.734 271.715 198.118 271.292 198.521 270.445C198.925 269.599 199.127 269.033 199.127 268.746C199.127 268.688 199.117 268.616 199.098 268.531C199.078 268.447 199.055 268.372 199.029 268.307L195.904 261.549C195.683 261.067 195.488 260.751 195.318 260.602C195.156 260.445 194.911 260.344 194.586 260.299V260.025ZM204.82 264.469C204.82 263.173 205.23 262.079 206.051 261.188C206.878 260.289 207.939 259.84 209.234 259.84C210.523 259.84 211.591 260.263 212.438 261.109C213.284 261.956 213.707 263.082 213.707 264.488C213.707 265.784 213.297 266.91 212.477 267.867C211.656 268.824 210.595 269.303 209.293 269.303C208.043 269.303 206.985 268.844 206.119 267.926C205.253 267.008 204.82 265.855 204.82 264.469ZM208.961 260.426C208.447 260.426 208.001 260.595 207.623 260.934C206.972 261.526 206.646 262.548 206.646 264C206.646 265.159 206.907 266.24 207.428 267.242C207.955 268.245 208.684 268.746 209.615 268.746C210.344 268.746 210.904 268.411 211.295 267.74C211.692 267.07 211.891 266.191 211.891 265.104C211.891 263.977 211.64 262.916 211.139 261.92C210.637 260.924 209.911 260.426 208.961 260.426ZM217.408 259.957V266.207C217.408 266.65 217.47 267.005 217.594 267.271C217.835 267.766 218.277 268.014 218.922 268.014C219.365 268.014 219.798 267.867 220.221 267.574C220.462 267.411 220.706 267.187 220.953 266.9V261.549C220.953 261.048 220.855 260.719 220.66 260.562C220.465 260.406 220.074 260.312 219.488 260.279V259.957H222.643V266.832C222.643 267.275 222.721 267.581 222.877 267.75C223.04 267.913 223.378 267.984 223.893 267.965V268.238C223.535 268.336 223.271 268.411 223.102 268.463C222.932 268.508 222.649 268.596 222.252 268.727C222.083 268.785 221.712 268.925 221.139 269.146C221.106 269.146 221.087 269.13 221.08 269.098C221.074 269.072 221.07 269.039 221.07 269V267.428C220.628 267.955 220.224 268.346 219.859 268.6C219.306 268.99 218.72 269.186 218.102 269.186C217.535 269.186 217.001 268.984 216.5 268.58C215.992 268.183 215.738 267.516 215.738 266.578V261.51C215.738 260.989 215.628 260.641 215.406 260.465C215.263 260.354 214.957 260.276 214.488 260.23V259.957H217.408ZM224.4 268.678C224.999 268.626 225.396 268.521 225.592 268.365C225.787 268.202 225.885 267.861 225.885 267.34V262.936C225.885 262.291 225.823 261.832 225.699 261.559C225.582 261.279 225.364 261.139 225.045 261.139C224.98 261.139 224.892 261.148 224.781 261.168C224.677 261.181 224.566 261.201 224.449 261.227V260.904C224.82 260.774 225.201 260.641 225.592 260.504C225.982 260.367 226.253 260.27 226.402 260.211C226.728 260.087 227.063 259.947 227.408 259.791C227.454 259.791 227.48 259.807 227.486 259.84C227.499 259.872 227.506 259.941 227.506 260.045V261.646C227.923 261.067 228.323 260.615 228.707 260.289C229.098 259.964 229.501 259.801 229.918 259.801C230.25 259.801 230.52 259.902 230.729 260.104C230.937 260.299 231.041 260.546 231.041 260.846C231.041 261.113 230.96 261.337 230.797 261.52C230.641 261.702 230.442 261.793 230.201 261.793C229.954 261.793 229.703 261.679 229.449 261.451C229.202 261.223 229.007 261.109 228.863 261.109C228.635 261.109 228.355 261.295 228.023 261.666C227.691 262.031 227.525 262.408 227.525 262.799V267.203C227.525 267.763 227.656 268.154 227.916 268.375C228.176 268.59 228.609 268.691 229.215 268.678V269H224.4V268.678ZM82.7207 291.727C83.4108 291.694 83.8633 291.567 84.0781 291.346C84.2995 291.118 84.4102 290.643 84.4102 289.92V283.65H82.7402V282.996H84.4102C84.4102 281.967 84.5501 281.098 84.8301 280.389C85.3639 279.028 86.3438 278.348 87.7695 278.348C88.3424 278.348 88.8535 278.462 89.3027 278.689C89.7585 278.917 89.9863 279.223 89.9863 279.607C89.9863 279.822 89.9082 280.014 89.752 280.184C89.5957 280.353 89.4069 280.438 89.1855 280.438C88.9967 280.438 88.834 280.382 88.6973 280.271C88.5605 280.154 88.3978 279.952 88.209 279.666L88.043 279.412C87.9518 279.275 87.8444 279.161 87.7207 279.07C87.597 278.973 87.4245 278.924 87.2031 278.924C86.7083 278.924 86.373 279.168 86.1973 279.656C86.0996 279.917 86.0508 280.258 86.0508 280.682V282.996H88.502V283.65H86.0703V289.92C86.0703 290.656 86.168 291.128 86.3633 291.336C86.5651 291.538 87.0859 291.668 87.9258 291.727V292H82.7207V291.727ZM89.498 287.469C89.498 286.173 89.9082 285.079 90.7285 284.188C91.5553 283.289 92.6165 282.84 93.9121 282.84C95.2012 282.84 96.2689 283.263 97.1152 284.109C97.9616 284.956 98.3848 286.082 98.3848 287.488C98.3848 288.784 97.9746 289.91 97.1543 290.867C96.334 291.824 95.2728 292.303 93.9707 292.303C92.7207 292.303 91.6628 291.844 90.7969 290.926C89.931 290.008 89.498 288.855 89.498 287.469ZM93.6387 283.426C93.1243 283.426 92.6784 283.595 92.3008 283.934C91.6497 284.526 91.3242 285.548 91.3242 287C91.3242 288.159 91.5846 289.24 92.1055 290.242C92.6328 291.245 93.362 291.746 94.293 291.746C95.0221 291.746 95.582 291.411 95.9727 290.74C96.3698 290.07 96.5684 289.191 96.5684 288.104C96.5684 286.977 96.3177 285.916 95.8164 284.92C95.3151 283.924 94.5892 283.426 93.6387 283.426ZM99.498 287.469C99.498 286.173 99.9082 285.079 100.729 284.188C101.555 283.289 102.617 282.84 103.912 282.84C105.201 282.84 106.269 283.263 107.115 284.109C107.962 284.956 108.385 286.082 108.385 287.488C108.385 288.784 107.975 289.91 107.154 290.867C106.334 291.824 105.273 292.303 103.971 292.303C102.721 292.303 101.663 291.844 100.797 290.926C99.931 290.008 99.498 288.855 99.498 287.469ZM103.639 283.426C103.124 283.426 102.678 283.595 102.301 283.934C101.65 284.526 101.324 285.548 101.324 287C101.324 288.159 101.585 289.24 102.105 290.242C102.633 291.245 103.362 291.746 104.293 291.746C105.022 291.746 105.582 291.411 105.973 290.74C106.37 290.07 106.568 289.191 106.568 288.104C106.568 286.977 106.318 285.916 105.816 284.92C105.315 283.924 104.589 283.426 103.639 283.426ZM113.727 282.771C114.202 282.771 114.638 282.876 115.035 283.084C115.296 283.221 115.546 283.41 115.787 283.65V280.545C115.787 280.148 115.742 279.874 115.65 279.725C115.566 279.575 115.357 279.5 115.025 279.5C114.947 279.5 114.879 279.503 114.82 279.51C114.762 279.516 114.632 279.529 114.43 279.549V279.227L115.23 279.021C115.523 278.943 115.816 278.862 116.109 278.777C116.402 278.693 116.66 278.611 116.881 278.533C116.985 278.501 117.158 278.439 117.398 278.348L117.457 278.367L117.438 279.393C117.431 279.764 117.424 280.148 117.418 280.545C117.411 280.936 117.408 281.323 117.408 281.707L117.389 289.686C117.389 290.109 117.441 290.405 117.545 290.574C117.649 290.743 117.926 290.828 118.375 290.828C118.447 290.828 118.518 290.828 118.59 290.828C118.661 290.822 118.733 290.812 118.805 290.799V291.121C118.766 291.134 118.294 291.297 117.389 291.609L115.855 292.186L115.787 292.098V290.896C115.423 291.294 115.107 291.577 114.84 291.746C114.365 292.039 113.814 292.186 113.189 292.186C112.083 292.186 111.184 291.759 110.494 290.906C109.811 290.047 109.469 289.054 109.469 287.928C109.469 286.515 109.879 285.304 110.699 284.295C111.526 283.279 112.535 282.771 113.727 282.771ZM114.088 291.131C114.596 291.131 115.006 290.981 115.318 290.682C115.631 290.382 115.787 290.099 115.787 289.832V285.643C115.787 284.796 115.559 284.201 115.104 283.855C114.654 283.504 114.215 283.328 113.785 283.328C112.965 283.328 112.327 283.693 111.871 284.422C111.415 285.145 111.188 286.036 111.188 287.098C111.188 288.146 111.428 289.08 111.91 289.9C112.398 290.721 113.124 291.131 114.088 291.131ZM125.631 279.393C125.631 279.113 125.729 278.872 125.924 278.67C126.119 278.468 126.36 278.367 126.646 278.367C126.926 278.367 127.164 278.468 127.359 278.67C127.561 278.865 127.662 279.106 127.662 279.393C127.662 279.673 127.561 279.913 127.359 280.115C127.164 280.311 126.926 280.408 126.646 280.408C126.36 280.408 126.119 280.311 125.924 280.115C125.729 279.913 125.631 279.673 125.631 279.393ZM124.381 291.727C125.077 291.661 125.517 291.544 125.699 291.375C125.882 291.199 125.973 290.73 125.973 289.969V285.311C125.973 284.887 125.943 284.594 125.885 284.432C125.787 284.165 125.582 284.031 125.27 284.031C125.198 284.031 125.126 284.038 125.055 284.051C124.99 284.064 124.794 284.116 124.469 284.207V283.904L124.889 283.768C126.028 283.396 126.822 283.117 127.271 282.928C127.454 282.85 127.571 282.811 127.623 282.811C127.636 282.856 127.643 282.905 127.643 282.957V289.969C127.643 290.711 127.73 291.176 127.906 291.365C128.089 291.554 128.495 291.674 129.127 291.727V292H124.381V291.727ZM129.918 291.727C130.38 291.668 130.702 291.554 130.885 291.385C131.074 291.209 131.168 290.822 131.168 290.223V285.271C131.168 284.855 131.129 284.562 131.051 284.393C130.927 284.145 130.673 284.021 130.289 284.021C130.23 284.021 130.169 284.025 130.104 284.031C130.045 284.038 129.97 284.048 129.879 284.061V283.719C130.146 283.641 130.777 283.439 131.773 283.113L132.691 282.811C132.737 282.811 132.763 282.827 132.77 282.859C132.783 282.892 132.789 282.938 132.789 282.996V284.432C133.388 283.872 133.857 283.488 134.195 283.279C134.703 282.96 135.23 282.801 135.777 282.801C136.22 282.801 136.624 282.928 136.988 283.182C137.691 283.676 138.043 284.559 138.043 285.828V290.389C138.043 290.857 138.137 291.196 138.326 291.404C138.515 291.613 138.831 291.72 139.273 291.727V292H135.104V291.727C135.579 291.661 135.911 291.531 136.1 291.336C136.288 291.134 136.383 290.701 136.383 290.037V285.867C136.383 285.307 136.279 284.845 136.07 284.48C135.862 284.109 135.478 283.924 134.918 283.924C134.534 283.924 134.143 284.054 133.746 284.314C133.525 284.464 133.238 284.712 132.887 285.057V290.525C132.887 290.994 132.991 291.31 133.199 291.473C133.408 291.629 133.736 291.714 134.186 291.727V292H129.918V291.727ZM143.854 282.928V283.23C143.515 283.27 143.274 283.322 143.131 283.387C142.994 283.452 142.926 283.595 142.926 283.816C142.926 283.921 142.939 284.021 142.965 284.119C142.997 284.21 143.049 284.347 143.121 284.529L145.152 289.578L146.91 285.105C146.995 284.891 147.073 284.666 147.145 284.432C147.223 284.197 147.262 284.018 147.262 283.895C147.262 283.641 147.141 283.458 146.9 283.348C146.757 283.289 146.562 283.25 146.314 283.23V282.928H149.088V283.23C148.769 283.257 148.538 283.364 148.395 283.553C148.258 283.735 148.056 284.161 147.789 284.832L144.967 291.863C144.915 291.987 144.872 292.072 144.84 292.117C144.807 292.163 144.762 292.186 144.703 292.186C144.638 292.186 144.583 292.146 144.537 292.068C144.492 291.997 144.443 291.906 144.391 291.795L141.402 284.646C141.161 284.067 140.904 283.673 140.631 283.465C140.468 283.348 140.23 283.27 139.918 283.23V282.928H143.854ZM154.137 282.84C155.055 282.84 155.859 283.159 156.549 283.797C157.239 284.428 157.584 285.327 157.584 286.492H151.383C151.448 288.003 151.79 289.103 152.408 289.793C153.027 290.483 153.759 290.828 154.605 290.828C155.289 290.828 155.865 290.649 156.334 290.291C156.803 289.933 157.236 289.425 157.633 288.768L157.975 288.885C157.708 289.712 157.206 290.477 156.471 291.18C155.742 291.883 154.846 292.234 153.785 292.234C152.561 292.234 151.614 291.772 150.943 290.848C150.279 289.923 149.947 288.859 149.947 287.654C149.947 286.346 150.335 285.216 151.109 284.266C151.884 283.315 152.893 282.84 154.137 282.84ZM153.57 283.553C152.828 283.553 152.262 283.882 151.871 284.539C151.663 284.891 151.513 285.333 151.422 285.867H155.543C155.471 285.216 155.348 284.731 155.172 284.412C154.853 283.839 154.319 283.553 153.57 283.553ZM158.805 291.727C159.267 291.668 159.589 291.554 159.771 291.385C159.96 291.209 160.055 290.822 160.055 290.223V285.271C160.055 284.855 160.016 284.562 159.938 284.393C159.814 284.145 159.56 284.021 159.176 284.021C159.117 284.021 159.055 284.025 158.99 284.031C158.932 284.038 158.857 284.048 158.766 284.061V283.719C159.033 283.641 159.664 283.439 160.66 283.113L161.578 282.811C161.624 282.811 161.65 282.827 161.656 282.859C161.669 282.892 161.676 282.938 161.676 282.996V284.432C162.275 283.872 162.743 283.488 163.082 283.279C163.59 282.96 164.117 282.801 164.664 282.801C165.107 282.801 165.51 282.928 165.875 283.182C166.578 283.676 166.93 284.559 166.93 285.828V290.389C166.93 290.857 167.024 291.196 167.213 291.404C167.402 291.613 167.717 291.72 168.16 291.727V292H163.99V291.727C164.465 291.661 164.798 291.531 164.986 291.336C165.175 291.134 165.27 290.701 165.27 290.037V285.867C165.27 285.307 165.165 284.845 164.957 284.48C164.749 284.109 164.365 283.924 163.805 283.924C163.421 283.924 163.03 284.054 162.633 284.314C162.411 284.464 162.125 284.712 161.773 285.057V290.525C161.773 290.994 161.878 291.31 162.086 291.473C162.294 291.629 162.623 291.714 163.072 291.727V292H158.805V291.727ZM173.531 282.996V283.699H171.539L171.52 289.324C171.52 289.819 171.562 290.193 171.646 290.447C171.803 290.896 172.109 291.121 172.564 291.121C172.799 291.121 173.001 291.066 173.17 290.955C173.346 290.844 173.544 290.669 173.766 290.428L174.02 290.643L173.805 290.936C173.466 291.391 173.108 291.714 172.73 291.902C172.353 292.091 171.988 292.186 171.637 292.186C170.868 292.186 170.348 291.844 170.074 291.16C169.924 290.789 169.85 290.275 169.85 289.617V283.699H168.785C168.753 283.68 168.727 283.66 168.707 283.641C168.694 283.621 168.688 283.595 168.688 283.562C168.688 283.497 168.701 283.449 168.727 283.416C168.759 283.377 168.854 283.292 169.01 283.162C169.459 282.791 169.781 282.492 169.977 282.264C170.178 282.029 170.647 281.417 171.383 280.428C171.467 280.428 171.516 280.434 171.529 280.447C171.549 280.46 171.559 280.509 171.559 280.594V282.996H173.531ZM174.518 287.469C174.518 286.173 174.928 285.079 175.748 284.188C176.575 283.289 177.636 282.84 178.932 282.84C180.221 282.84 181.288 283.263 182.135 284.109C182.981 284.956 183.404 286.082 183.404 287.488C183.404 288.784 182.994 289.91 182.174 290.867C181.354 291.824 180.292 292.303 178.99 292.303C177.74 292.303 176.682 291.844 175.816 290.926C174.951 290.008 174.518 288.855 174.518 287.469ZM178.658 283.426C178.144 283.426 177.698 283.595 177.32 283.934C176.669 284.526 176.344 285.548 176.344 287C176.344 288.159 176.604 289.24 177.125 290.242C177.652 291.245 178.382 291.746 179.312 291.746C180.042 291.746 180.602 291.411 180.992 290.74C181.389 290.07 181.588 289.191 181.588 288.104C181.588 286.977 181.337 285.916 180.836 284.92C180.335 283.924 179.609 283.426 178.658 283.426ZM184.098 291.678C184.697 291.626 185.094 291.521 185.289 291.365C185.484 291.202 185.582 290.861 185.582 290.34V285.936C185.582 285.291 185.52 284.832 185.396 284.559C185.279 284.279 185.061 284.139 184.742 284.139C184.677 284.139 184.589 284.148 184.479 284.168C184.374 284.181 184.264 284.201 184.146 284.227V283.904C184.518 283.774 184.898 283.641 185.289 283.504C185.68 283.367 185.95 283.27 186.1 283.211C186.425 283.087 186.76 282.947 187.105 282.791C187.151 282.791 187.177 282.807 187.184 282.84C187.197 282.872 187.203 282.941 187.203 283.045V284.646C187.62 284.067 188.02 283.615 188.404 283.289C188.795 282.964 189.199 282.801 189.615 282.801C189.947 282.801 190.217 282.902 190.426 283.104C190.634 283.299 190.738 283.546 190.738 283.846C190.738 284.113 190.657 284.337 190.494 284.52C190.338 284.702 190.139 284.793 189.898 284.793C189.651 284.793 189.4 284.679 189.146 284.451C188.899 284.223 188.704 284.109 188.561 284.109C188.333 284.109 188.053 284.295 187.721 284.666C187.389 285.031 187.223 285.408 187.223 285.799V290.203C187.223 290.763 187.353 291.154 187.613 291.375C187.874 291.59 188.307 291.691 188.912 291.678V292H184.098V291.678ZM190.943 283.025H195.064V283.328C194.739 283.335 194.498 283.364 194.342 283.416C194.042 283.501 193.893 283.667 193.893 283.914C193.893 284.005 193.909 284.1 193.941 284.197C193.974 284.288 194.033 284.428 194.117 284.617L196.402 289.686L198.238 284.578C198.258 284.526 198.287 284.409 198.326 284.227C198.372 284.044 198.395 283.921 198.395 283.855C198.395 283.686 198.336 283.562 198.219 283.484C198.102 283.406 197.952 283.361 197.77 283.348L197.467 283.328V283.025H200.152V283.328C199.885 283.361 199.684 283.452 199.547 283.602C199.417 283.751 199.303 283.96 199.205 284.227L196.129 292.371C195.595 293.777 195.084 294.796 194.596 295.428C194.107 296.059 193.489 296.375 192.74 296.375C192.376 296.375 192.034 296.284 191.715 296.102C191.396 295.919 191.236 295.63 191.236 295.232C191.236 294.972 191.331 294.757 191.52 294.588C191.715 294.425 191.959 294.344 192.252 294.344C192.421 294.344 192.672 294.406 193.004 294.529C193.342 294.653 193.583 294.715 193.727 294.715C194.091 294.715 194.475 294.292 194.879 293.445C195.283 292.599 195.484 292.033 195.484 291.746C195.484 291.688 195.475 291.616 195.455 291.531C195.436 291.447 195.413 291.372 195.387 291.307L192.262 284.549C192.04 284.067 191.845 283.751 191.676 283.602C191.513 283.445 191.269 283.344 190.943 283.299V283.025Z" fill="#FA5629"/>
</g>
<defs>
<filter id="filter0_ii_1_35" x="0" y="0" width="278" height="350" filterUnits="userSpaceOnUse" color-interpolation-filters="sRGB">
<feFlood flood-opacity="0" result="BackgroundImageFix"/>
<feBlend mode="normal" in="SourceGraphic" in2="BackgroundImageFix" result="shape"/>
<feColorMatrix in="SourceAlpha" type="matrix" values="0 0 0 0 0 0 0 0 0 0 0 0 0 0 0 0 0 0 127 0" result="hardAlpha"/>
<feOffset dy="4"/>
<feGaussianBlur stdDeviation="2"/>
<feComposite in2="hardAlpha" operator="arithmetic" k2="-1" k3="1"/>
<feColorMatrix type="matrix" values="0 0 0 0 0 0 0 0 0 0 0 0 0 0 0 0 0 0 0.25 0"/>
<feBlend mode="normal" in2="shape" result="effect1_innerShadow_1_35"/>
<feColorMatrix in="SourceAlpha" type="matrix" values="0 0 0 0 0 0 0 0 0 0 0 0 0 0 0 0 0 0 127 0" result="hardAlpha"/>
<feOffset dy="4"/>
<feGaussianBlur stdDeviation="2"/>
<feComposite in2="hardAlpha" operator="arithmetic" k2="-1" k3="1"/>
<feColorMatrix type="matrix" values="0 0 0 0 0 0 0 0 0 0 0 0 0 0 0 0 0 0 0.25 0"/>
<feBlend mode="normal" in2="effect1_innerShadow_1_35" result="effect2_innerShadow_1_35"/>
</filter>
</defs>
</svg>
