<svg width="278" height="346" viewBox="0 0 278 346" fill="none" xmlns="http://www.w3.org/2000/svg">
<g filter="url(#filter0_ii_1_33)">
<rect width="278" height="346" rx="29" fill="white"/>
<rect width="98" height="96" transform="translate(90 62)" fill="#FA5629"/>
<path d="M175.75 98L159.417 82V94H130.833V102H159.417V114M118.583 106L102.25 122L118.583 138V126H147.167V118H118.583V106Z" fill="white"/>
<path d="M68.4648 201.389C68.4648 203.492 68.8783 205.048 69.7051 206.057C70.5319 207.059 71.5475 207.561 72.752 207.561C73.9303 207.561 74.9362 207.072 75.7695 206.096C76.6094 205.113 77.0293 203.544 77.0293 201.389C77.0293 199.208 76.6061 197.632 75.7598 196.662C74.9134 195.692 73.9108 195.207 72.752 195.207C71.554 195.207 70.5384 195.712 69.7051 196.721C68.8783 197.723 68.4648 199.279 68.4648 201.389ZM66.1992 201.389C66.1992 199.253 66.8698 197.541 68.2109 196.252C69.4414 195.074 70.9551 194.484 72.752 194.484C74.5553 194.484 76.0723 195.077 77.3027 196.262C78.6374 197.544 79.3047 199.253 79.3047 201.389C79.3047 203.557 78.6146 205.282 77.2344 206.564C75.9974 207.71 74.5033 208.283 72.752 208.283C70.877 208.283 69.321 207.648 68.084 206.379C66.8275 205.083 66.1992 203.42 66.1992 201.389ZM83.1523 198.957V205.207C83.1523 205.65 83.2142 206.005 83.3379 206.271C83.5788 206.766 84.0215 207.014 84.666 207.014C85.1087 207.014 85.5417 206.867 85.9648 206.574C86.2057 206.411 86.4499 206.187 86.6973 205.9V200.549C86.6973 200.048 86.5996 199.719 86.4043 199.562C86.209 199.406 85.8184 199.312 85.2324 199.279V198.957H88.3867V205.832C88.3867 206.275 88.4648 206.581 88.6211 206.75C88.7839 206.913 89.1224 206.984 89.6367 206.965V207.238C89.2786 207.336 89.015 207.411 88.8457 207.463C88.6764 207.508 88.3932 207.596 87.9961 207.727C87.8268 207.785 87.4557 207.925 86.8828 208.146C86.8503 208.146 86.8307 208.13 86.8242 208.098C86.8177 208.072 86.8145 208.039 86.8145 208V206.428C86.3717 206.955 85.9681 207.346 85.6035 207.6C85.0501 207.99 84.4642 208.186 83.8457 208.186C83.2793 208.186 82.7454 207.984 82.2441 207.58C81.7363 207.183 81.4824 206.516 81.4824 205.578V200.51C81.4824 199.989 81.3717 199.641 81.1504 199.465C81.0072 199.354 80.7012 199.276 80.2324 199.23V198.957H83.1523ZM90.1445 207.678C90.7435 207.626 91.1406 207.521 91.3359 207.365C91.5312 207.202 91.6289 206.861 91.6289 206.34V201.936C91.6289 201.291 91.5671 200.832 91.4434 200.559C91.3262 200.279 91.1081 200.139 90.7891 200.139C90.724 200.139 90.6361 200.148 90.5254 200.168C90.4212 200.181 90.3105 200.201 90.1934 200.227V199.904C90.5645 199.774 90.9453 199.641 91.3359 199.504C91.7266 199.367 91.9967 199.27 92.1465 199.211C92.472 199.087 92.8073 198.947 93.1523 198.791C93.1979 198.791 93.224 198.807 93.2305 198.84C93.2435 198.872 93.25 198.941 93.25 199.045V200.646C93.6667 200.067 94.0671 199.615 94.4512 199.289C94.8418 198.964 95.2454 198.801 95.6621 198.801C95.9941 198.801 96.2643 198.902 96.4727 199.104C96.681 199.299 96.7852 199.546 96.7852 199.846C96.7852 200.113 96.7038 200.337 96.541 200.52C96.3848 200.702 96.1862 200.793 95.9453 200.793C95.6979 200.793 95.4473 200.679 95.1934 200.451C94.946 200.223 94.7507 200.109 94.6074 200.109C94.3796 200.109 94.0996 200.295 93.7676 200.666C93.4355 201.031 93.2695 201.408 93.2695 201.799V206.203C93.2695 206.763 93.3997 207.154 93.6602 207.375C93.9206 207.59 94.3535 207.691 94.959 207.678V208H90.1445V207.678ZM104.812 198.957V205.207C104.812 205.65 104.874 206.005 104.998 206.271C105.239 206.766 105.682 207.014 106.326 207.014C106.769 207.014 107.202 206.867 107.625 206.574C107.866 206.411 108.11 206.187 108.357 205.9V200.549C108.357 200.048 108.26 199.719 108.064 199.562C107.869 199.406 107.479 199.312 106.893 199.279V198.957H110.047V205.832C110.047 206.275 110.125 206.581 110.281 206.75C110.444 206.913 110.783 206.984 111.297 206.965V207.238C110.939 207.336 110.675 207.411 110.506 207.463C110.337 207.508 110.053 207.596 109.656 207.727C109.487 207.785 109.116 207.925 108.543 208.146C108.51 208.146 108.491 208.13 108.484 208.098C108.478 208.072 108.475 208.039 108.475 208V206.428C108.032 206.955 107.628 207.346 107.264 207.6C106.71 207.99 106.124 208.186 105.506 208.186C104.939 208.186 104.406 207.984 103.904 207.58C103.396 207.183 103.143 206.516 103.143 205.578V200.51C103.143 199.989 103.032 199.641 102.811 199.465C102.667 199.354 102.361 199.276 101.893 199.23V198.957H104.812ZM112.078 207.727C112.54 207.668 112.863 207.554 113.045 207.385C113.234 207.209 113.328 206.822 113.328 206.223V201.271C113.328 200.855 113.289 200.562 113.211 200.393C113.087 200.145 112.833 200.021 112.449 200.021C112.391 200.021 112.329 200.025 112.264 200.031C112.205 200.038 112.13 200.048 112.039 200.061V199.719C112.306 199.641 112.938 199.439 113.934 199.113L114.852 198.811C114.897 198.811 114.923 198.827 114.93 198.859C114.943 198.892 114.949 198.938 114.949 198.996V200.432C115.548 199.872 116.017 199.488 116.355 199.279C116.863 198.96 117.391 198.801 117.938 198.801C118.38 198.801 118.784 198.928 119.148 199.182C119.852 199.676 120.203 200.559 120.203 201.828V206.389C120.203 206.857 120.298 207.196 120.486 207.404C120.675 207.613 120.991 207.72 121.434 207.727V208H117.264V207.727C117.739 207.661 118.071 207.531 118.26 207.336C118.449 207.134 118.543 206.701 118.543 206.037V201.867C118.543 201.307 118.439 200.845 118.23 200.48C118.022 200.109 117.638 199.924 117.078 199.924C116.694 199.924 116.303 200.054 115.906 200.314C115.685 200.464 115.398 200.712 115.047 201.057V206.525C115.047 206.994 115.151 207.31 115.359 207.473C115.568 207.629 115.896 207.714 116.346 207.727V208H112.078V207.727ZM123.357 195.393C123.357 195.113 123.455 194.872 123.65 194.67C123.846 194.468 124.087 194.367 124.373 194.367C124.653 194.367 124.891 194.468 125.086 194.67C125.288 194.865 125.389 195.106 125.389 195.393C125.389 195.673 125.288 195.913 125.086 196.115C124.891 196.311 124.653 196.408 124.373 196.408C124.087 196.408 123.846 196.311 123.65 196.115C123.455 195.913 123.357 195.673 123.357 195.393ZM122.107 207.727C122.804 207.661 123.243 207.544 123.426 207.375C123.608 207.199 123.699 206.73 123.699 205.969V201.311C123.699 200.887 123.67 200.594 123.611 200.432C123.514 200.165 123.309 200.031 122.996 200.031C122.924 200.031 122.853 200.038 122.781 200.051C122.716 200.064 122.521 200.116 122.195 200.207V199.904L122.615 199.768C123.755 199.396 124.549 199.117 124.998 198.928C125.18 198.85 125.298 198.811 125.35 198.811C125.363 198.856 125.369 198.905 125.369 198.957V205.969C125.369 206.711 125.457 207.176 125.633 207.365C125.815 207.554 126.222 207.674 126.854 207.727V208H122.107V207.727ZM132.371 198.996V199.699H130.379L130.359 205.324C130.359 205.819 130.402 206.193 130.486 206.447C130.643 206.896 130.949 207.121 131.404 207.121C131.639 207.121 131.84 207.066 132.01 206.955C132.186 206.844 132.384 206.669 132.605 206.428L132.859 206.643L132.645 206.936C132.306 207.391 131.948 207.714 131.57 207.902C131.193 208.091 130.828 208.186 130.477 208.186C129.708 208.186 129.188 207.844 128.914 207.16C128.764 206.789 128.689 206.275 128.689 205.617V199.699H127.625C127.592 199.68 127.566 199.66 127.547 199.641C127.534 199.621 127.527 199.595 127.527 199.562C127.527 199.497 127.54 199.449 127.566 199.416C127.599 199.377 127.693 199.292 127.85 199.162C128.299 198.791 128.621 198.492 128.816 198.264C129.018 198.029 129.487 197.417 130.223 196.428C130.307 196.428 130.356 196.434 130.369 196.447C130.389 196.46 130.398 196.509 130.398 196.594V198.996H132.371ZM142.82 198.791C143.634 198.791 144.334 199.003 144.92 199.426C145.512 199.842 145.809 200.301 145.809 200.803C145.809 201.018 145.734 201.219 145.584 201.408C145.434 201.59 145.203 201.682 144.891 201.682C144.663 201.682 144.461 201.604 144.285 201.447C144.116 201.291 143.992 201.063 143.914 200.764L143.797 200.295C143.712 199.95 143.566 199.706 143.357 199.562C143.143 199.426 142.859 199.357 142.508 199.357C141.766 199.357 141.137 199.683 140.623 200.334C140.115 200.979 139.861 201.838 139.861 202.912C139.861 203.895 140.141 204.777 140.701 205.559C141.268 206.34 142.029 206.73 142.986 206.73C143.663 206.73 144.266 206.509 144.793 206.066C145.092 205.812 145.431 205.409 145.809 204.855L146.082 205.021C145.711 205.803 145.32 206.421 144.91 206.877C144.122 207.749 143.211 208.186 142.176 208.186C141.16 208.186 140.262 207.785 139.48 206.984C138.699 206.184 138.309 205.096 138.309 203.723C138.309 202.375 138.735 201.216 139.588 200.246C140.441 199.276 141.518 198.791 142.82 198.791ZM147.244 203.469C147.244 202.173 147.654 201.079 148.475 200.188C149.301 199.289 150.363 198.84 151.658 198.84C152.947 198.84 154.015 199.263 154.861 200.109C155.708 200.956 156.131 202.082 156.131 203.488C156.131 204.784 155.721 205.91 154.9 206.867C154.08 207.824 153.019 208.303 151.717 208.303C150.467 208.303 149.409 207.844 148.543 206.926C147.677 206.008 147.244 204.855 147.244 203.469ZM151.385 199.426C150.87 199.426 150.424 199.595 150.047 199.934C149.396 200.526 149.07 201.548 149.07 203C149.07 204.159 149.331 205.24 149.852 206.242C150.379 207.245 151.108 207.746 152.039 207.746C152.768 207.746 153.328 207.411 153.719 206.74C154.116 206.07 154.314 205.191 154.314 204.104C154.314 202.977 154.064 201.916 153.562 200.92C153.061 199.924 152.335 199.426 151.385 199.426ZM157.098 207.727C157.56 207.668 157.882 207.554 158.064 207.385C158.253 207.209 158.348 206.822 158.348 206.223V201.271C158.348 200.855 158.309 200.562 158.23 200.393C158.107 200.145 157.853 200.021 157.469 200.021C157.41 200.021 157.348 200.025 157.283 200.031C157.225 200.038 157.15 200.048 157.059 200.061V199.719C157.326 199.641 157.957 199.439 158.953 199.113L159.871 198.811C159.917 198.811 159.943 198.827 159.949 198.859C159.962 198.892 159.969 198.938 159.969 198.996V200.432C160.568 199.872 161.036 199.488 161.375 199.279C161.883 198.96 162.41 198.801 162.957 198.801C163.4 198.801 163.803 198.928 164.168 199.182C164.871 199.676 165.223 200.559 165.223 201.828V206.389C165.223 206.857 165.317 207.196 165.506 207.404C165.695 207.613 166.01 207.72 166.453 207.727V208H162.283V207.727C162.758 207.661 163.09 207.531 163.279 207.336C163.468 207.134 163.562 206.701 163.562 206.037V201.867C163.562 201.307 163.458 200.845 163.25 200.48C163.042 200.109 162.658 199.924 162.098 199.924C161.714 199.924 161.323 200.054 160.926 200.314C160.704 200.464 160.418 200.712 160.066 201.057V206.525C160.066 206.994 160.171 207.31 160.379 207.473C160.587 207.629 160.916 207.714 161.365 207.727V208H157.098V207.727ZM171.033 198.928V199.23C170.695 199.27 170.454 199.322 170.311 199.387C170.174 199.452 170.105 199.595 170.105 199.816C170.105 199.921 170.118 200.021 170.145 200.119C170.177 200.21 170.229 200.347 170.301 200.529L172.332 205.578L174.09 201.105C174.174 200.891 174.253 200.666 174.324 200.432C174.402 200.197 174.441 200.018 174.441 199.895C174.441 199.641 174.321 199.458 174.08 199.348C173.937 199.289 173.742 199.25 173.494 199.23V198.928H176.268V199.23C175.949 199.257 175.717 199.364 175.574 199.553C175.438 199.735 175.236 200.161 174.969 200.832L172.146 207.863C172.094 207.987 172.052 208.072 172.02 208.117C171.987 208.163 171.941 208.186 171.883 208.186C171.818 208.186 171.762 208.146 171.717 208.068C171.671 207.997 171.622 207.906 171.57 207.795L168.582 200.646C168.341 200.067 168.084 199.673 167.811 199.465C167.648 199.348 167.41 199.27 167.098 199.23V198.928H171.033ZM181.316 198.84C182.234 198.84 183.038 199.159 183.729 199.797C184.419 200.428 184.764 201.327 184.764 202.492H178.562C178.628 204.003 178.969 205.103 179.588 205.793C180.206 206.483 180.939 206.828 181.785 206.828C182.469 206.828 183.045 206.649 183.514 206.291C183.982 205.933 184.415 205.425 184.812 204.768L185.154 204.885C184.887 205.712 184.386 206.477 183.65 207.18C182.921 207.883 182.026 208.234 180.965 208.234C179.741 208.234 178.794 207.772 178.123 206.848C177.459 205.923 177.127 204.859 177.127 203.654C177.127 202.346 177.514 201.216 178.289 200.266C179.064 199.315 180.073 198.84 181.316 198.84ZM180.75 199.553C180.008 199.553 179.441 199.882 179.051 200.539C178.842 200.891 178.693 201.333 178.602 201.867H182.723C182.651 201.216 182.527 200.731 182.352 200.412C182.033 199.839 181.499 199.553 180.75 199.553ZM185.711 207.678C186.31 207.626 186.707 207.521 186.902 207.365C187.098 207.202 187.195 206.861 187.195 206.34V201.936C187.195 201.291 187.133 200.832 187.01 200.559C186.893 200.279 186.674 200.139 186.355 200.139C186.29 200.139 186.202 200.148 186.092 200.168C185.988 200.181 185.877 200.201 185.76 200.227V199.904C186.131 199.774 186.512 199.641 186.902 199.504C187.293 199.367 187.563 199.27 187.713 199.211C188.038 199.087 188.374 198.947 188.719 198.791C188.764 198.791 188.79 198.807 188.797 198.84C188.81 198.872 188.816 198.941 188.816 199.045V200.646C189.233 200.067 189.633 199.615 190.018 199.289C190.408 198.964 190.812 198.801 191.229 198.801C191.561 198.801 191.831 198.902 192.039 199.104C192.247 199.299 192.352 199.546 192.352 199.846C192.352 200.113 192.27 200.337 192.107 200.52C191.951 200.702 191.753 200.793 191.512 200.793C191.264 200.793 191.014 200.679 190.76 200.451C190.512 200.223 190.317 200.109 190.174 200.109C189.946 200.109 189.666 200.295 189.334 200.666C189.002 201.031 188.836 201.408 188.836 201.799V206.203C188.836 206.763 188.966 207.154 189.227 207.375C189.487 207.59 189.92 207.691 190.525 207.678V208H185.711V207.678ZM197.371 198.996V199.699H195.379L195.359 205.324C195.359 205.819 195.402 206.193 195.486 206.447C195.643 206.896 195.949 207.121 196.404 207.121C196.639 207.121 196.84 207.066 197.01 206.955C197.186 206.844 197.384 206.669 197.605 206.428L197.859 206.643L197.645 206.936C197.306 207.391 196.948 207.714 196.57 207.902C196.193 208.091 195.828 208.186 195.477 208.186C194.708 208.186 194.188 207.844 193.914 207.16C193.764 206.789 193.689 206.275 193.689 205.617V199.699H192.625C192.592 199.68 192.566 199.66 192.547 199.641C192.534 199.621 192.527 199.595 192.527 199.562C192.527 199.497 192.54 199.449 192.566 199.416C192.599 199.377 192.693 199.292 192.85 199.162C193.299 198.791 193.621 198.492 193.816 198.264C194.018 198.029 194.487 197.417 195.223 196.428C195.307 196.428 195.356 196.434 195.369 196.447C195.389 196.46 195.398 196.509 195.398 196.594V198.996H197.371ZM202.43 198.84C203.348 198.84 204.152 199.159 204.842 199.797C205.532 200.428 205.877 201.327 205.877 202.492H199.676C199.741 204.003 200.083 205.103 200.701 205.793C201.32 206.483 202.052 206.828 202.898 206.828C203.582 206.828 204.158 206.649 204.627 206.291C205.096 205.933 205.529 205.425 205.926 204.768L206.268 204.885C206.001 205.712 205.499 206.477 204.764 207.18C204.035 207.883 203.139 208.234 202.078 208.234C200.854 208.234 199.907 207.772 199.236 206.848C198.572 205.923 198.24 204.859 198.24 203.654C198.24 202.346 198.628 201.216 199.402 200.266C200.177 199.315 201.186 198.84 202.43 198.84ZM201.863 199.553C201.121 199.553 200.555 199.882 200.164 200.539C199.956 200.891 199.806 201.333 199.715 201.867H203.836C203.764 201.216 203.641 200.731 203.465 200.412C203.146 199.839 202.612 199.553 201.863 199.553ZM206.824 207.678C207.423 207.626 207.82 207.521 208.016 207.365C208.211 207.202 208.309 206.861 208.309 206.34V201.936C208.309 201.291 208.247 200.832 208.123 200.559C208.006 200.279 207.788 200.139 207.469 200.139C207.404 200.139 207.316 200.148 207.205 200.168C207.101 200.181 206.99 200.201 206.873 200.227V199.904C207.244 199.774 207.625 199.641 208.016 199.504C208.406 199.367 208.676 199.27 208.826 199.211C209.152 199.087 209.487 198.947 209.832 198.791C209.878 198.791 209.904 198.807 209.91 198.84C209.923 198.872 209.93 198.941 209.93 199.045V200.646C210.346 200.067 210.747 199.615 211.131 199.289C211.521 198.964 211.925 198.801 212.342 198.801C212.674 198.801 212.944 198.902 213.152 199.104C213.361 199.299 213.465 199.546 213.465 199.846C213.465 200.113 213.383 200.337 213.221 200.52C213.064 200.702 212.866 200.793 212.625 200.793C212.378 200.793 212.127 200.679 211.873 200.451C211.626 200.223 211.43 200.109 211.287 200.109C211.059 200.109 210.779 200.295 210.447 200.666C210.115 201.031 209.949 201.408 209.949 201.799V206.203C209.949 206.763 210.079 207.154 210.34 207.375C210.6 207.59 211.033 207.691 211.639 207.678V208H206.824V207.678ZM52.9277 230.727C53.6178 230.694 54.0703 230.567 54.2852 230.346C54.5065 230.118 54.6172 229.643 54.6172 228.92V222.65H52.9473V221.996H54.6172C54.6172 220.967 54.7572 220.098 55.0371 219.389C55.571 218.028 56.5508 217.348 57.9766 217.348C58.5495 217.348 59.0605 217.462 59.5098 217.689C59.9655 217.917 60.1934 218.223 60.1934 218.607C60.1934 218.822 60.1152 219.014 59.959 219.184C59.8027 219.353 59.6139 219.438 59.3926 219.438C59.2038 219.438 59.041 219.382 58.9043 219.271C58.7676 219.154 58.6048 218.952 58.416 218.666L58.25 218.412C58.1589 218.275 58.0514 218.161 57.9277 218.07C57.804 217.973 57.6315 217.924 57.4102 217.924C56.9154 217.924 56.5801 218.168 56.4043 218.656C56.3066 218.917 56.2578 219.258 56.2578 219.682V221.996H58.709V222.65H56.2773V228.92C56.2773 229.656 56.375 230.128 56.5703 230.336C56.7721 230.538 57.293 230.668 58.1328 230.727V231H52.9277V230.727ZM63.7773 221.84C64.6953 221.84 65.4993 222.159 66.1895 222.797C66.8796 223.428 67.2246 224.327 67.2246 225.492H61.0234C61.0885 227.003 61.4303 228.103 62.0488 228.793C62.6673 229.483 63.3997 229.828 64.2461 229.828C64.9297 229.828 65.5059 229.649 65.9746 229.291C66.4434 228.933 66.8763 228.425 67.2734 227.768L67.6152 227.885C67.3483 228.712 66.847 229.477 66.1113 230.18C65.3822 230.883 64.487 231.234 63.4258 231.234C62.2018 231.234 61.2546 230.772 60.584 229.848C59.9199 228.923 59.5879 227.859 59.5879 226.654C59.5879 225.346 59.9753 224.216 60.75 223.266C61.5247 222.315 62.5339 221.84 63.7773 221.84ZM63.2109 222.553C62.4688 222.553 61.9023 222.882 61.5117 223.539C61.3034 223.891 61.1536 224.333 61.0625 224.867H65.1836C65.112 224.216 64.9883 223.731 64.8125 223.412C64.4935 222.839 63.9596 222.553 63.2109 222.553ZM73.8164 225.59C73.0677 225.837 72.4492 226.111 71.9609 226.41C71.0234 226.99 70.5547 227.647 70.5547 228.383C70.5547 228.975 70.75 229.411 71.1406 229.691C71.3945 229.874 71.6777 229.965 71.9902 229.965C72.4199 229.965 72.8301 229.844 73.2207 229.604C73.6178 229.363 73.8164 229.057 73.8164 228.686V225.59ZM68.8164 229.057C68.8164 228.113 69.2884 227.325 70.2324 226.693C70.8314 226.303 72.026 225.772 73.8164 225.102V224.271C73.8164 223.607 73.7513 223.145 73.6211 222.885C73.3997 222.449 72.9408 222.23 72.2441 222.23C71.9121 222.23 71.5964 222.315 71.2969 222.484C70.9974 222.66 70.8477 222.901 70.8477 223.207C70.8477 223.285 70.8639 223.419 70.8965 223.607C70.929 223.79 70.9453 223.907 70.9453 223.959C70.9453 224.324 70.8249 224.577 70.584 224.721C70.4473 224.805 70.2845 224.848 70.0957 224.848C69.8027 224.848 69.5781 224.753 69.4219 224.564C69.2656 224.369 69.1875 224.154 69.1875 223.92C69.1875 223.464 69.4674 222.989 70.0273 222.494C70.5938 221.993 71.4206 221.742 72.5078 221.742C73.7708 221.742 74.627 222.152 75.0762 222.973C75.3171 223.422 75.4375 224.076 75.4375 224.936V228.852C75.4375 229.229 75.4635 229.49 75.5156 229.633C75.6003 229.887 75.776 230.014 76.043 230.014C76.1927 230.014 76.3164 229.991 76.4141 229.945C76.5117 229.9 76.681 229.789 76.9219 229.613V230.121C76.7135 230.375 76.4889 230.583 76.248 230.746C75.8835 230.993 75.5124 231.117 75.1348 231.117C74.6921 231.117 74.3698 230.974 74.168 230.688C73.9727 230.401 73.8652 230.059 73.8457 229.662C73.3509 230.092 72.9277 230.411 72.5762 230.619C71.9837 230.971 71.4206 231.146 70.8867 231.146C70.3268 231.146 69.8418 230.951 69.4316 230.561C69.0215 230.163 68.8164 229.662 68.8164 229.057ZM82.0586 221.996V222.699H80.0664L80.0469 228.324C80.0469 228.819 80.0892 229.193 80.1738 229.447C80.3301 229.896 80.6361 230.121 81.0918 230.121C81.3262 230.121 81.528 230.066 81.6973 229.955C81.873 229.844 82.0716 229.669 82.293 229.428L82.5469 229.643L82.332 229.936C81.9935 230.391 81.6354 230.714 81.2578 230.902C80.8802 231.091 80.5156 231.186 80.1641 231.186C79.3958 231.186 78.875 230.844 78.6016 230.16C78.4518 229.789 78.377 229.275 78.377 228.617V222.699H77.3125C77.2799 222.68 77.2539 222.66 77.2344 222.641C77.2214 222.621 77.2148 222.595 77.2148 222.562C77.2148 222.497 77.2279 222.449 77.2539 222.416C77.2865 222.377 77.3809 222.292 77.5371 222.162C77.9863 221.791 78.3086 221.492 78.5039 221.264C78.7057 221.029 79.1745 220.417 79.9102 219.428C79.9948 219.428 80.0436 219.434 80.0566 219.447C80.0762 219.46 80.0859 219.509 80.0859 219.594V221.996H82.0586ZM85.6328 221.957V228.207C85.6328 228.65 85.6947 229.005 85.8184 229.271C86.0592 229.766 86.502 230.014 87.1465 230.014C87.5892 230.014 88.0221 229.867 88.4453 229.574C88.6862 229.411 88.9303 229.187 89.1777 228.9V223.549C89.1777 223.048 89.0801 222.719 88.8848 222.562C88.6895 222.406 88.2988 222.312 87.7129 222.279V221.957H90.8672V228.832C90.8672 229.275 90.9453 229.581 91.1016 229.75C91.2643 229.913 91.6029 229.984 92.1172 229.965V230.238C91.7591 230.336 91.4954 230.411 91.3262 230.463C91.1569 230.508 90.8737 230.596 90.4766 230.727C90.3073 230.785 89.9362 230.925 89.3633 231.146C89.3307 231.146 89.3112 231.13 89.3047 231.098C89.2982 231.072 89.2949 231.039 89.2949 231V229.428C88.8522 229.955 88.4486 230.346 88.084 230.6C87.5306 230.99 86.9447 231.186 86.3262 231.186C85.7598 231.186 85.2259 230.984 84.7246 230.58C84.2168 230.183 83.9629 229.516 83.9629 228.578V223.51C83.9629 222.989 83.8522 222.641 83.6309 222.465C83.4876 222.354 83.1816 222.276 82.7129 222.23V221.957H85.6328ZM92.625 230.678C93.224 230.626 93.6211 230.521 93.8164 230.365C94.0117 230.202 94.1094 229.861 94.1094 229.34V224.936C94.1094 224.291 94.0475 223.832 93.9238 223.559C93.8066 223.279 93.5885 223.139 93.2695 223.139C93.2044 223.139 93.1165 223.148 93.0059 223.168C92.9017 223.181 92.791 223.201 92.6738 223.227V222.904C93.0449 222.774 93.4258 222.641 93.8164 222.504C94.207 222.367 94.4772 222.27 94.627 222.211C94.9525 222.087 95.2878 221.947 95.6328 221.791C95.6784 221.791 95.7044 221.807 95.7109 221.84C95.724 221.872 95.7305 221.941 95.7305 222.045V223.646C96.1471 223.067 96.5475 222.615 96.9316 222.289C97.3223 221.964 97.7259 221.801 98.1426 221.801C98.4746 221.801 98.7448 221.902 98.9531 222.104C99.1615 222.299 99.2656 222.546 99.2656 222.846C99.2656 223.113 99.1842 223.337 99.0215 223.52C98.8652 223.702 98.6667 223.793 98.4258 223.793C98.1784 223.793 97.9277 223.679 97.6738 223.451C97.4264 223.223 97.2311 223.109 97.0879 223.109C96.86 223.109 96.5801 223.295 96.248 223.666C95.916 224.031 95.75 224.408 95.75 224.799V229.203C95.75 229.763 95.8802 230.154 96.1406 230.375C96.401 230.59 96.834 230.691 97.4395 230.678V231H92.625V230.678ZM103.777 221.84C104.695 221.84 105.499 222.159 106.189 222.797C106.88 223.428 107.225 224.327 107.225 225.492H101.023C101.089 227.003 101.43 228.103 102.049 228.793C102.667 229.483 103.4 229.828 104.246 229.828C104.93 229.828 105.506 229.649 105.975 229.291C106.443 228.933 106.876 228.425 107.273 227.768L107.615 227.885C107.348 228.712 106.847 229.477 106.111 230.18C105.382 230.883 104.487 231.234 103.426 231.234C102.202 231.234 101.255 230.772 100.584 229.848C99.9199 228.923 99.5879 227.859 99.5879 226.654C99.5879 225.346 99.9753 224.216 100.75 223.266C101.525 222.315 102.534 221.84 103.777 221.84ZM103.211 222.553C102.469 222.553 101.902 222.882 101.512 223.539C101.303 223.891 101.154 224.333 101.062 224.867H105.184C105.112 224.216 104.988 223.731 104.812 223.412C104.493 222.839 103.96 222.553 103.211 222.553ZM114.119 227.924H114.441C114.591 228.666 114.793 229.236 115.047 229.633C115.503 230.362 116.17 230.727 117.049 230.727C117.537 230.727 117.921 230.593 118.201 230.326C118.488 230.053 118.631 229.701 118.631 229.271C118.631 228.998 118.549 228.734 118.387 228.48C118.224 228.227 117.938 227.979 117.527 227.738L116.434 227.113C115.633 226.684 115.044 226.251 114.666 225.814C114.288 225.378 114.1 224.864 114.1 224.271C114.1 223.542 114.36 222.943 114.881 222.475C115.402 222.006 116.056 221.771 116.844 221.771C117.189 221.771 117.566 221.837 117.977 221.967C118.393 222.097 118.628 222.162 118.68 222.162C118.797 222.162 118.882 222.146 118.934 222.113C118.986 222.081 119.031 222.029 119.07 221.957H119.305L119.373 224.682H119.07C118.94 224.05 118.764 223.559 118.543 223.207C118.139 222.556 117.557 222.23 116.795 222.23C116.339 222.23 115.981 222.37 115.721 222.65C115.46 222.93 115.33 223.259 115.33 223.637C115.33 224.236 115.779 224.77 116.678 225.238L117.967 225.932C119.354 226.687 120.047 227.566 120.047 228.568C120.047 229.337 119.757 229.965 119.178 230.453C118.605 230.941 117.853 231.186 116.922 231.186C116.531 231.186 116.089 231.12 115.594 230.99C115.099 230.86 114.806 230.795 114.715 230.795C114.637 230.795 114.568 230.824 114.51 230.883C114.451 230.935 114.406 231 114.373 231.078H114.119V227.924ZM123.973 221.957V228.207C123.973 228.65 124.035 229.005 124.158 229.271C124.399 229.766 124.842 230.014 125.486 230.014C125.929 230.014 126.362 229.867 126.785 229.574C127.026 229.411 127.27 229.187 127.518 228.9V223.549C127.518 223.048 127.42 222.719 127.225 222.562C127.029 222.406 126.639 222.312 126.053 222.279V221.957H129.207V228.832C129.207 229.275 129.285 229.581 129.441 229.75C129.604 229.913 129.943 229.984 130.457 229.965V230.238C130.099 230.336 129.835 230.411 129.666 230.463C129.497 230.508 129.214 230.596 128.816 230.727C128.647 230.785 128.276 230.925 127.703 231.146C127.671 231.146 127.651 231.13 127.645 231.098C127.638 231.072 127.635 231.039 127.635 231V229.428C127.192 229.955 126.788 230.346 126.424 230.6C125.87 230.99 125.285 231.186 124.666 231.186C124.1 231.186 123.566 230.984 123.064 230.58C122.557 230.183 122.303 229.516 122.303 228.578V223.51C122.303 222.989 122.192 222.641 121.971 222.465C121.827 222.354 121.521 222.276 121.053 222.23V221.957H123.973ZM134.07 229.203C134.24 229.646 134.49 229.978 134.822 230.199C135.161 230.414 135.558 230.521 136.014 230.521C136.717 230.521 137.316 230.173 137.811 229.477C138.312 228.773 138.562 227.797 138.562 226.547C138.562 225.349 138.302 224.454 137.781 223.861C137.267 223.269 136.668 222.973 135.984 222.973C135.503 222.973 135.063 223.122 134.666 223.422C134.269 223.715 134.07 224.005 134.07 224.291V229.203ZM130.965 235.033C131.577 234.994 131.964 234.864 132.127 234.643C132.296 234.421 132.381 234.073 132.381 233.598V224.223C132.381 223.728 132.319 223.412 132.195 223.275C132.078 223.132 131.854 223.061 131.521 223.061C131.45 223.061 131.382 223.064 131.316 223.07C131.258 223.077 131.17 223.09 131.053 223.109V222.787L131.98 222.484C132.013 222.478 132.667 222.253 133.943 221.811C133.976 221.811 133.999 221.827 134.012 221.859C134.031 221.885 134.041 221.918 134.041 221.957V223.275C134.471 222.846 134.848 222.527 135.174 222.318C135.76 221.954 136.362 221.771 136.98 221.771C137.879 221.771 138.65 222.156 139.295 222.924C139.946 223.686 140.271 224.73 140.271 226.059C140.271 227.361 139.881 228.542 139.1 229.604C138.325 230.665 137.348 231.195 136.17 231.195C135.805 231.195 135.49 231.15 135.223 231.059C134.806 230.922 134.422 230.671 134.07 230.307V233.5C134.07 234.158 134.178 234.561 134.393 234.711C134.607 234.861 135.076 234.962 135.799 235.014V235.355H130.965V235.033ZM144.07 229.203C144.24 229.646 144.49 229.978 144.822 230.199C145.161 230.414 145.558 230.521 146.014 230.521C146.717 230.521 147.316 230.173 147.811 229.477C148.312 228.773 148.562 227.797 148.562 226.547C148.562 225.349 148.302 224.454 147.781 223.861C147.267 223.269 146.668 222.973 145.984 222.973C145.503 222.973 145.063 223.122 144.666 223.422C144.269 223.715 144.07 224.005 144.07 224.291V229.203ZM140.965 235.033C141.577 234.994 141.964 234.864 142.127 234.643C142.296 234.421 142.381 234.073 142.381 233.598V224.223C142.381 223.728 142.319 223.412 142.195 223.275C142.078 223.132 141.854 223.061 141.521 223.061C141.45 223.061 141.382 223.064 141.316 223.07C141.258 223.077 141.17 223.09 141.053 223.109V222.787L141.98 222.484C142.013 222.478 142.667 222.253 143.943 221.811C143.976 221.811 143.999 221.827 144.012 221.859C144.031 221.885 144.041 221.918 144.041 221.957V223.275C144.471 222.846 144.848 222.527 145.174 222.318C145.76 221.954 146.362 221.771 146.98 221.771C147.879 221.771 148.65 222.156 149.295 222.924C149.946 223.686 150.271 224.73 150.271 226.059C150.271 227.361 149.881 228.542 149.1 229.604C148.325 230.665 147.348 231.195 146.17 231.195C145.805 231.195 145.49 231.15 145.223 231.059C144.806 230.922 144.422 230.671 144.07 230.307V233.5C144.07 234.158 144.178 234.561 144.393 234.711C144.607 234.861 145.076 234.962 145.799 235.014V235.355H140.965V235.033ZM151.385 226.469C151.385 225.173 151.795 224.079 152.615 223.188C153.442 222.289 154.503 221.84 155.799 221.84C157.088 221.84 158.156 222.263 159.002 223.109C159.848 223.956 160.271 225.082 160.271 226.488C160.271 227.784 159.861 228.91 159.041 229.867C158.221 230.824 157.16 231.303 155.857 231.303C154.607 231.303 153.549 230.844 152.684 229.926C151.818 229.008 151.385 227.855 151.385 226.469ZM155.525 222.426C155.011 222.426 154.565 222.595 154.188 222.934C153.536 223.526 153.211 224.548 153.211 226C153.211 227.159 153.471 228.24 153.992 229.242C154.52 230.245 155.249 230.746 156.18 230.746C156.909 230.746 157.469 230.411 157.859 229.74C158.257 229.07 158.455 228.191 158.455 227.104C158.455 225.977 158.204 224.916 157.703 223.92C157.202 222.924 156.476 222.426 155.525 222.426ZM160.965 230.678C161.564 230.626 161.961 230.521 162.156 230.365C162.352 230.202 162.449 229.861 162.449 229.34V224.936C162.449 224.291 162.387 223.832 162.264 223.559C162.146 223.279 161.928 223.139 161.609 223.139C161.544 223.139 161.456 223.148 161.346 223.168C161.242 223.181 161.131 223.201 161.014 223.227V222.904C161.385 222.774 161.766 222.641 162.156 222.504C162.547 222.367 162.817 222.27 162.967 222.211C163.292 222.087 163.628 221.947 163.973 221.791C164.018 221.791 164.044 221.807 164.051 221.84C164.064 221.872 164.07 221.941 164.07 222.045V223.646C164.487 223.067 164.887 222.615 165.271 222.289C165.662 221.964 166.066 221.801 166.482 221.801C166.814 221.801 167.085 221.902 167.293 222.104C167.501 222.299 167.605 222.546 167.605 222.846C167.605 223.113 167.524 223.337 167.361 223.52C167.205 223.702 167.007 223.793 166.766 223.793C166.518 223.793 166.268 223.679 166.014 223.451C165.766 223.223 165.571 223.109 165.428 223.109C165.2 223.109 164.92 223.295 164.588 223.666C164.256 224.031 164.09 224.408 164.09 224.799V229.203C164.09 229.763 164.22 230.154 164.48 230.375C164.741 230.59 165.174 230.691 165.779 230.678V231H160.965V230.678ZM172.625 221.996V222.699H170.633L170.613 228.324C170.613 228.819 170.656 229.193 170.74 229.447C170.896 229.896 171.202 230.121 171.658 230.121C171.893 230.121 172.094 230.066 172.264 229.955C172.439 229.844 172.638 229.669 172.859 229.428L173.113 229.643L172.898 229.936C172.56 230.391 172.202 230.714 171.824 230.902C171.447 231.091 171.082 231.186 170.73 231.186C169.962 231.186 169.441 230.844 169.168 230.16C169.018 229.789 168.943 229.275 168.943 228.617V222.699H167.879C167.846 222.68 167.82 222.66 167.801 222.641C167.788 222.621 167.781 222.595 167.781 222.562C167.781 222.497 167.794 222.449 167.82 222.416C167.853 222.377 167.947 222.292 168.104 222.162C168.553 221.791 168.875 221.492 169.07 221.264C169.272 221.029 169.741 220.417 170.477 219.428C170.561 219.428 170.61 219.434 170.623 219.447C170.643 219.46 170.652 219.509 170.652 219.594V221.996H172.625ZM174.139 227.924H174.461C174.611 228.666 174.812 229.236 175.066 229.633C175.522 230.362 176.189 230.727 177.068 230.727C177.557 230.727 177.941 230.593 178.221 230.326C178.507 230.053 178.65 229.701 178.65 229.271C178.65 228.998 178.569 228.734 178.406 228.48C178.243 228.227 177.957 227.979 177.547 227.738L176.453 227.113C175.652 226.684 175.063 226.251 174.686 225.814C174.308 225.378 174.119 224.864 174.119 224.271C174.119 223.542 174.38 222.943 174.9 222.475C175.421 222.006 176.076 221.771 176.863 221.771C177.208 221.771 177.586 221.837 177.996 221.967C178.413 222.097 178.647 222.162 178.699 222.162C178.816 222.162 178.901 222.146 178.953 222.113C179.005 222.081 179.051 222.029 179.09 221.957H179.324L179.393 224.682H179.09C178.96 224.05 178.784 223.559 178.562 223.207C178.159 222.556 177.576 222.23 176.814 222.23C176.359 222.23 176.001 222.37 175.74 222.65C175.48 222.93 175.35 223.259 175.35 223.637C175.35 224.236 175.799 224.77 176.697 225.238L177.986 225.932C179.373 226.687 180.066 227.566 180.066 228.568C180.066 229.337 179.777 229.965 179.197 230.453C178.624 230.941 177.872 231.186 176.941 231.186C176.551 231.186 176.108 231.12 175.613 230.99C175.118 230.86 174.826 230.795 174.734 230.795C174.656 230.795 174.588 230.824 174.529 230.883C174.471 230.935 174.425 231 174.393 231.078H174.139V227.924ZM188.992 221.957V228.207C188.992 228.65 189.054 229.005 189.178 229.271C189.419 229.766 189.861 230.014 190.506 230.014C190.949 230.014 191.382 229.867 191.805 229.574C192.046 229.411 192.29 229.187 192.537 228.9V223.549C192.537 223.048 192.439 222.719 192.244 222.562C192.049 222.406 191.658 222.312 191.072 222.279V221.957H194.227V228.832C194.227 229.275 194.305 229.581 194.461 229.75C194.624 229.913 194.962 229.984 195.477 229.965V230.238C195.118 230.336 194.855 230.411 194.686 230.463C194.516 230.508 194.233 230.596 193.836 230.727C193.667 230.785 193.296 230.925 192.723 231.146C192.69 231.146 192.671 231.13 192.664 231.098C192.658 231.072 192.654 231.039 192.654 231V229.428C192.212 229.955 191.808 230.346 191.443 230.6C190.89 230.99 190.304 231.186 189.686 231.186C189.119 231.186 188.585 230.984 188.084 230.58C187.576 230.183 187.322 229.516 187.322 228.578V223.51C187.322 222.989 187.212 222.641 186.99 222.465C186.847 222.354 186.541 222.276 186.072 222.23V221.957H188.992ZM199.09 229.203C199.259 229.646 199.51 229.978 199.842 230.199C200.18 230.414 200.577 230.521 201.033 230.521C201.736 230.521 202.335 230.173 202.83 229.477C203.331 228.773 203.582 227.797 203.582 226.547C203.582 225.349 203.322 224.454 202.801 223.861C202.286 223.269 201.688 222.973 201.004 222.973C200.522 222.973 200.083 223.122 199.686 223.422C199.288 223.715 199.09 224.005 199.09 224.291V229.203ZM195.984 235.033C196.596 234.994 196.984 234.864 197.146 234.643C197.316 234.421 197.4 234.073 197.4 233.598V224.223C197.4 223.728 197.339 223.412 197.215 223.275C197.098 223.132 196.873 223.061 196.541 223.061C196.469 223.061 196.401 223.064 196.336 223.07C196.277 223.077 196.189 223.09 196.072 223.109V222.787L197 222.484C197.033 222.478 197.687 222.253 198.963 221.811C198.995 221.811 199.018 221.827 199.031 221.859C199.051 221.885 199.061 221.918 199.061 221.957V223.275C199.49 222.846 199.868 222.527 200.193 222.318C200.779 221.954 201.382 221.771 202 221.771C202.898 221.771 203.67 222.156 204.314 222.924C204.965 223.686 205.291 224.73 205.291 226.059C205.291 227.361 204.9 228.542 204.119 229.604C203.344 230.665 202.368 231.195 201.189 231.195C200.825 231.195 200.509 231.15 200.242 231.059C199.826 230.922 199.441 230.671 199.09 230.307V233.5C199.09 234.158 199.197 234.561 199.412 234.711C199.627 234.861 200.096 234.962 200.818 235.014V235.355H195.984V235.033ZM215.984 221.996V222.699H213.992L213.973 228.324C213.973 228.819 214.015 229.193 214.1 229.447C214.256 229.896 214.562 230.121 215.018 230.121C215.252 230.121 215.454 230.066 215.623 229.955C215.799 229.844 215.997 229.669 216.219 229.428L216.473 229.643L216.258 229.936C215.919 230.391 215.561 230.714 215.184 230.902C214.806 231.091 214.441 231.186 214.09 231.186C213.322 231.186 212.801 230.844 212.527 230.16C212.378 229.789 212.303 229.275 212.303 228.617V222.699H211.238C211.206 222.68 211.18 222.66 211.16 222.641C211.147 222.621 211.141 222.595 211.141 222.562C211.141 222.497 211.154 222.449 211.18 222.416C211.212 222.377 211.307 222.292 211.463 222.162C211.912 221.791 212.234 221.492 212.43 221.264C212.632 221.029 213.1 220.417 213.836 219.428C213.921 219.428 213.969 219.434 213.982 219.447C214.002 219.46 214.012 219.509 214.012 219.594V221.996H215.984ZM216.971 226.469C216.971 225.173 217.381 224.079 218.201 223.188C219.028 222.289 220.089 221.84 221.385 221.84C222.674 221.84 223.742 222.263 224.588 223.109C225.434 223.956 225.857 225.082 225.857 226.488C225.857 227.784 225.447 228.91 224.627 229.867C223.807 230.824 222.745 231.303 221.443 231.303C220.193 231.303 219.135 230.844 218.27 229.926C217.404 229.008 216.971 227.855 216.971 226.469ZM221.111 222.426C220.597 222.426 220.151 222.595 219.773 222.934C219.122 223.526 218.797 224.548 218.797 226C218.797 227.159 219.057 228.24 219.578 229.242C220.105 230.245 220.835 230.746 221.766 230.746C222.495 230.746 223.055 230.411 223.445 229.74C223.842 229.07 224.041 228.191 224.041 227.104C224.041 225.977 223.79 224.916 223.289 223.92C222.788 222.924 222.062 222.426 221.111 222.426ZM70.7695 242.594L65.9746 249.371H70.7695V242.594ZM71.4141 240.582H72.3418V249.371H74.3828V250.67H72.3418V254H70.7891V250.67H65.1641V249.371L71.4141 240.582ZM84.6758 244.771C85.151 244.771 85.5872 244.876 85.9844 245.084C86.2448 245.221 86.4954 245.41 86.7363 245.65V242.545C86.7363 242.148 86.6908 241.874 86.5996 241.725C86.515 241.575 86.3066 241.5 85.9746 241.5C85.8965 241.5 85.8281 241.503 85.7695 241.51C85.7109 241.516 85.5807 241.529 85.3789 241.549V241.227L86.1797 241.021C86.4727 240.943 86.7656 240.862 87.0586 240.777C87.3516 240.693 87.6087 240.611 87.8301 240.533C87.9342 240.501 88.1068 240.439 88.3477 240.348L88.4062 240.367L88.3867 241.393C88.3802 241.764 88.3737 242.148 88.3672 242.545C88.3607 242.936 88.3574 243.323 88.3574 243.707L88.3379 251.686C88.3379 252.109 88.39 252.405 88.4941 252.574C88.5983 252.743 88.875 252.828 89.3242 252.828C89.3958 252.828 89.4674 252.828 89.5391 252.828C89.6107 252.822 89.6823 252.812 89.7539 252.799V253.121C89.7148 253.134 89.2428 253.297 88.3379 253.609L86.8047 254.186L86.7363 254.098V252.896C86.3717 253.294 86.056 253.577 85.7891 253.746C85.3138 254.039 84.7637 254.186 84.1387 254.186C83.0319 254.186 82.1335 253.759 81.4434 252.906C80.7598 252.047 80.418 251.054 80.418 249.928C80.418 248.515 80.8281 247.304 81.6484 246.295C82.4753 245.279 83.4844 244.771 84.6758 244.771ZM85.0371 253.131C85.5449 253.131 85.9551 252.981 86.2676 252.682C86.5801 252.382 86.7363 252.099 86.7363 251.832V247.643C86.7363 246.796 86.5085 246.201 86.0527 245.855C85.6035 245.504 85.1641 245.328 84.7344 245.328C83.9141 245.328 83.276 245.693 82.8203 246.422C82.3646 247.145 82.1367 248.036 82.1367 249.098C82.1367 250.146 82.3776 251.08 82.8594 251.9C83.3477 252.721 84.0736 253.131 85.0371 253.131ZM91.5801 241.393C91.5801 241.113 91.6777 240.872 91.873 240.67C92.0684 240.468 92.3092 240.367 92.5957 240.367C92.8757 240.367 93.1133 240.468 93.3086 240.67C93.5104 240.865 93.6113 241.106 93.6113 241.393C93.6113 241.673 93.5104 241.913 93.3086 242.115C93.1133 242.311 92.8757 242.408 92.5957 242.408C92.3092 242.408 92.0684 242.311 91.873 242.115C91.6777 241.913 91.5801 241.673 91.5801 241.393ZM90.3301 253.727C91.0267 253.661 91.4661 253.544 91.6484 253.375C91.8307 253.199 91.9219 252.73 91.9219 251.969V247.311C91.9219 246.887 91.8926 246.594 91.834 246.432C91.7363 246.165 91.5312 246.031 91.2188 246.031C91.1471 246.031 91.0755 246.038 91.0039 246.051C90.9388 246.064 90.7435 246.116 90.418 246.207V245.904L90.8379 245.768C91.9772 245.396 92.7715 245.117 93.2207 244.928C93.403 244.85 93.5202 244.811 93.5723 244.811C93.5853 244.856 93.5918 244.905 93.5918 244.957V251.969C93.5918 252.711 93.6797 253.176 93.8555 253.365C94.0378 253.554 94.4447 253.674 95.0762 253.727V254H90.3301V253.727ZM95.8965 253.727C96.5866 253.694 97.0391 253.567 97.2539 253.346C97.4753 253.118 97.5859 252.643 97.5859 251.92V245.65H95.916V244.996H97.5859C97.5859 243.967 97.7259 243.098 98.0059 242.389C98.5397 241.028 99.5195 240.348 100.945 240.348C101.518 240.348 102.029 240.462 102.479 240.689C102.934 240.917 103.162 241.223 103.162 241.607C103.162 241.822 103.084 242.014 102.928 242.184C102.771 242.353 102.583 242.438 102.361 242.438C102.173 242.438 102.01 242.382 101.873 242.271C101.736 242.154 101.574 241.952 101.385 241.666L101.219 241.412C101.128 241.275 101.02 241.161 100.896 241.07C100.773 240.973 100.6 240.924 100.379 240.924C99.8841 240.924 99.5488 241.168 99.373 241.656C99.2754 241.917 99.2266 242.258 99.2266 242.682V244.996H101.678V245.65H99.2461V251.92C99.2461 252.656 99.3438 253.128 99.5391 253.336C99.7409 253.538 100.262 253.668 101.102 253.727V254H95.8965V253.727ZM102.205 253.727C102.895 253.694 103.348 253.567 103.562 253.346C103.784 253.118 103.895 252.643 103.895 251.92V245.65H102.225V244.996H103.895C103.895 243.967 104.035 243.098 104.314 242.389C104.848 241.028 105.828 240.348 107.254 240.348C107.827 240.348 108.338 240.462 108.787 240.689C109.243 240.917 109.471 241.223 109.471 241.607C109.471 241.822 109.393 242.014 109.236 242.184C109.08 242.353 108.891 242.438 108.67 242.438C108.481 242.438 108.318 242.382 108.182 242.271C108.045 242.154 107.882 241.952 107.693 241.666L107.527 241.412C107.436 241.275 107.329 241.161 107.205 241.07C107.081 240.973 106.909 240.924 106.688 240.924C106.193 240.924 105.857 241.168 105.682 241.656C105.584 241.917 105.535 242.258 105.535 242.682V244.996H107.986V245.65H105.555V251.92C105.555 252.656 105.652 253.128 105.848 253.336C106.049 253.538 106.57 253.668 107.41 253.727V254H102.205V253.727ZM113.055 244.84C113.973 244.84 114.777 245.159 115.467 245.797C116.157 246.428 116.502 247.327 116.502 248.492H110.301C110.366 250.003 110.708 251.103 111.326 251.793C111.945 252.483 112.677 252.828 113.523 252.828C114.207 252.828 114.783 252.649 115.252 252.291C115.721 251.933 116.154 251.425 116.551 250.768L116.893 250.885C116.626 251.712 116.124 252.477 115.389 253.18C114.66 253.883 113.764 254.234 112.703 254.234C111.479 254.234 110.532 253.772 109.861 252.848C109.197 251.923 108.865 250.859 108.865 249.654C108.865 248.346 109.253 247.216 110.027 246.266C110.802 245.315 111.811 244.84 113.055 244.84ZM112.488 245.553C111.746 245.553 111.18 245.882 110.789 246.539C110.581 246.891 110.431 247.333 110.34 247.867H114.461C114.389 247.216 114.266 246.731 114.09 246.412C113.771 245.839 113.237 245.553 112.488 245.553ZM117.449 253.678C118.048 253.626 118.445 253.521 118.641 253.365C118.836 253.202 118.934 252.861 118.934 252.34V247.936C118.934 247.291 118.872 246.832 118.748 246.559C118.631 246.279 118.413 246.139 118.094 246.139C118.029 246.139 117.941 246.148 117.83 246.168C117.726 246.181 117.615 246.201 117.498 246.227V245.904C117.869 245.774 118.25 245.641 118.641 245.504C119.031 245.367 119.301 245.27 119.451 245.211C119.777 245.087 120.112 244.947 120.457 244.791C120.503 244.791 120.529 244.807 120.535 244.84C120.548 244.872 120.555 244.941 120.555 245.045V246.646C120.971 246.067 121.372 245.615 121.756 245.289C122.146 244.964 122.55 244.801 122.967 244.801C123.299 244.801 123.569 244.902 123.777 245.104C123.986 245.299 124.09 245.546 124.09 245.846C124.09 246.113 124.008 246.337 123.846 246.52C123.689 246.702 123.491 246.793 123.25 246.793C123.003 246.793 122.752 246.679 122.498 246.451C122.251 246.223 122.055 246.109 121.912 246.109C121.684 246.109 121.404 246.295 121.072 246.666C120.74 247.031 120.574 247.408 120.574 247.799V252.203C120.574 252.763 120.704 253.154 120.965 253.375C121.225 253.59 121.658 253.691 122.264 253.678V254H117.449V253.678ZM128.602 244.84C129.52 244.84 130.324 245.159 131.014 245.797C131.704 246.428 132.049 247.327 132.049 248.492H125.848C125.913 250.003 126.255 251.103 126.873 251.793C127.492 252.483 128.224 252.828 129.07 252.828C129.754 252.828 130.33 252.649 130.799 252.291C131.268 251.933 131.701 251.425 132.098 250.768L132.439 250.885C132.173 251.712 131.671 252.477 130.936 253.18C130.206 253.883 129.311 254.234 128.25 254.234C127.026 254.234 126.079 253.772 125.408 252.848C124.744 251.923 124.412 250.859 124.412 249.654C124.412 248.346 124.799 247.216 125.574 246.266C126.349 245.315 127.358 244.84 128.602 244.84ZM128.035 245.553C127.293 245.553 126.727 245.882 126.336 246.539C126.128 246.891 125.978 247.333 125.887 247.867H130.008C129.936 247.216 129.812 246.731 129.637 246.412C129.318 245.839 128.784 245.553 128.035 245.553ZM133.27 253.727C133.732 253.668 134.054 253.554 134.236 253.385C134.425 253.209 134.52 252.822 134.52 252.223V247.271C134.52 246.855 134.48 246.562 134.402 246.393C134.279 246.145 134.025 246.021 133.641 246.021C133.582 246.021 133.52 246.025 133.455 246.031C133.396 246.038 133.322 246.048 133.23 246.061V245.719C133.497 245.641 134.129 245.439 135.125 245.113L136.043 244.811C136.089 244.811 136.115 244.827 136.121 244.859C136.134 244.892 136.141 244.938 136.141 244.996V246.432C136.74 245.872 137.208 245.488 137.547 245.279C138.055 244.96 138.582 244.801 139.129 244.801C139.572 244.801 139.975 244.928 140.34 245.182C141.043 245.676 141.395 246.559 141.395 247.828V252.389C141.395 252.857 141.489 253.196 141.678 253.404C141.867 253.613 142.182 253.72 142.625 253.727V254H138.455V253.727C138.93 253.661 139.262 253.531 139.451 253.336C139.64 253.134 139.734 252.701 139.734 252.037V247.867C139.734 247.307 139.63 246.845 139.422 246.48C139.214 246.109 138.829 245.924 138.27 245.924C137.885 245.924 137.495 246.054 137.098 246.314C136.876 246.464 136.59 246.712 136.238 247.057V252.525C136.238 252.994 136.342 253.31 136.551 253.473C136.759 253.629 137.088 253.714 137.537 253.727V254H133.27V253.727ZM147.996 244.996V245.699H146.004L145.984 251.324C145.984 251.819 146.027 252.193 146.111 252.447C146.268 252.896 146.574 253.121 147.029 253.121C147.264 253.121 147.465 253.066 147.635 252.955C147.811 252.844 148.009 252.669 148.23 252.428L148.484 252.643L148.27 252.936C147.931 253.391 147.573 253.714 147.195 253.902C146.818 254.091 146.453 254.186 146.102 254.186C145.333 254.186 144.812 253.844 144.539 253.16C144.389 252.789 144.314 252.275 144.314 251.617V245.699H143.25C143.217 245.68 143.191 245.66 143.172 245.641C143.159 245.621 143.152 245.595 143.152 245.562C143.152 245.497 143.165 245.449 143.191 245.416C143.224 245.377 143.318 245.292 143.475 245.162C143.924 244.791 144.246 244.492 144.441 244.264C144.643 244.029 145.112 243.417 145.848 242.428C145.932 242.428 145.981 242.434 145.994 242.447C146.014 242.46 146.023 242.509 146.023 242.594V244.996H147.996ZM156.57 244.957V251.207C156.57 251.65 156.632 252.005 156.756 252.271C156.997 252.766 157.439 253.014 158.084 253.014C158.527 253.014 158.96 252.867 159.383 252.574C159.624 252.411 159.868 252.187 160.115 251.9V246.549C160.115 246.048 160.018 245.719 159.822 245.562C159.627 245.406 159.236 245.312 158.65 245.279V244.957H161.805V251.832C161.805 252.275 161.883 252.581 162.039 252.75C162.202 252.913 162.54 252.984 163.055 252.965V253.238C162.697 253.336 162.433 253.411 162.264 253.463C162.094 253.508 161.811 253.596 161.414 253.727C161.245 253.785 160.874 253.925 160.301 254.146C160.268 254.146 160.249 254.13 160.242 254.098C160.236 254.072 160.232 254.039 160.232 254V252.428C159.79 252.955 159.386 253.346 159.021 253.6C158.468 253.99 157.882 254.186 157.264 254.186C156.697 254.186 156.163 253.984 155.662 253.58C155.154 253.183 154.9 252.516 154.9 251.578V246.51C154.9 245.989 154.79 245.641 154.568 245.465C154.425 245.354 154.119 245.276 153.65 245.23V244.957H156.57ZM163.836 253.727C164.298 253.668 164.62 253.554 164.803 253.385C164.992 253.209 165.086 252.822 165.086 252.223V247.271C165.086 246.855 165.047 246.562 164.969 246.393C164.845 246.145 164.591 246.021 164.207 246.021C164.148 246.021 164.087 246.025 164.021 246.031C163.963 246.038 163.888 246.048 163.797 246.061V245.719C164.064 245.641 164.695 245.439 165.691 245.113L166.609 244.811C166.655 244.811 166.681 244.827 166.688 244.859C166.701 244.892 166.707 244.938 166.707 244.996V246.432C167.306 245.872 167.775 245.488 168.113 245.279C168.621 244.96 169.148 244.801 169.695 244.801C170.138 244.801 170.542 244.928 170.906 245.182C171.609 245.676 171.961 246.559 171.961 247.828V252.389C171.961 252.857 172.055 253.196 172.244 253.404C172.433 253.613 172.749 253.72 173.191 253.727V254H169.021V253.727C169.497 253.661 169.829 253.531 170.018 253.336C170.206 253.134 170.301 252.701 170.301 252.037V247.867C170.301 247.307 170.197 246.845 169.988 246.48C169.78 246.109 169.396 245.924 168.836 245.924C168.452 245.924 168.061 246.054 167.664 246.314C167.443 246.464 167.156 246.712 166.805 247.057V252.525C166.805 252.994 166.909 253.31 167.117 253.473C167.326 253.629 167.654 253.714 168.104 253.727V254H163.836V253.727ZM175.115 241.393C175.115 241.113 175.213 240.872 175.408 240.67C175.604 240.468 175.844 240.367 176.131 240.367C176.411 240.367 176.648 240.468 176.844 240.67C177.046 240.865 177.146 241.106 177.146 241.393C177.146 241.673 177.046 241.913 176.844 242.115C176.648 242.311 176.411 242.408 176.131 242.408C175.844 242.408 175.604 242.311 175.408 242.115C175.213 241.913 175.115 241.673 175.115 241.393ZM173.865 253.727C174.562 253.661 175.001 253.544 175.184 253.375C175.366 253.199 175.457 252.73 175.457 251.969V247.311C175.457 246.887 175.428 246.594 175.369 246.432C175.271 246.165 175.066 246.031 174.754 246.031C174.682 246.031 174.611 246.038 174.539 246.051C174.474 246.064 174.279 246.116 173.953 246.207V245.904L174.373 245.768C175.512 245.396 176.307 245.117 176.756 244.928C176.938 244.85 177.055 244.811 177.107 244.811C177.12 244.856 177.127 244.905 177.127 244.957V251.969C177.127 252.711 177.215 253.176 177.391 253.365C177.573 253.554 177.98 253.674 178.611 253.727V254H173.865V253.727ZM184.129 244.996V245.699H182.137L182.117 251.324C182.117 251.819 182.16 252.193 182.244 252.447C182.4 252.896 182.706 253.121 183.162 253.121C183.396 253.121 183.598 253.066 183.768 252.955C183.943 252.844 184.142 252.669 184.363 252.428L184.617 252.643L184.402 252.936C184.064 253.391 183.706 253.714 183.328 253.902C182.951 254.091 182.586 254.186 182.234 254.186C181.466 254.186 180.945 253.844 180.672 253.16C180.522 252.789 180.447 252.275 180.447 251.617V245.699H179.383C179.35 245.68 179.324 245.66 179.305 245.641C179.292 245.621 179.285 245.595 179.285 245.562C179.285 245.497 179.298 245.449 179.324 245.416C179.357 245.377 179.451 245.292 179.607 245.162C180.057 244.791 180.379 244.492 180.574 244.264C180.776 244.029 181.245 243.417 181.98 242.428C182.065 242.428 182.114 242.434 182.127 242.447C182.146 242.46 182.156 242.509 182.156 242.594V244.996H184.129ZM185.643 250.924H185.965C186.115 251.666 186.316 252.236 186.57 252.633C187.026 253.362 187.693 253.727 188.572 253.727C189.061 253.727 189.445 253.593 189.725 253.326C190.011 253.053 190.154 252.701 190.154 252.271C190.154 251.998 190.073 251.734 189.91 251.48C189.747 251.227 189.461 250.979 189.051 250.738L187.957 250.113C187.156 249.684 186.567 249.251 186.189 248.814C185.812 248.378 185.623 247.864 185.623 247.271C185.623 246.542 185.883 245.943 186.404 245.475C186.925 245.006 187.579 244.771 188.367 244.771C188.712 244.771 189.09 244.837 189.5 244.967C189.917 245.097 190.151 245.162 190.203 245.162C190.32 245.162 190.405 245.146 190.457 245.113C190.509 245.081 190.555 245.029 190.594 244.957H190.828L190.896 247.682H190.594C190.464 247.05 190.288 246.559 190.066 246.207C189.663 245.556 189.08 245.23 188.318 245.23C187.863 245.23 187.505 245.37 187.244 245.65C186.984 245.93 186.854 246.259 186.854 246.637C186.854 247.236 187.303 247.77 188.201 248.238L189.49 248.932C190.877 249.687 191.57 250.566 191.57 251.568C191.57 252.337 191.281 252.965 190.701 253.453C190.128 253.941 189.376 254.186 188.445 254.186C188.055 254.186 187.612 254.12 187.117 253.99C186.622 253.86 186.329 253.795 186.238 253.795C186.16 253.795 186.092 253.824 186.033 253.883C185.975 253.935 185.929 254 185.896 254.078H185.643V250.924ZM197.908 249.469C197.908 248.173 198.318 247.079 199.139 246.188C199.965 245.289 201.027 244.84 202.322 244.84C203.611 244.84 204.679 245.263 205.525 246.109C206.372 246.956 206.795 248.082 206.795 249.488C206.795 250.784 206.385 251.91 205.564 252.867C204.744 253.824 203.683 254.303 202.381 254.303C201.131 254.303 200.073 253.844 199.207 252.926C198.341 252.008 197.908 250.855 197.908 249.469ZM202.049 245.426C201.535 245.426 201.089 245.595 200.711 245.934C200.06 246.526 199.734 247.548 199.734 249C199.734 250.159 199.995 251.24 200.516 252.242C201.043 253.245 201.772 253.746 202.703 253.746C203.432 253.746 203.992 253.411 204.383 252.74C204.78 252.07 204.979 251.191 204.979 250.104C204.979 248.977 204.728 247.916 204.227 246.92C203.725 245.924 202.999 245.426 202.049 245.426ZM207.791 253.727C208.481 253.694 208.934 253.567 209.148 253.346C209.37 253.118 209.48 252.643 209.48 251.92V245.65H207.811V244.996H209.48C209.48 243.967 209.62 243.098 209.9 242.389C210.434 241.028 211.414 240.348 212.84 240.348C213.413 240.348 213.924 240.462 214.373 240.689C214.829 240.917 215.057 241.223 215.057 241.607C215.057 241.822 214.979 242.014 214.822 242.184C214.666 242.353 214.477 242.438 214.256 242.438C214.067 242.438 213.904 242.382 213.768 242.271C213.631 242.154 213.468 241.952 213.279 241.666L213.113 241.412C213.022 241.275 212.915 241.161 212.791 241.07C212.667 240.973 212.495 240.924 212.273 240.924C211.779 240.924 211.443 241.168 211.268 241.656C211.17 241.917 211.121 242.258 211.121 242.682V244.996H213.572V245.65H211.141V251.92C211.141 252.656 211.238 253.128 211.434 253.336C211.635 253.538 212.156 253.668 212.996 253.727V254H207.791V253.727ZM82.5762 276.746C83.084 276.701 83.4225 276.616 83.5918 276.492C83.8522 276.303 83.9824 275.926 83.9824 275.359V270.311C83.9824 269.829 83.9173 269.513 83.7871 269.363C83.6634 269.214 83.4551 269.139 83.1621 269.139C83.0254 269.139 82.9212 269.145 82.8496 269.158C82.7845 269.171 82.7064 269.194 82.6152 269.227V268.885L83.3184 268.65C83.5723 268.566 83.9889 268.413 84.5684 268.191C85.1478 267.97 85.4538 267.859 85.4863 267.859C85.5189 267.859 85.5384 267.876 85.5449 267.908C85.5514 267.941 85.5547 268.003 85.5547 268.094V269.412C86.1992 268.826 86.7559 268.423 87.2246 268.201C87.6934 267.973 88.1751 267.859 88.6699 267.859C89.3405 267.859 89.8743 268.087 90.2715 268.543C90.4798 268.79 90.6523 269.126 90.7891 269.549C91.2708 269.061 91.6908 268.699 92.0488 268.465C92.6673 268.061 93.2988 267.859 93.9434 267.859C94.9915 267.859 95.6914 268.286 96.043 269.139C96.2448 269.62 96.3457 270.382 96.3457 271.424V275.477C96.3457 275.939 96.4466 276.255 96.6484 276.424C96.8568 276.587 97.2279 276.694 97.7617 276.746V277H93.3574V276.727C93.9238 276.674 94.2949 276.561 94.4707 276.385C94.653 276.209 94.7441 275.851 94.7441 275.311V271.102C94.7441 270.47 94.6758 270.005 94.5391 269.705C94.2982 269.171 93.8262 268.904 93.123 268.904C92.6999 268.904 92.2799 269.044 91.8633 269.324C91.6224 269.487 91.3262 269.747 90.9746 270.105V275.105C90.9746 275.633 91.0658 276.033 91.248 276.307C91.4368 276.58 91.8307 276.727 92.4297 276.746V277H87.9473V276.746C88.5658 276.668 88.9596 276.518 89.1289 276.297C89.2982 276.076 89.3828 275.532 89.3828 274.666V271.932C89.3828 270.929 89.3177 270.239 89.1875 269.861C88.9727 269.223 88.5169 268.904 87.8203 268.904C87.4232 268.904 87.0326 269.015 86.6484 269.236C86.2643 269.451 85.9258 269.734 85.6328 270.086V275.428C85.6328 275.923 85.7174 276.264 85.8867 276.453C86.0625 276.642 86.4401 276.74 87.0195 276.746V277H82.5762V276.746ZM102.4 267.84C103.318 267.84 104.122 268.159 104.812 268.797C105.503 269.428 105.848 270.327 105.848 271.492H99.6465C99.7116 273.003 100.053 274.103 100.672 274.793C101.29 275.483 102.023 275.828 102.869 275.828C103.553 275.828 104.129 275.649 104.598 275.291C105.066 274.933 105.499 274.425 105.896 273.768L106.238 273.885C105.971 274.712 105.47 275.477 104.734 276.18C104.005 276.883 103.11 277.234 102.049 277.234C100.825 277.234 99.8776 276.772 99.207 275.848C98.543 274.923 98.2109 273.859 98.2109 272.654C98.2109 271.346 98.5983 270.216 99.373 269.266C100.148 268.315 101.157 267.84 102.4 267.84ZM101.834 268.553C101.092 268.553 100.525 268.882 100.135 269.539C99.9264 269.891 99.7767 270.333 99.6855 270.867H103.807C103.735 270.216 103.611 269.731 103.436 269.412C103.117 268.839 102.583 268.553 101.834 268.553ZM112.439 271.59C111.691 271.837 111.072 272.111 110.584 272.41C109.646 272.99 109.178 273.647 109.178 274.383C109.178 274.975 109.373 275.411 109.764 275.691C110.018 275.874 110.301 275.965 110.613 275.965C111.043 275.965 111.453 275.844 111.844 275.604C112.241 275.363 112.439 275.057 112.439 274.686V271.59ZM107.439 275.057C107.439 274.113 107.911 273.325 108.855 272.693C109.454 272.303 110.649 271.772 112.439 271.102V270.271C112.439 269.607 112.374 269.145 112.244 268.885C112.023 268.449 111.564 268.23 110.867 268.23C110.535 268.23 110.219 268.315 109.92 268.484C109.62 268.66 109.471 268.901 109.471 269.207C109.471 269.285 109.487 269.419 109.52 269.607C109.552 269.79 109.568 269.907 109.568 269.959C109.568 270.324 109.448 270.577 109.207 270.721C109.07 270.805 108.908 270.848 108.719 270.848C108.426 270.848 108.201 270.753 108.045 270.564C107.889 270.369 107.811 270.154 107.811 269.92C107.811 269.464 108.09 268.989 108.65 268.494C109.217 267.993 110.044 267.742 111.131 267.742C112.394 267.742 113.25 268.152 113.699 268.973C113.94 269.422 114.061 270.076 114.061 270.936V274.852C114.061 275.229 114.087 275.49 114.139 275.633C114.223 275.887 114.399 276.014 114.666 276.014C114.816 276.014 114.939 275.991 115.037 275.945C115.135 275.9 115.304 275.789 115.545 275.613V276.121C115.337 276.375 115.112 276.583 114.871 276.746C114.507 276.993 114.135 277.117 113.758 277.117C113.315 277.117 112.993 276.974 112.791 276.688C112.596 276.401 112.488 276.059 112.469 275.662C111.974 276.092 111.551 276.411 111.199 276.619C110.607 276.971 110.044 277.146 109.51 277.146C108.95 277.146 108.465 276.951 108.055 276.561C107.645 276.163 107.439 275.662 107.439 275.057ZM116.629 273.924H116.951C117.101 274.666 117.303 275.236 117.557 275.633C118.012 276.362 118.68 276.727 119.559 276.727C120.047 276.727 120.431 276.593 120.711 276.326C120.997 276.053 121.141 275.701 121.141 275.271C121.141 274.998 121.059 274.734 120.896 274.48C120.734 274.227 120.447 273.979 120.037 273.738L118.943 273.113C118.143 272.684 117.553 272.251 117.176 271.814C116.798 271.378 116.609 270.864 116.609 270.271C116.609 269.542 116.87 268.943 117.391 268.475C117.911 268.006 118.566 267.771 119.354 267.771C119.699 267.771 120.076 267.837 120.486 267.967C120.903 268.097 121.137 268.162 121.189 268.162C121.307 268.162 121.391 268.146 121.443 268.113C121.495 268.081 121.541 268.029 121.58 267.957H121.814L121.883 270.682H121.58C121.45 270.05 121.274 269.559 121.053 269.207C120.649 268.556 120.066 268.23 119.305 268.23C118.849 268.23 118.491 268.37 118.23 268.65C117.97 268.93 117.84 269.259 117.84 269.637C117.84 270.236 118.289 270.77 119.188 271.238L120.477 271.932C121.863 272.687 122.557 273.566 122.557 274.568C122.557 275.337 122.267 275.965 121.688 276.453C121.115 276.941 120.363 277.186 119.432 277.186C119.041 277.186 118.598 277.12 118.104 276.99C117.609 276.86 117.316 276.795 117.225 276.795C117.146 276.795 117.078 276.824 117.02 276.883C116.961 276.935 116.915 277 116.883 277.078H116.629V273.924ZM126.482 267.957V274.207C126.482 274.65 126.544 275.005 126.668 275.271C126.909 275.766 127.352 276.014 127.996 276.014C128.439 276.014 128.872 275.867 129.295 275.574C129.536 275.411 129.78 275.187 130.027 274.9V269.549C130.027 269.048 129.93 268.719 129.734 268.562C129.539 268.406 129.148 268.312 128.562 268.279V267.957H131.717V274.832C131.717 275.275 131.795 275.581 131.951 275.75C132.114 275.913 132.452 275.984 132.967 275.965V276.238C132.609 276.336 132.345 276.411 132.176 276.463C132.007 276.508 131.723 276.596 131.326 276.727C131.157 276.785 130.786 276.925 130.213 277.146C130.18 277.146 130.161 277.13 130.154 277.098C130.148 277.072 130.145 277.039 130.145 277V275.428C129.702 275.955 129.298 276.346 128.934 276.6C128.38 276.99 127.794 277.186 127.176 277.186C126.609 277.186 126.076 276.984 125.574 276.58C125.066 276.183 124.812 275.516 124.812 274.578V269.51C124.812 268.989 124.702 268.641 124.48 268.465C124.337 268.354 124.031 268.276 123.562 268.23V267.957H126.482ZM133.475 276.678C134.074 276.626 134.471 276.521 134.666 276.365C134.861 276.202 134.959 275.861 134.959 275.34V270.936C134.959 270.291 134.897 269.832 134.773 269.559C134.656 269.279 134.438 269.139 134.119 269.139C134.054 269.139 133.966 269.148 133.855 269.168C133.751 269.181 133.641 269.201 133.523 269.227V268.904C133.895 268.774 134.275 268.641 134.666 268.504C135.057 268.367 135.327 268.27 135.477 268.211C135.802 268.087 136.137 267.947 136.482 267.791C136.528 267.791 136.554 267.807 136.561 267.84C136.574 267.872 136.58 267.941 136.58 268.045V269.646C136.997 269.067 137.397 268.615 137.781 268.289C138.172 267.964 138.576 267.801 138.992 267.801C139.324 267.801 139.594 267.902 139.803 268.104C140.011 268.299 140.115 268.546 140.115 268.846C140.115 269.113 140.034 269.337 139.871 269.52C139.715 269.702 139.516 269.793 139.275 269.793C139.028 269.793 138.777 269.679 138.523 269.451C138.276 269.223 138.081 269.109 137.938 269.109C137.71 269.109 137.43 269.295 137.098 269.666C136.766 270.031 136.6 270.408 136.6 270.799V275.203C136.6 275.763 136.73 276.154 136.99 276.375C137.251 276.59 137.684 276.691 138.289 276.678V277H133.475V276.678ZM144.627 267.84C145.545 267.84 146.349 268.159 147.039 268.797C147.729 269.428 148.074 270.327 148.074 271.492H141.873C141.938 273.003 142.28 274.103 142.898 274.793C143.517 275.483 144.249 275.828 145.096 275.828C145.779 275.828 146.355 275.649 146.824 275.291C147.293 274.933 147.726 274.425 148.123 273.768L148.465 273.885C148.198 274.712 147.697 275.477 146.961 276.18C146.232 276.883 145.337 277.234 144.275 277.234C143.051 277.234 142.104 276.772 141.434 275.848C140.77 274.923 140.438 273.859 140.438 272.654C140.438 271.346 140.825 270.216 141.6 269.266C142.374 268.315 143.383 267.84 144.627 267.84ZM144.061 268.553C143.318 268.553 142.752 268.882 142.361 269.539C142.153 269.891 142.003 270.333 141.912 270.867H146.033C145.962 270.216 145.838 269.731 145.662 269.412C145.343 268.839 144.809 268.553 144.061 268.553ZM149.256 276.746C149.764 276.701 150.102 276.616 150.271 276.492C150.532 276.303 150.662 275.926 150.662 275.359V270.311C150.662 269.829 150.597 269.513 150.467 269.363C150.343 269.214 150.135 269.139 149.842 269.139C149.705 269.139 149.601 269.145 149.529 269.158C149.464 269.171 149.386 269.194 149.295 269.227V268.885L149.998 268.65C150.252 268.566 150.669 268.413 151.248 268.191C151.827 267.97 152.133 267.859 152.166 267.859C152.199 267.859 152.218 267.876 152.225 267.908C152.231 267.941 152.234 268.003 152.234 268.094V269.412C152.879 268.826 153.436 268.423 153.904 268.201C154.373 267.973 154.855 267.859 155.35 267.859C156.02 267.859 156.554 268.087 156.951 268.543C157.16 268.79 157.332 269.126 157.469 269.549C157.951 269.061 158.37 268.699 158.729 268.465C159.347 268.061 159.979 267.859 160.623 267.859C161.671 267.859 162.371 268.286 162.723 269.139C162.924 269.62 163.025 270.382 163.025 271.424V275.477C163.025 275.939 163.126 276.255 163.328 276.424C163.536 276.587 163.908 276.694 164.441 276.746V277H160.037V276.727C160.604 276.674 160.975 276.561 161.15 276.385C161.333 276.209 161.424 275.851 161.424 275.311V271.102C161.424 270.47 161.355 270.005 161.219 269.705C160.978 269.171 160.506 268.904 159.803 268.904C159.38 268.904 158.96 269.044 158.543 269.324C158.302 269.487 158.006 269.747 157.654 270.105V275.105C157.654 275.633 157.745 276.033 157.928 276.307C158.117 276.58 158.51 276.727 159.109 276.746V277H154.627V276.746C155.245 276.668 155.639 276.518 155.809 276.297C155.978 276.076 156.062 275.532 156.062 274.666V271.932C156.062 270.929 155.997 270.239 155.867 269.861C155.652 269.223 155.197 268.904 154.5 268.904C154.103 268.904 153.712 269.015 153.328 269.236C152.944 269.451 152.605 269.734 152.312 270.086V275.428C152.312 275.923 152.397 276.264 152.566 276.453C152.742 276.642 153.12 276.74 153.699 276.746V277H149.256V276.746ZM169.08 267.84C169.998 267.84 170.802 268.159 171.492 268.797C172.182 269.428 172.527 270.327 172.527 271.492H166.326C166.391 273.003 166.733 274.103 167.352 274.793C167.97 275.483 168.702 275.828 169.549 275.828C170.232 275.828 170.809 275.649 171.277 275.291C171.746 274.933 172.179 274.425 172.576 273.768L172.918 273.885C172.651 274.712 172.15 275.477 171.414 276.18C170.685 276.883 169.79 277.234 168.729 277.234C167.505 277.234 166.557 276.772 165.887 275.848C165.223 274.923 164.891 273.859 164.891 272.654C164.891 271.346 165.278 270.216 166.053 269.266C166.827 268.315 167.837 267.84 169.08 267.84ZM168.514 268.553C167.771 268.553 167.205 268.882 166.814 269.539C166.606 269.891 166.456 270.333 166.365 270.867H170.486C170.415 270.216 170.291 269.731 170.115 269.412C169.796 268.839 169.262 268.553 168.514 268.553ZM173.748 276.727C174.21 276.668 174.533 276.554 174.715 276.385C174.904 276.209 174.998 275.822 174.998 275.223V270.271C174.998 269.855 174.959 269.562 174.881 269.393C174.757 269.145 174.503 269.021 174.119 269.021C174.061 269.021 173.999 269.025 173.934 269.031C173.875 269.038 173.8 269.048 173.709 269.061V268.719C173.976 268.641 174.607 268.439 175.604 268.113L176.521 267.811C176.567 267.811 176.593 267.827 176.6 267.859C176.613 267.892 176.619 267.938 176.619 267.996V269.432C177.218 268.872 177.687 268.488 178.025 268.279C178.533 267.96 179.061 267.801 179.607 267.801C180.05 267.801 180.454 267.928 180.818 268.182C181.521 268.676 181.873 269.559 181.873 270.828V275.389C181.873 275.857 181.967 276.196 182.156 276.404C182.345 276.613 182.661 276.72 183.104 276.727V277H178.934V276.727C179.409 276.661 179.741 276.531 179.93 276.336C180.118 276.134 180.213 275.701 180.213 275.037V270.867C180.213 270.307 180.109 269.845 179.9 269.48C179.692 269.109 179.308 268.924 178.748 268.924C178.364 268.924 177.973 269.054 177.576 269.314C177.355 269.464 177.068 269.712 176.717 270.057V275.525C176.717 275.994 176.821 276.31 177.029 276.473C177.238 276.629 177.566 276.714 178.016 276.727V277H173.748V276.727ZM188.475 267.996V268.699H186.482L186.463 274.324C186.463 274.819 186.505 275.193 186.59 275.447C186.746 275.896 187.052 276.121 187.508 276.121C187.742 276.121 187.944 276.066 188.113 275.955C188.289 275.844 188.488 275.669 188.709 275.428L188.963 275.643L188.748 275.936C188.41 276.391 188.051 276.714 187.674 276.902C187.296 277.091 186.932 277.186 186.58 277.186C185.812 277.186 185.291 276.844 185.018 276.16C184.868 275.789 184.793 275.275 184.793 274.617V268.699H183.729C183.696 268.68 183.67 268.66 183.65 268.641C183.637 268.621 183.631 268.595 183.631 268.562C183.631 268.497 183.644 268.449 183.67 268.416C183.702 268.377 183.797 268.292 183.953 268.162C184.402 267.791 184.725 267.492 184.92 267.264C185.122 267.029 185.59 266.417 186.326 265.428C186.411 265.428 186.46 265.434 186.473 265.447C186.492 265.46 186.502 265.509 186.502 265.594V267.996H188.475ZM189.988 273.924H190.311C190.46 274.666 190.662 275.236 190.916 275.633C191.372 276.362 192.039 276.727 192.918 276.727C193.406 276.727 193.79 276.593 194.07 276.326C194.357 276.053 194.5 275.701 194.5 275.271C194.5 274.998 194.419 274.734 194.256 274.48C194.093 274.227 193.807 273.979 193.396 273.738L192.303 273.113C191.502 272.684 190.913 272.251 190.535 271.814C190.158 271.378 189.969 270.864 189.969 270.271C189.969 269.542 190.229 268.943 190.75 268.475C191.271 268.006 191.925 267.771 192.713 267.771C193.058 267.771 193.436 267.837 193.846 267.967C194.262 268.097 194.497 268.162 194.549 268.162C194.666 268.162 194.751 268.146 194.803 268.113C194.855 268.081 194.9 268.029 194.939 267.957H195.174L195.242 270.682H194.939C194.809 270.05 194.633 269.559 194.412 269.207C194.008 268.556 193.426 268.23 192.664 268.23C192.208 268.23 191.85 268.37 191.59 268.65C191.329 268.93 191.199 269.259 191.199 269.637C191.199 270.236 191.648 270.77 192.547 271.238L193.836 271.932C195.223 272.687 195.916 273.566 195.916 274.568C195.916 275.337 195.626 275.965 195.047 276.453C194.474 276.941 193.722 277.186 192.791 277.186C192.4 277.186 191.958 277.12 191.463 276.99C190.968 276.86 190.675 276.795 190.584 276.795C190.506 276.795 190.438 276.824 190.379 276.883C190.32 276.935 190.275 277 190.242 277.078H189.988V273.924Z" fill="#FA5629"/>
</g>
<defs>
<filter id="filter0_ii_1_33" x="0" y="0" width="278" height="350" filterUnits="userSpaceOnUse" color-interpolation-filters="sRGB">
<feFlood flood-opacity="0" result="BackgroundImageFix"/>
<feBlend mode="normal" in="SourceGraphic" in2="BackgroundImageFix" result="shape"/>
<feColorMatrix in="SourceAlpha" type="matrix" values="0 0 0 0 0 0 0 0 0 0 0 0 0 0 0 0 0 0 127 0" result="hardAlpha"/>
<feOffset dy="4"/>
<feGaussianBlur stdDeviation="2"/>
<feComposite in2="hardAlpha" operator="arithmetic" k2="-1" k3="1"/>
<feColorMatrix type="matrix" values="0 0 0 0 0 0 0 0 0 0 0 0 0 0 0 0 0 0 0.25 0"/>
<feBlend mode="normal" in2="shape" result="effect1_innerShadow_1_33"/>
<feColorMatrix in="SourceAlpha" type="matrix" values="0 0 0 0 0 0 0 0 0 0 0 0 0 0 0 0 0 0 127 0" result="hardAlpha"/>
<feOffset dy="4"/>
<feGaussianBlur stdDeviation="2"/>
<feComposite in2="hardAlpha" operator="arithmetic" k2="-1" k3="1"/>
<feColorMatrix type="matrix" values="0 0 0 0 0 0 0 0 0 0 0 0 0 0 0 0 0 0 0.25 0"/>
<feBlend mode="normal" in2="effect1_innerShadow_1_33" result="effect2_innerShadow_1_33"/>
</filter>
</defs>
</svg>
